<svg aria-hidden="true" style="position: absolute; width: 0; height: 0; overflow: hidden;" version="1.1" xmlns="http://www.w3.org/2000/svg" xmlns:xlink="http://www.w3.org/1999/xlink">
<defs>
<symbol id="icon-close" viewBox="0 0 32 32">
<path d="M25.354 24.646c0.094 0.094 0.147 0.221 0.147 0.354s-0.053 0.26-0.147 0.354c-0.094 0.094-0.221 0.147-0.354 0.147s-0.26-0.053-0.354-0.147l-8.646-8.646-8.646 8.646c-0.094 0.094-0.221 0.147-0.354 0.147s-0.26-0.053-0.354-0.147c-0.094-0.094-0.147-0.221-0.147-0.354s0.053-0.26 0.147-0.354l8.646-8.646-8.646-8.646c-0.094-0.094-0.147-0.221-0.147-0.354s0.053-0.26 0.147-0.354c0.094-0.094 0.221-0.147 0.354-0.147s0.26 0.053 0.354 0.147l8.646 8.646 8.646-8.646c0.046-0.046 0.102-0.083 0.162-0.108s0.126-0.038 0.192-0.038c0.066 0 0.131 0.013 0.191 0.038s0.116 0.062 0.162 0.108c0.046 0.046 0.083 0.102 0.108 0.162s0.038 0.126 0.038 0.191c0 0.066-0.013 0.131-0.038 0.191s-0.062 0.116-0.108 0.162l-8.646 8.646 8.646 8.646z"></path>
</symbol>
</defs>
</svg>
