<svg aria-hidden="true" style="position: absolute; width: 0; height: 0; overflow: hidden;" version="1.1" xmlns="http://www.w3.org/2000/svg" xmlns:xlink="http://www.w3.org/1999/xlink">
<defs>
<symbol id="close" viewBox="0 0 32 32">
<path fill="#fff" style="fill: var(--color1, #fff)" d="M25.354 24.646c0.094 0.094 0.147 0.221 0.147 0.354s-0.053 0.26-0.147 0.354c-0.094 0.094-0.221 0.147-0.354 0.147s-0.26-0.053-0.354-0.147l-8.646-8.646-8.646 8.646c-0.094 0.094-0.221 0.147-0.354 0.147s-0.26-0.053-0.354-0.147c-0.094-0.094-0.147-0.221-0.147-0.354s0.053-0.26 0.147-0.354l8.646-8.646-8.646-8.646c-0.094-0.094-0.147-0.221-0.147-0.354s0.053-0.26 0.147-0.354c0.094-0.094 0.221-0.147 0.354-0.147s0.26 0.053 0.354 0.147l8.646 8.646 8.646-8.646c0.046-0.046 0.102-0.083 0.162-0.108s0.126-0.038 0.191-0.038c0.066 0 0.131 0.013 0.192 0.038s0.116 0.062 0.162 0.108c0.046 0.046 0.083 0.102 0.108 0.162s0.038 0.126 0.038 0.191c0 0.066-0.013 0.131-0.038 0.191s-0.062 0.116-0.108 0.162l-8.646 8.646 8.646 8.646z"></path>
</symbol>
<symbol id="facebook" viewBox="0 0 32 32">
<path fill="#fff" style="fill: var(--color1, #fff)" d="M16 2.72c-7.333 0-13.333 5.987-13.333 13.36 0 6.667 4.88 12.2 11.253 13.2v-9.333h-3.387v-3.867h3.387v-2.947c0-3.347 1.987-5.187 5.040-5.187 1.453 0 2.973 0.253 2.973 0.253v3.293h-1.68c-1.653 0-2.173 1.027-2.173 2.080v2.507h3.707l-0.6 3.867h-3.107v9.333c3.142-0.496 6.003-2.099 8.067-4.52s3.194-5.499 3.187-8.68c0-7.373-6-13.36-13.333-13.36z"></path>
</symbol>
<symbol id="instagram" viewBox="0 0 32 32">
<path fill="#fff" style="fill: var(--color1, #fff)" d="M10.4 2.667h11.2c4.267 0 7.733 3.467 7.733 7.733v11.2c0 2.051-0.815 4.018-2.265 5.468s-3.417 2.265-5.468 2.265h-11.2c-4.267 0-7.733-3.467-7.733-7.733v-11.2c0-2.051 0.815-4.018 2.265-5.468s3.417-2.265 5.468-2.265zM10.133 5.333c-1.273 0-2.494 0.506-3.394 1.406s-1.406 2.121-1.406 3.394v11.733c0 2.653 2.147 4.8 4.8 4.8h11.733c1.273 0 2.494-0.506 3.394-1.406s1.406-2.121 1.406-3.394v-11.733c0-2.653-2.147-4.8-4.8-4.8h-11.733zM23 7.333c0.442 0 0.866 0.176 1.179 0.488s0.488 0.736 0.488 1.178c0 0.442-0.176 0.866-0.488 1.178s-0.737 0.488-1.179 0.488c-0.442 0-0.866-0.176-1.179-0.488s-0.488-0.736-0.488-1.178c0-0.442 0.176-0.866 0.488-1.178s0.737-0.488 1.179-0.488zM16 9.333c1.768 0 3.464 0.702 4.714 1.953s1.953 2.946 1.953 4.714-0.702 3.464-1.953 4.714c-1.25 1.25-2.946 1.953-4.714 1.953s-3.464-0.702-4.714-1.953c-1.25-1.25-1.953-2.946-1.953-4.714s0.702-3.464 1.953-4.714c1.25-1.25 2.946-1.953 4.714-1.953zM16 12c-1.061 0-2.078 0.421-2.828 1.172s-1.172 1.768-1.172 2.828c0 1.061 0.421 2.078 1.172 2.828s1.768 1.172 2.828 1.172c1.061 0 2.078-0.421 2.828-1.172s1.172-1.768 1.172-2.828c0-1.061-0.421-2.078-1.172-2.828s-1.768-1.172-2.828-1.172z"></path>
</symbol>
<symbol id="logo" viewBox="0 0 32 32">
<path fill="#fff" style="fill: var(--color1, #fff)" d="M14.841 0.021c-0.072 0.008-0.348 0.037-0.612 0.063-0.97 0.096-2.147 0.348-3.174 0.679-3.633 1.169-6.802 3.697-8.797 7.015-1.255 2.088-2.003 4.408-2.224 6.903-0.066 0.744-0.030 2.552 0.066 3.287 0.405 3.122 1.632 5.928 3.638 8.327 0.532 0.635 1.578 1.666 2.184 2.151 2.566 2.055 5.504 3.235 8.763 3.52 0.749 0.066 2.551 0.029 3.284-0.066 3.551-0.463 6.663-1.965 9.201-4.441 2.802-2.734 4.45-6.218 4.798-10.14 0.066-0.744 0.030-2.552-0.066-3.287-0.346-2.661-1.332-5.197-2.838-7.299-1.040-1.452-2.408-2.812-3.859-3.839-2.263-1.601-4.999-2.602-7.804-2.855-0.459-0.041-2.244-0.054-2.559-0.018zM17.496 0.539c4.502 0.431 8.538 2.778 11.208 6.517 0.83 1.163 1.613 2.727 2.073 4.144 0.476 1.464 0.693 2.761 0.734 4.384 0.028 1.076-0.016 1.837-0.16 2.783-0.752 4.935-3.875 9.234-8.351 11.494-6.733 3.399-14.902 1.481-19.448-4.567-1.388-1.847-2.389-4.12-2.812-6.385-0.236-1.267-0.329-2.954-0.226-4.133 0.303-3.477 1.589-6.494 3.877-9.097 2.496-2.839 6.181-4.746 9.881-5.113 0.265-0.026 0.54-0.054 0.612-0.063 0.38-0.044 2.012-0.021 2.611 0.037zM16.153 1.436c-0.168 0.016-0.262 0.032-0.208 0.036 0.089 0.007 0.098 0.030 0.098 0.248v0.241h-0.394v-0.22c0-0.187 0.015-0.226 0.098-0.26 0.072-0.029 0.012-0.040-0.227-0.042-0.268-0.002-0.313 0.007-0.255 0.052 0.053 0.041 0.077 0.173 0.1 0.542 0.028 0.446 0.023 0.491-0.050 0.532-0.124 0.070-0.063 0.082 0.247 0.050 0.156-0.016 0.252-0.032 0.214-0.036-0.049-0.005-0.079-0.068-0.098-0.21-0.046-0.335-0.050-0.328 0.18-0.313l0.208 0.013 0.013 0.23c0.012 0.206 0.002 0.234-0.087 0.271-0.076 0.030-0.020 0.041 0.225 0.043 0.271 0.002 0.313-0.006 0.25-0.052-0.060-0.044-0.080-0.155-0.103-0.569-0.025-0.46-0.020-0.514 0.045-0.514 0.040 0 0.072-0.020 0.072-0.044s-0.005-0.040-0.011-0.036c-0.006 0.004-0.149 0.020-0.317 0.036zM16.7 1.49c0 0.018 0.032 0.034 0.072 0.034 0.063 0 0.069 0.042 0.044 0.335-0.016 0.184-0.028 0.401-0.028 0.481 0 0.088-0.035 0.181-0.087 0.234l-0.087 0.087 0.208 0.001c0.114 0 0.257 0.012 0.317 0.025 0.105 0.023 0.106 0.022 0.026-0.043-0.076-0.062-0.081-0.109-0.055-0.557 0.015-0.269 0.033-0.492 0.040-0.496s0.107 0.001 0.223 0.011c0.186 0.017 0.219 0.035 0.267 0.15l0.055 0.131 0.027-0.166c0.015-0.091 0.023-0.171 0.017-0.176-0.030-0.030-1.037-0.079-1.037-0.050zM14.271 1.859c-0.065 0.213-0.144 0.472-0.176 0.577s-0.093 0.231-0.137 0.28c-0.078 0.089-0.078 0.090 0.030 0.062 0.060-0.015 0.159-0.029 0.219-0.030 0.095-0.002 0.1-0.008 0.033-0.046-0.088-0.051-0.104-0.253-0.022-0.279 0.030-0.009 0.129-0.029 0.219-0.044 0.146-0.024 0.17-0.015 0.214 0.083 0.039 0.085 0.037 0.125-0.005 0.177-0.048 0.058-0.039 0.064 0.070 0.047 0.069-0.011 0.202-0.032 0.295-0.047 0.159-0.025 0.164-0.030 0.083-0.087-0.047-0.033-0.201-0.253-0.34-0.489-0.396-0.667-0.346-0.646-0.482-0.203zM17.979 1.595c0.094 0.028 0.094 0.046 0.003 0.593-0.059 0.353-0.089 0.446-0.153 0.462-0.044 0.011-0.080 0.034-0.080 0.050 0 0.026 0.816 0.181 0.947 0.18 0.046-0 0.146-0.218 0.146-0.319 0-0.024-0.053 0.010-0.117 0.074-0.095 0.095-0.151 0.115-0.295 0.104-0.198-0.015-0.228-0.069-0.18-0.324 0.035-0.187 0.148-0.198 0.184-0.018 0.041 0.204 0.087 0.156 0.135-0.142 0.041-0.248 0.029-0.4-0.021-0.262-0.028 0.078-0.141 0.185-0.196 0.185-0.030 0-0.036-0.078-0.016-0.229 0.017-0.126 0.035-0.234 0.041-0.239s0.085 0.010 0.175 0.035c0.121 0.033 0.18 0.081 0.221 0.179 0.062 0.147 0.095 0.126 0.119-0.074 0.015-0.128 0.009-0.132-0.247-0.184-0.279-0.056-0.796-0.113-0.667-0.074zM13.354 1.677c-0.024 0.009-0.191 0.040-0.372 0.069-0.26 0.042-0.307 0.060-0.23 0.089 0.054 0.020 0.098 0.043 0.098 0.051s0.040 0.23 0.088 0.493c0.084 0.456 0.084 0.481 0.011 0.538-0.069 0.053-0.063 0.056 0.054 0.034 0.072-0.013 0.258-0.048 0.414-0.077 0.347-0.065 0.495-0.189 0.474-0.399-0.011-0.109-0.046-0.158-0.155-0.212-0.139-0.070-0.14-0.072-0.055-0.149 0.107-0.097 0.11-0.202 0.010-0.321-0.075-0.088-0.252-0.149-0.339-0.117zM13.395 1.855c0.038 0.038 0.069 0.105 0.069 0.15 0 0.094-0.111 0.219-0.194 0.219-0.055 0-0.112-0.182-0.112-0.355 0-0.102 0.141-0.11 0.237-0.013zM12.381 1.899c-0.030 0.033-0.082 0.049-0.116 0.036-0.123-0.047-0.412 0.071-0.547 0.225-0.109 0.124-0.135 0.193-0.135 0.352 0 0.222 0.046 0.333 0.21 0.509 0.206 0.221 0.649 0.2 0.837-0.039 0.139-0.176 0.106-0.227-0.041-0.066-0.11 0.121-0.157 0.141-0.294 0.13-0.129-0.011-0.184-0.045-0.262-0.162-0.055-0.082-0.1-0.164-0.1-0.182s0.074-0.057 0.164-0.084c0.090-0.028 0.19-0.059 0.221-0.069s0.046-0.037 0.031-0.061c-0.015-0.025-0.067-0.027-0.123-0.007-0.053 0.020-0.151 0.049-0.217 0.065-0.117 0.028-0.12 0.024-0.12-0.158 0.001-0.211 0.025-0.262 0.16-0.333 0.143-0.075 0.211-0.062 0.366 0.067l0.14 0.118-0.032-0.151c-0.047-0.222-0.077-0.262-0.143-0.191zM19.455 1.863c0 0.012 0.032 0.046 0.070 0.074 0.064 0.047 0.062 0.080-0.022 0.377-0.097 0.342-0.209 0.535-0.323 0.557-0.044 0.009-0.074-0.023-0.083-0.087-0.009-0.067-0.044-0.101-0.102-0.101-0.068 0-0.087 0.029-0.087 0.131 0 0.117 0.016 0.133 0.145 0.145 0.27 0.026 0.398-0.137 0.556-0.703 0.067-0.24 0.076-0.25 0.187-0.223 0.064 0.015 0.121 0.031 0.127 0.035s-0.052 0.226-0.127 0.495c-0.114 0.406-0.152 0.49-0.228 0.502-0.057 0.009 0.015 0.048 0.193 0.104 0.156 0.049 0.294 0.080 0.306 0.069s-0.003-0.029-0.033-0.040c-0.077-0.028-0.070-0.102 0.062-0.592 0.087-0.325 0.138-0.442 0.202-0.466 0.061-0.023-0.043-0.069-0.379-0.165-0.255-0.074-0.464-0.124-0.464-0.111zM14.489 2.27c-0.014 0.023-0.073 0.041-0.132 0.041-0.118 0-0.132-0.058-0.061-0.246l0.046-0.12 0.086 0.142c0.047 0.078 0.075 0.161 0.061 0.183zM20.563 2.235c0.069 0.051 0.063 0.089-0.084 0.528-0.112 0.335-0.183 0.482-0.243 0.504-0.064 0.024-0.017 0.053 0.199 0.123 0.271 0.088 0.281 0.088 0.232 0.009-0.042-0.068-0.024-0.164 0.101-0.53 0.131-0.383 0.168-0.451 0.262-0.473s0.067-0.040-0.172-0.122c-0.32-0.109-0.402-0.12-0.295-0.041zM13.533 2.42c0.089 0.136 0.052 0.312-0.074 0.352-0.124 0.039-0.165-0.012-0.198-0.255-0.027-0.2-0.025-0.206 0.086-0.206 0.074 0 0.14 0.039 0.186 0.109zM10.159 2.635c-0.073 0.032-0.187 0.121-0.251 0.198-0.24 0.285-0.116 0.759 0.245 0.936 0.292 0.143 0.675-0.013 0.836-0.34 0.074-0.15 0.077-0.195 0.030-0.371-0.029-0.11-0.087-0.237-0.127-0.281-0.179-0.198-0.473-0.255-0.732-0.142zM21.366 2.622c-0.129 0.075-0.173 0.248-0.1 0.395 0.071 0.142 0.091 0.119-0.313 0.353l-0.185 0.107 0.312 0.149 0.254-0.154c0.237-0.144 0.351-0.186 0.351-0.13 0 0.013-0.040 0.102-0.088 0.197-0.061 0.12-0.118 0.174-0.186 0.177s-0.015 0.043 0.165 0.129c0.314 0.15 0.345 0.155 0.276 0.046-0.076-0.122 0.295-0.93 0.444-0.966 0.082-0.019 0.029-0.055-0.274-0.187-0.39-0.169-0.522-0.192-0.656-0.115zM10.515 2.815c0.188 0.2 0.316 0.585 0.246 0.74-0.066 0.145-0.24 0.186-0.385 0.091-0.155-0.102-0.333-0.501-0.315-0.71 0.010-0.124 0.041-0.178 0.123-0.219 0.155-0.078 0.17-0.074 0.332 0.098zM15.798 2.86c-0.67 0.71-1.038 2.696-1.204 6.498-0.029 0.67-0.045 1.225-0.034 1.234s0.11 0.030 0.22 0.046l0.201 0.029 0.031-0.734c0.096-2.31 0.307-4.473 0.534-5.479 0.128-0.567 0.362-1.181 0.45-1.181 0.021 0 0.090 0.123 0.153 0.273 0.415 0.985 0.669 3.090 0.834 6.894 0.035 0.803 0.072 1.469 0.082 1.479s0.102-0.006 0.204-0.037l0.185-0.056-0.030-1.052c-0.128-4.448-0.505-6.935-1.188-7.831-0.198-0.26-0.263-0.272-0.439-0.085zM21.837 2.748l0.113 0.043-0.113 0.223c-0.108 0.213-0.117 0.22-0.209 0.16-0.13-0.086-0.146-0.266-0.033-0.379 0.105-0.105 0.095-0.103 0.241-0.047zM8.981 3.235c-0.42 0.239-0.546 0.33-0.386 0.282 0.084-0.025 0.124 0.023 0.346 0.416s0.245 0.455 0.196 0.533c-0.047 0.075-0.014 0.066 0.2-0.053 0.311-0.174 0.385-0.237 0.234-0.201-0.1 0.024-0.129-0.008-0.341-0.38-0.127-0.223-0.233-0.425-0.235-0.449s0.081-0.088 0.184-0.142c0.172-0.091 0.196-0.094 0.29-0.032 0.056 0.037 0.102 0.056 0.102 0.042 0-0.042-0.14-0.24-0.169-0.24-0.015 0-0.205 0.101-0.421 0.224zM22.779 3.786c-0.108 0.037-0.203 0.073-0.211 0.080-0.024 0.020 0.090 0.546 0.123 0.567 0.017 0.011 0.044-0.083 0.058-0.209 0.020-0.169 0.052-0.246 0.124-0.294 0.053-0.036 0.138-0.099 0.187-0.141 0.089-0.074 0.089-0.075 0.002-0.073-0.048 0.001-0.176 0.033-0.284 0.070zM7.908 3.897c-0.479 0.242-0.519 0.769-0.083 1.092 0.148 0.11 0.434 0.112 0.618 0.004 0.454-0.265 0.448-0.861-0.010-1.096-0.106-0.054-0.223-0.098-0.261-0.098s-0.157 0.044-0.264 0.098zM23.186 3.969c-0.125 0.038-0.241 0.084-0.258 0.101-0.040 0.042 0.070 0.559 0.119 0.559 0.021 0 0.038-0.096 0.038-0.213 0-0.206 0.007-0.218 0.201-0.344 0.243-0.158 0.206-0.196-0.1-0.102zM23.85 3.961c-0.048 0.012-0.142 0.060-0.208 0.108-0.372 0.264-0.319 0.826 0.098 1.048 0.163 0.086 0.438 0.11 0.438 0.037 0-0.024-0.070-0.044-0.156-0.044-0.228 0-0.433-0.211-0.394-0.406 0.040-0.198 0.221-0.455 0.379-0.536 0.277-0.143 0.549 0.043 0.514 0.351-0.010 0.084-0.005 0.153 0.011 0.153s0.083-0.082 0.149-0.182c0.085-0.129 0.1-0.174 0.050-0.154-0.047 0.018-0.103-0.017-0.166-0.103-0.162-0.219-0.465-0.335-0.714-0.272zM8.258 4.115c0.166 0.168 0.307 0.428 0.307 0.563 0 0.13-0.121 0.257-0.246 0.257-0.138 0-0.385-0.226-0.495-0.453s-0.114-0.324-0.018-0.429c0.113-0.125 0.291-0.1 0.451 0.062zM14.227 4.061c-2.581 0.391-4.904 1.564-6.757 3.411-3.414 3.405-4.455 8.445-2.683 12.989 1.314 3.37 4.232 6.040 7.757 7.1 1.051 0.316 2.755 0.577 2.755 0.422 0-0.024 0.060-0.081 0.133-0.125l0.133-0.081-0.129-0.108c-0.11-0.092-0.189-0.112-0.538-0.135-0.539-0.036-1.47-0.21-2.119-0.397-4.035-1.164-7.174-4.489-8.084-8.564-0.218-0.976-0.26-1.381-0.262-2.55-0.002-1.239 0.052-1.731 0.305-2.764 0.41-1.676 1.144-3.174 2.206-4.504 0.398-0.499 1.227-1.334 1.727-1.742 1.681-1.369 3.828-2.282 5.931-2.521l0.421-0.048 0.065-0.235 0.065-0.235-0.202 0.004c-0.111 0.002-0.439 0.040-0.728 0.084zM16.854 4.196c0.032 0.123 0.065 0.228 0.073 0.233s0.21 0.032 0.451 0.060c2.551 0.29 5.004 1.489 6.831 3.34 0.642 0.65 0.992 1.076 1.433 1.743 0.986 1.49 1.563 3.001 1.847 4.841 0.102 0.663 0.102 2.513 0 3.176-0.315 2.040-1.042 3.793-2.228 5.379-0.524 0.7-1.594 1.77-2.295 2.295-1.46 1.093-3.080 1.805-4.848 2.132-0.318 0.059-0.737 0.12-0.931 0.136-0.345 0.029-0.353 0.032-0.381 0.158-0.017 0.075-0.080 0.16-0.155 0.205-0.167 0.101-0.122 0.135 0.178 0.135 0.584 0 1.781-0.213 2.625-0.466 5.841-1.756 9.474-7.611 8.438-13.602-0.428-2.477-1.589-4.715-3.364-6.487-1.416-1.414-3.164-2.46-5.087-3.042-0.716-0.217-2.018-0.457-2.478-0.457h-0.169l0.059 0.223zM6.875 4.651c-0.117 0.108-0.182 0.186-0.145 0.174 0.040-0.014 0.133 0.045 0.232 0.147l0.166 0.17-0.137 0.116c-0.075 0.064-0.154 0.116-0.174 0.116s-0.089-0.062-0.153-0.138c-0.085-0.101-0.109-0.167-0.089-0.246 0.024-0.095-0.001-0.084-0.216 0.1-0.133 0.114-0.243 0.215-0.243 0.225s0.045 0.006 0.099-0.008c0.080-0.020 0.14 0.023 0.317 0.228 0.451 0.522 0.435 0.497 0.378 0.587-0.077 0.123-0.035 0.103 0.198-0.098 0.226-0.194 0.284-0.273 0.167-0.229-0.076 0.029-0.373-0.22-0.373-0.312 0-0.027 0.062-0.095 0.138-0.151l0.138-0.102 0.15 0.164c0.099 0.108 0.142 0.192 0.128 0.248-0.018 0.070 0.005 0.062 0.142-0.046 0.090-0.072 0.188-0.159 0.217-0.194 0.044-0.052 0.039-0.060-0.026-0.044-0.112 0.028-0.732-0.693-0.7-0.815 0.012-0.047 0.016-0.086 0.009-0.086s-0.109 0.088-0.226 0.197zM24.964 4.562c0.065 0.078 0.056 0.093-0.302 0.517-0.238 0.282-0.304 0.336-0.385 0.316-0.054-0.013-0.098-0.018-0.098-0.010s0.108 0.108 0.24 0.221c0.233 0.201 0.239 0.204 0.216 0.085-0.020-0.099 0.005-0.15 0.132-0.273 0.181-0.175 0.192-0.143 0.094 0.268-0.057 0.237-0.055 0.252 0.034 0.33 0.223 0.195 0.225 0.195 0.23-0.024 0.009-0.394 0.039-0.619 0.083-0.62 0.024-0.001 0.093-0.039 0.153-0.087 0.157-0.123 0.244-0.112 0.242 0.032-0.002 0.145 0.124 0.188 0.19 0.065 0.033-0.061 0.027-0.108-0.021-0.178-0.084-0.12-0.256-0.122-0.45-0.003-0.094 0.057-0.186 0.081-0.251 0.065-0.132-0.033-0.129-0.059 0.033-0.236 0.093-0.102 0.16-0.139 0.22-0.124 0.119 0.031 0.093-0.009-0.142-0.224-0.196-0.179-0.323-0.25-0.215-0.121zM12.822 5.347c-0.485 0.026-0.894 0.059-0.908 0.074s-0.104 0.546-0.2 1.181c-0.096 0.635-0.213 1.411-0.261 1.723s-0.284 1.887-0.526 3.499c-0.241 1.612-0.449 2.975-0.461 3.029l-0.022 0.098h1.050c0.578 0 1.050-0.016 1.050-0.035s0.049-0.373 0.109-0.787c0.060-0.414 0.109-0.79 0.109-0.836 0-0.053-0.105-0.159-0.287-0.289-0.349-0.249-0.85-0.711-0.85-0.784 0-0.148 0.67-0.493 1.148-0.591 0.138-0.028 0.251-0.073 0.251-0.099 0-0.086 0.445-3.248 0.459-3.262 0.008-0.008 0.243 0.117 0.523 0.278s0.515 0.285 0.522 0.277c0.007-0.009 0.037-0.39 0.066-0.847s0.064-0.982 0.078-1.166l0.024-0.335-0.133-0.069c-0.116-0.060-0.142-0.109-0.203-0.387-0.039-0.175-0.091-0.411-0.117-0.526l-0.047-0.208-0.247 0.007c-0.136 0.004-0.644 0.029-1.129 0.055zM26.036 5.485c0.019 0.071-0.058 0.17-0.348 0.454-0.312 0.305-0.383 0.355-0.438 0.309-0.036-0.030-0.066-0.037-0.066-0.015 0 0.041 0.663 0.715 0.703 0.715 0.013 0 0.091-0.050 0.174-0.111l0.151-0.111-0.18 0.029c-0.159 0.025-0.197 0.013-0.328-0.104l-0.148-0.133 0.151-0.156c0.083-0.086 0.164-0.156 0.181-0.156 0.065 0 0.074 0.125 0.017 0.235-0.089 0.172-0.020 0.139 0.22-0.104 0.225-0.228 0.231-0.252 0.045-0.167-0.087 0.039-0.125 0.039-0.165-0.001s-0.015-0.089 0.113-0.215l0.165-0.163 0.107 0.123c0.118 0.135 0.134 0.248 0.056 0.394-0.048 0.090-0.046 0.092 0.032 0.030 0.26-0.205 0.267-0.168-0.115-0.571-0.196-0.207-0.34-0.329-0.327-0.279zM5.543 5.883c-0.166 0.16-0.302 0.31-0.302 0.333s0.029 0.017 0.066-0.013c0.055-0.046 0.126 0.001 0.44 0.286 0.316 0.287 0.371 0.356 0.349 0.443-0.014 0.056-0.017 0.103-0.006 0.103s0.149-0.148 0.307-0.329c0.23-0.263 0.287-0.358 0.287-0.474 0-0.202-0.127-0.309-0.327-0.276-0.145 0.024-0.153 0.019-0.128-0.078 0.018-0.071-0.003-0.131-0.065-0.194-0.16-0.16-0.29-0.119-0.62 0.2zM5.941 5.897c0.099 0.099 0.107 0.145 0.042 0.266-0.044 0.082-0.053 0.079-0.216-0.057-0.158-0.132-0.165-0.148-0.101-0.219 0.090-0.1 0.167-0.097 0.275 0.011zM15.898 6.203c-0.064 0.23-0.073 0.557-0.072 2.701l0.001 2.439 0.345 0.394 0.001-2.624c0.001-2.397-0.006-2.646-0.077-2.874-0.043-0.138-0.089-0.261-0.101-0.273s-0.056 0.094-0.096 0.238zM6.361 6.262c0.095 0.081 0.113 0.125 0.089 0.219-0.040 0.16-0.154 0.149-0.329-0.031l-0.143-0.148 0.101-0.071c0.13-0.091 0.142-0.090 0.282 0.031zM27.087 6.652c0.018 0.075-0.011 0.126-0.126 0.217-0.306 0.242-0.481 0.341-0.601 0.341-0.114 0-0.122-0.010-0.098-0.131 0.030-0.15-0.071-0.223-0.182-0.131-0.090 0.075-0.081 0.19 0.021 0.283 0.154 0.139 0.437 0.070 0.774-0.189 0.296-0.227 0.332-0.236 0.406-0.098 0.036 0.067-0.015 0.125-0.329 0.374-0.26 0.206-0.398 0.288-0.458 0.272-0.047-0.012-0.086-0.012-0.086 0.002 0 0.024 0.299 0.406 0.352 0.449 0.015 0.012 0.063 0.084 0.107 0.161 0.093 0.16 0.168 0.188 0.514 0.188 0.138 0 0.251 0.019 0.251 0.041 0 0.072-0.306 0.232-0.398 0.209-0.095-0.025-0.089-0.008 0.138 0.353 0.075 0.12 0.128 0.128 0.099 0.016-0.017-0.065 0.067-0.137 0.407-0.35 0.285-0.178 0.443-0.253 0.472-0.224 0.208 0.208-0.098-0.363-0.33-0.617-0.208-0.227-0.562-0.121-0.562 0.169l0 0.12-0.295-0.015c-0.535-0.027-0.537-0.148-0.011-0.549 0.328-0.25 0.404-0.291 0.459-0.245 0.036 0.030 0.066 0.040 0.066 0.023 0-0.038-0.564-0.766-0.594-0.766-0.011 0-0.009 0.044 0.004 0.098zM4.911 6.639c-0.144 0.058-0.363 0.337-0.393 0.5-0.094 0.503 0.489 0.905 0.924 0.637 0.423-0.261 0.427-0.836 0.008-1.091-0.147-0.090-0.381-0.109-0.539-0.045zM5.344 7.005c0.252 0.206 0.327 0.382 0.229 0.532-0.13 0.199-0.467 0.109-0.747-0.201-0.162-0.179-0.201-0.367-0.099-0.471 0.099-0.102 0.406-0.032 0.617 0.141zM3.815 8.025c-0.182 0.28-0.336 0.531-0.342 0.558s-0.003 0.034 0.007 0.016c0.042-0.075 0.187-0.017 0.571 0.231 0.354 0.228 0.404 0.275 0.381 0.36-0.025 0.096-0.024 0.096 0.052-0.008 0.156-0.213 0.293-0.464 0.219-0.404s-0.216-0.009-0.763-0.377l-0.185-0.124 0.218-0.321 0.207 0.129c0.531 0.33 0.644 0.42 0.633 0.506-0.010 0.074-0.001 0.072 0.066-0.020 0.042-0.058 0.123-0.182 0.179-0.276 0.094-0.156 0.095-0.166 0.016-0.117-0.073 0.046-0.116 0.036-0.278-0.060-0.478-0.285-0.628-0.407-0.625-0.503 0.002-0.053-0.004-0.097-0.012-0.097s-0.164 0.229-0.346 0.509zM28.062 8.005c0.089 0.089 0.060 0.15-0.13 0.275-0.174 0.115-0.185 0.117-0.241 0.041-0.078-0.106-0.073-0.192 0.014-0.289 0.082-0.091 0.278-0.106 0.356-0.027zM17.417 8.729c0.025 0.431 0.109 2.659 0.113 2.972 0.001 0.093 0.027 0.088 0.777-0.171 0.427-0.147 0.795-0.284 0.817-0.303 0.025-0.022-0.008-0.437-0.082-1.061l-0.123-1.026-0.737-0.462c-0.405-0.254-0.75-0.462-0.766-0.462s-0.016 0.231 0 0.514zM28.176 9.353c-0.279 0.179-0.343 0.545-0.151 0.861 0.104 0.17 0.339 0.306 0.409 0.235 0.034-0.034 0.026-0.047-0.030-0.047-0.119 0-0.333-0.238-0.333-0.371 0-0.173 0.069-0.27 0.278-0.393 0.244-0.143 0.513-0.149 0.639-0.015 0.105 0.112 0.117 0.332 0.025 0.454-0.106 0.14-0.077 0.157 0.108 0.063s0.217-0.149 0.109-0.191c-0.036-0.014-0.066-0.067-0.066-0.118 0-0.159-0.134-0.385-0.283-0.477-0.189-0.117-0.522-0.117-0.705 0zM4.122 9.702c-0.023 0.023-0.321 0.047-0.661 0.054l-0.62 0.012 0.391 0.45c0.215 0.248 0.391 0.479 0.391 0.514s0.020 0.064 0.044 0.064c0.024 0 0.044-0.007 0.044-0.017s0.030-0.088 0.067-0.176c0.065-0.155 0.064-0.158-0.019-0.106-0.071 0.045-0.101 0.040-0.174-0.026-0.088-0.080-0.088-0.080-0.002-0.25 0.071-0.138 0.11-0.17 0.214-0.17 0.086 0 0.132 0.025 0.143 0.077 0.010 0.048 0.059-0.018 0.135-0.182 0.117-0.253 0.132-0.329 0.049-0.245zM3.579 10.033c0 0.035-0.131 0.282-0.149 0.282-0.009 0-0.068-0.069-0.132-0.153l-0.117-0.153h0.199c0.109 0 0.199 0.011 0.199 0.024zM29.367 10.346c0.020 0.076-0.038 0.112-0.445 0.276-0.402 0.162-0.481 0.18-0.556 0.133-0.078-0.049-0.085-0.046-0.055 0.026 0.018 0.044 0.062 0.165 0.098 0.267 0.065 0.185 0.181 0.326 0.126 0.153-0.024-0.077 0.026-0.109 0.422-0.268 0.247-0.099 0.464-0.18 0.482-0.18 0.050 0 0.171 0.318 0.133 0.352-0.019 0.016-0.225 0.105-0.459 0.196-0.37 0.145-0.434 0.158-0.498 0.105-0.067-0.055-0.070-0.051-0.039 0.048 0.050 0.157 0.191 0.481 0.21 0.481 0.009 0 0.014-0.043 0.012-0.095-0.003-0.081 0.063-0.121 0.449-0.27 0.39-0.151 0.465-0.167 0.542-0.119 0.074 0.046 0.085 0.046 0.066-0.003-0.013-0.032-0.116-0.295-0.229-0.584-0.187-0.479-0.314-0.734-0.257-0.515zM2.563 10.542c-0.060 0.044-0.383 0.722-0.383 0.804 0 0.010 0.037-0.005 0.083-0.033 0.069-0.043 0.161-0.022 0.536 0.123 0.381 0.148 0.452 0.19 0.449 0.268-0.005 0.154 0.055 0.069 0.172-0.242 0.153-0.408 0.17-0.499 0.118-0.636-0.066-0.174-0.22-0.231-0.389-0.144-0.133 0.069-0.136 0.068-0.192-0.050-0.065-0.137-0.269-0.183-0.396-0.089zM14.317 10.776c-0.346 0.132-0.637 0.514-0.781 1.028-0.133 0.474-0.132 0.477 0.202 0.612 0.574 0.233 0.776 0.477 1.013 1.226 0.081 0.254 0.197 0.562 0.259 0.684 0.399 0.788 1.477 0.945 2.784 0.407 0.363-0.149 1.049-0.529 1.049-0.58 0-0.018-0.067-0.107-0.149-0.198l-0.15-0.166 0.401-0.335c1.145-0.956 1.684-1.519 1.934-2.018 0.164-0.328 0.19-0.497 0.082-0.538-0.152-0.058-0.905 0.146-2.511 0.682-0.926 0.309-1.751 0.574-1.833 0.589-0.14 0.026-0.163 0.011-0.392-0.246-0.444-0.501-0.988-1.018-1.154-1.097-0.23-0.109-0.544-0.13-0.754-0.050zM2.792 10.839c0.093 0.093 0.102 0.129 0.062 0.233-0.022 0.058-0.043 0.058-0.186-0-0.229-0.094-0.254-0.13-0.162-0.232 0.101-0.112 0.174-0.112 0.285-0.001zM3.307 10.995c0.105 0.074 0.139 0.325 0.044 0.325-0.093 0-0.428-0.142-0.428-0.181 0-0.058 0.168-0.213 0.231-0.213 0.031 0 0.1 0.031 0.153 0.068zM15.051 11.258c0.108 0.070 0.353 0.315 0.544 0.543s0.432 0.492 0.536 0.585c0.179 0.162 0.198 0.168 0.417 0.146 0.126-0.013 1.033-0.29 2.017-0.615 2.082-0.688 1.984-0.659 1.984-0.605 0 0.074-0.383 0.565-0.71 0.909-0.394 0.416-0.784 0.736-1.433 1.177-0.277 0.188-0.511 0.349-0.521 0.356s0.059 0.081 0.153 0.163c0.094 0.082 0.161 0.158 0.149 0.17-0.039 0.038-0.846 0.371-1.137 0.469-0.395 0.133-0.851 0.162-1.116 0.072-0.443-0.151-0.625-0.385-0.854-1.1-0.248-0.774-0.483-1.118-0.943-1.381-0.129-0.074-0.235-0.148-0.235-0.164 0.001-0.068 0.129-0.446 0.192-0.568 0.037-0.073 0.123-0.175 0.189-0.227 0.171-0.135 0.501-0.105 0.769 0.069zM14.426 11.342c-0.113 0.136 0.079 0.312 0.204 0.186 0.085-0.085 0.038-0.251-0.071-0.251-0.044 0-0.103 0.029-0.133 0.065zM2.090 11.698c-0.055 0.144 0.021 0.272 0.241 0.408 0.147 0.091 0.204 0.229 0.117 0.282-0.021 0.013-0.129-0.007-0.241-0.045-0.154-0.052-0.203-0.091-0.206-0.163-0.002-0.052-0.041 0.024-0.087 0.168-0.1 0.317-0.109 0.423-0.028 0.311 0.054-0.073 0.083-0.070 0.544 0.063 0.407 0.117 0.49 0.156 0.503 0.233 0.010 0.061 0.040 0.008 0.090-0.155 0.084-0.279 0.099-0.405 0.034-0.303-0.033 0.053-0.077 0.054-0.284 0.008-0.264-0.059-0.283-0.112-0.057-0.158 0.434-0.088 0.464-0.105 0.511-0.274 0.061-0.22 0.058-0.246-0.023-0.166-0.038 0.038-0.102 0.069-0.142 0.070s-0.175 0.037-0.299 0.079l-0.225 0.078-0.165-0.112c-0.193-0.131-0.239-0.221-0.112-0.221 0.106 0 0.147-0.055 0.111-0.149-0.045-0.116-0.232-0.086-0.282 0.046zM12.648 11.757c-0.336 0.088-0.565 0.193-0.793 0.364l-0.144 0.107 0.297 0.272c0.55 0.504 1.458 1.054 2.429 1.47 0.187 0.080 0.339 0.124 0.339 0.097s-0.023-0.124-0.051-0.218c-0.049-0.164-0.074-0.181-0.712-0.496-0.668-0.329-1.301-0.719-1.619-0.995l-0.173-0.151 0.251-0.094c0.174-0.065 0.351-0.094 0.575-0.094 0.298 0 0.326-0.008 0.352-0.098 0.077-0.269 0.091-0.252-0.183-0.249-0.14 0.001-0.395 0.039-0.567 0.084zM28.789 12.13c0.037 0.201 0.113 0.31 0.113 0.162 0-0.077 0.025-0.096 0.124-0.096 0.108 0 0.131 0.024 0.178 0.179 0.047 0.156 0.044 0.19-0.022 0.262-0.087 0.096-0.175 0.108-0.211 0.029-0.014-0.030-0.013 0.014 0.002 0.097 0.035 0.199 0.14 0.481 0.144 0.388 0.002-0.040 0.22-0.254 0.486-0.475s0.476-0.41 0.467-0.418-0.276-0.054-0.595-0.101c-0.319-0.047-0.611-0.111-0.649-0.143-0.063-0.052-0.067-0.040-0.038 0.117zM29.6 12.269c0.011 0.010-0.038 0.064-0.109 0.122-0.142 0.114-0.174 0.103-0.218-0.073-0.029-0.116-0.026-0.118 0.139-0.092 0.093 0.014 0.177 0.034 0.188 0.044zM20.193 12.479l-0.246 0.238 0.546-0.003c0.45-0.002 0.558 0.010 0.617 0.069 0.066 0.067 0.059 0.083-0.103 0.226-0.255 0.224-0.879 0.632-1.194 0.781-0.205 0.097-0.267 0.146-0.246 0.197 0.015 0.037 0.046 0.225 0.068 0.418s0.050 0.394 0.062 0.448l0.021 0.098h2.056l-0.021-0.098c-0.012-0.054-0.065-0.496-0.118-0.981l-0.097-0.883-0.535-0.375c-0.294-0.206-0.542-0.374-0.55-0.374s-0.125 0.108-0.26 0.239zM19.869 12.845c-0.111 0.036-0.424 0.274-0.396 0.302 0.011 0.011 0.189-0.004 0.395-0.035s0.385-0.045 0.399-0.031c0.048 0.048-0.535 0.361-1.040 0.559l-0.517 0.202 0.217 0.204 0.275-0.099c0.444-0.159 1.184-0.561 1.506-0.817 0.165-0.131 0.306-0.257 0.314-0.28 0.016-0.047-1.009-0.051-1.153-0.004zM1.863 13.029c-0.079 0.046-0.181 0.354-0.232 0.697-0.026 0.174-0.022 0.188 0.032 0.116 0.059-0.077 0.078-0.077 0.474-0.008 0.498 0.087 0.609 0.128 0.615 0.23 0.005 0.080 0.121-0.398 0.125-0.51 0.001-0.047-0.013-0.043-0.055 0.015-0.047 0.064-0.093 0.073-0.262 0.047l-0.205-0.031v-0.214c0-0.155-0.024-0.238-0.087-0.301-0.094-0.094-0.28-0.113-0.404-0.041zM29.482 13.135c-0.201 0.087-0.318 0.3-0.318 0.581-0 0.201 0.019 0.251 0.149 0.393 0.082 0.090 0.165 0.148 0.183 0.13s-0.008-0.063-0.059-0.098c-0.127-0.089-0.201-0.327-0.146-0.472 0.112-0.296 0.824-0.382 0.966-0.117 0.079 0.148 0.050 0.347-0.066 0.455-0.060 0.056-0.109 0.111-0.109 0.123 0 0.029 0.345-0.035 0.381-0.070 0.015-0.015 0.004-0.027-0.024-0.027-0.033 0-0.051-0.090-0.051-0.256 0-0.193-0.024-0.292-0.099-0.405-0.181-0.27-0.509-0.367-0.807-0.237zM2.199 13.357c0.038 0.038 0.069 0.098 0.069 0.134 0 0.053-0.040 0.059-0.208 0.035-0.237-0.034-0.296-0.072-0.259-0.17 0.035-0.091 0.307-0.091 0.398 0zM14.469 14.557v0.437h0.387l0.014-0.329c0.008-0.181 0.008-0.349-0.001-0.373-0.015-0.043-0.287-0.173-0.362-0.173-0.021 0-0.038 0.197-0.038 0.437zM1.508 14.542c-0.016 0.184-0.027 0.415-0.026 0.514 0.002 0.154 0.009 0.165 0.043 0.079 0.036-0.090 0.062-0.098 0.249-0.078 0.115 0.012 0.343 0.034 0.507 0.049 0.252 0.023 0.303 0.041 0.333 0.121 0.024 0.064 0.048-0.068 0.075-0.408 0.022-0.277 0.028-0.518 0.013-0.537s-0.1-0.046-0.19-0.061l-0.163-0.026 0.137 0.137c0.113 0.113 0.134 0.165 0.123 0.301l-0.014 0.165-0.207-0.003c-0.114-0.001-0.22-0.016-0.236-0.032-0.045-0.045 0.072-0.162 0.164-0.162 0.045 0 0.082-0.017 0.082-0.037 0-0.037-0.569-0.108-0.602-0.075-0.009 0.009 0.038 0.044 0.106 0.076s0.13 0.093 0.138 0.135c0.012 0.060-0.016 0.076-0.131 0.076-0.282-0.001-0.341-0.037-0.312-0.19 0.029-0.156 0.13-0.291 0.217-0.291 0.032 0 0.059-0.020 0.059-0.044s-0.076-0.044-0.169-0.044h-0.169l-0.028 0.335zM30.378 14.436c-0.049 0.049-0.143 0.077-0.262 0.077-0.102 0-0.319 0.013-0.481 0.028-0.256 0.024-0.295 0.018-0.295-0.044 0-0.040-0.022-0.072-0.049-0.072-0.029 0-0.038 0.039-0.022 0.098 0.015 0.054 0.027 0.187 0.028 0.295 0.002 0.172 0.009 0.187 0.060 0.121 0.085-0.112 0.985-0.183 1.065-0.085 0.075 0.092 0.080 0.068 0.055-0.233-0.021-0.251-0.025-0.259-0.098-0.186zM17.432 14.979c0.030 0.012 0.079 0.012 0.109 0s0.005-0.022-0.055-0.022-0.085 0.010-0.055 0.022zM30.476 15.143c0 0.094-0.102 0.114-0.592 0.114-0.386 0-0.46-0.011-0.498-0.077-0.033-0.057-0.044 0.008-0.043 0.251 0.001 0.24 0.012 0.302 0.041 0.23 0.034-0.085 0.071-0.098 0.282-0.098h0.242v0.394h-0.225c-0.163 0-0.241-0.021-0.283-0.077-0.051-0.067-0.058-0.045-0.059 0.164-0 0.132 0.018 0.27 0.042 0.306 0.037 0.057 0.043 0.055 0.043-0.008s0.066-0.076 0.493-0.087c0.422-0.012 0.503-0.003 0.569 0.063 0.073 0.073 0.077 0.062 0.077-0.23 0-0.175-0.019-0.306-0.044-0.306s-0.044 0.029-0.044 0.065c0 0.076-0.155 0.123-0.334 0.103-0.114-0.013-0.127-0.032-0.139-0.2l-0.013-0.186h0.24c0.192 0 0.244 0.015 0.26 0.077 0.011 0.042 0.022-0.066 0.025-0.241s-0.005-0.317-0.017-0.317c-0.012 0-0.022 0.027-0.022 0.061zM2.561 15.432c-0.021 0.081-0.060 0.087-0.549 0.087-0.464 0-0.528-0.009-0.546-0.077-0.011-0.042-0.021 0.071-0.022 0.251s0.010 0.299 0.023 0.262c0.044-0.115 0.111-0.13 0.591-0.131l0.47-0.001v0.394h-0.501c-0.431 0-0.507-0.011-0.545-0.077-0.034-0.058-0.045-0.004-0.046 0.216-0.001 0.286 0.054 0.427 0.099 0.254 0.021-0.081 0.060-0.087 0.528-0.087 0.434 0 0.511 0.011 0.551 0.077 0.034 0.056 0.043-0.069 0.035-0.463-0.012-0.583-0.020-0.561 0.257-0.737 0.070-0.045 0.053-0.053-0.121-0.055-0.167-0.002-0.207 0.013-0.226 0.085zM5.875 15.515c-0.486 0.122-0.753 0.495-0.712 0.994 0.060 0.724 0.939 1.051 1.537 0.571l0.126-0.101-0.211-0.246-0.168 0.114c-0.423 0.287-0.944 0.043-0.943-0.441 0.001-0.218 0.077-0.36 0.258-0.482 0.192-0.13 0.378-0.126 0.638 0.012l0.209 0.111 0.103-0.097c0.099-0.093 0.1-0.101 0.027-0.181-0.178-0.197-0.599-0.32-0.864-0.254zM15.060 15.515c-0.486 0.122-0.753 0.495-0.712 0.994 0.060 0.722 0.944 1.052 1.533 0.573l0.121-0.099-0.212-0.244-0.164 0.111c-0.294 0.199-0.73 0.124-0.872-0.15-0.097-0.188-0.085-0.49 0.025-0.631 0.23-0.292 0.574-0.315 0.924-0.062 0.062 0.045 0.093 0.037 0.186-0.050 0.107-0.1 0.108-0.108 0.035-0.189-0.178-0.197-0.599-0.32-0.864-0.254zM20.26 15.524c-0.217 0.050-0.531 0.308-0.613 0.505-0.158 0.378-0.014 0.893 0.312 1.119 0.322 0.222 0.738 0.216 1.090-0.017l0.206-0.136-0.236-0.246-0.157 0.107c-0.286 0.194-0.718 0.117-0.858-0.154-0.097-0.188-0.085-0.49 0.025-0.631 0.23-0.292 0.574-0.315 0.924-0.062 0.062 0.045 0.093 0.037 0.186-0.050 0.107-0.1 0.108-0.108 0.035-0.189-0.19-0.21-0.594-0.318-0.912-0.245zM7.098 15.575c-0.012 0.031-0.016 0.419-0.010 0.864l0.012 0.808 0.324 0.027 0.013-0.363 0.013-0.363 0.262 0.36c0.257 0.352 0.266 0.36 0.448 0.361 0.207 0.001 0.223-0.026 0.106-0.179-0.044-0.057-0.183-0.256-0.31-0.441l-0.231-0.337 0.288-0.369c0.159-0.203 0.288-0.381 0.288-0.396s-0.085-0.027-0.189-0.027c-0.181 0-0.2 0.013-0.426 0.293l-0.237 0.293-0.013-0.293-0.013-0.293h-0.152c-0.084 0-0.162 0.025-0.174 0.056zM8.609 16.394v0.875h1.312v-0.306h-0.962v-0.434l0.853-0.025v-0.306l-0.853-0.025v-0.347h0.918v-0.306h-1.268v0.875zM10.492 16.339c-0.175 0.451-0.328 0.846-0.341 0.877-0.018 0.043 0.024 0.054 0.168 0.044l0.192-0.014 0.219-0.579c0.12-0.319 0.231-0.579 0.247-0.579s0.124 0.261 0.242 0.579l0.214 0.579 0.184 0.013c0.101 0.007 0.184 0.005 0.184-0.007s-0.090-0.253-0.2-0.538-0.259-0.671-0.331-0.857l-0.131-0.339h-0.329l-0.318 0.82zM12.327 15.596c-0.185 0.093-0.262 0.234-0.262 0.483-0.001 0.186 0.109 0.359 0.258 0.409 0.042 0.014 0.008 0.118-0.123 0.377-0.099 0.197-0.18 0.368-0.18 0.381s0.079 0.023 0.174 0.023c0.174 0 0.175-0 0.35-0.35 0.097-0.192 0.195-0.35 0.219-0.35 0.025 0 0.043 0.148 0.043 0.35v0.35h0.306v-1.749l-0.317 0c-0.214 0-0.366 0.025-0.47 0.077zM16.293 15.547c-0.017 0.017-0.030 0.411-0.030 0.876v0.846h0.35v-1.399h0.569v1.399h0.352l-0.012-0.864-0.012-0.864-0.593-0.012c-0.326-0.007-0.607 0.002-0.623 0.018zM18.146 16.25c-0.154 0.404-0.307 0.798-0.34 0.877l-0.059 0.142h0.179c0.167 0 0.183-0.011 0.252-0.174l0.073-0.174 0.685-0.001 0.069 0.175c0.064 0.163 0.081 0.175 0.24 0.175 0.204 0 0.223 0.099-0.186-0.962l-0.295-0.765-0.339-0.026-0.281 0.734zM22.604 16.394v0.88l0.328-0.027 0.025-0.722h0.521v0.743h0.35v-1.749h-0.35v0.656h-0.521l-0.013-0.317-0.013-0.317-0.328-0.027v0.88zM24.339 15.548c-0.016 0.016-0.029 0.41-0.029 0.875v0.846h0.35v-0.743h0.569v0.743h0.35v-1.749h-0.35v0.656h-0.569v-0.656h-0.146c-0.080 0-0.159 0.013-0.175 0.029zM26.431 15.547c-0.334 0.077-0.459 0.226-0.459 0.544 0 0.153 0.025 0.207 0.157 0.331l0.157 0.148-0.179 0.325c-0.098 0.179-0.179 0.337-0.179 0.352s0.083 0.020 0.185 0.013c0.183-0.013 0.186-0.016 0.351-0.352 0.092-0.186 0.186-0.339 0.209-0.339s0.042 0.155 0.042 0.352v0.353l0.328-0.027v-1.706l-0.262-0.007c-0.144-0.004-0.302 0.002-0.35 0.013zM21.729 16.416v0.853h0.35v-1.706h-0.35v0.853zM12.807 16.044c0 0.169-0.005 0.175-0.144 0.175-0.157 0-0.249-0.065-0.249-0.175s0.092-0.175 0.249-0.175c0.139 0 0.144 0.006 0.144 0.175zM26.715 16.045c0 0.113-0.023 0.185-0.063 0.201-0.087 0.033-0.305-0.078-0.321-0.164-0.020-0.105 0.11-0.213 0.256-0.213 0.12 0 0.128 0.011 0.128 0.176zM18.799 16.554c0 0.008-0.089 0.014-0.197 0.014s-0.197-0.017-0.197-0.038c0-0.021 0.043-0.14 0.095-0.266l0.095-0.228 0.102 0.251c0.056 0.138 0.102 0.258 0.102 0.266zM29.332 16.809c-0.008 0.156 0 0.284 0.018 0.284s0.033-0.030 0.033-0.066c0-0.047 0.048-0.066 0.171-0.066 0.274 0 0.31 0.029 0.31 0.25 0 0.183-0.007 0.195-0.098 0.171-0.054-0.014-0.163-0.027-0.242-0.027-0.108-0-0.153-0.025-0.183-0.099-0.034-0.084-0.040-0.072-0.042 0.077-0.002 0.096-0.031 0.323-0.066 0.503l-0.063 0.328 0.495 0.503h-0.138c-0.198 0-0.362-0.073-0.365-0.163-0.005-0.147-0.072 0.081-0.099 0.338-0.014 0.132-0.015 0.206-0.002 0.164 0.028-0.094 0.108-0.095 0.607-0.007 0.263 0.047 0.417 0.097 0.464 0.151 0.066 0.076 0.073 0.063 0.12-0.22 0.081-0.489 0.068-0.635-0.066-0.74-0.15-0.118-0.259-0.115-0.386 0.013l-0.104 0.104-0.206-0.209c-0.177-0.179-0.202-0.227-0.176-0.329l0.030-0.119 0.332 0.028c0.183 0.015 0.41 0.028 0.505 0.028 0.136 0 0.177 0.019 0.195 0.087 0.050 0.191 0.1 0.070 0.095-0.23-0.003-0.174-0.014-0.283-0.025-0.241-0.016 0.061-0.068 0.077-0.257 0.077-0.255 0-0.26-0.006-0.21-0.257 0.026-0.128 0.040-0.137 0.216-0.137 0.146 0 0.204 0.022 0.257 0.097 0.066 0.093 0.068 0.089 0.069-0.12 0-0.12 0.012-0.267 0.026-0.327l0.025-0.109-0.080 0.091c-0.074 0.085-0.107 0.089-0.452 0.058-0.204-0.018-0.426-0.035-0.492-0.037-0.076-0.002-0.12-0.028-0.12-0.069 0-0.036-0.018-0.066-0.040-0.066s-0.047 0.128-0.055 0.284zM2.617 17.223c0 0.023-0.237 0.183-0.527 0.357s-0.511 0.33-0.492 0.348c0.019 0.018 0.251 0.096 0.516 0.172s0.535 0.177 0.601 0.224l0.12 0.085-0.003-0.122c-0.004-0.147-0.076-0.344-0.081-0.22-0.002 0.055-0.039 0.077-0.13 0.077-0.141 0-0.18-0.061-0.18-0.289 0-0.119 0.023-0.161 0.112-0.202 0.091-0.041 0.121-0.039 0.157 0.012 0.032 0.045 0.037 0.013 0.019-0.112-0.014-0.096-0.025-0.219-0.026-0.273s-0.020-0.098-0.044-0.098-0.044 0.019-0.044 0.042zM2.363 17.948c0.014 0.119 0.004 0.149-0.043 0.131-0.034-0.013-0.108-0.035-0.166-0.050-0.136-0.034-0.133-0.067 0.015-0.159 0.165-0.102 0.174-0.098 0.194 0.078zM10.008 17.913c-0 0.018-0.038 0.269-0.083 0.558s-0.079 0.529-0.075 0.533c0.008 0.009 1.481 0.067 1.886 0.075l0.219 0.004 0.073-0.503c0.040-0.277 0.075-0.547 0.077-0.601l0.003-0.098h-1.050c-0.577 0-1.050 0.015-1.050 0.033zM14.417 18.799c-0.011 0.505-0.029 0.927-0.039 0.937s-0.224-0.039-0.474-0.109c-1.444-0.405-2.93-0.573-4.244-0.479-0.372 0.027-0.683 0.056-0.692 0.064s0.023 0.091 0.070 0.184c0.047 0.093 0.335 0.769 0.64 1.502 0.905 2.178 1.636 3.57 2.197 4.185l0.167 0.183 0.503-0.131c0.611-0.159 1.281-0.207 1.78-0.128 0.337 0.053 1.122 0.287 1.475 0.438l0.181 0.077 0.371-0.15c1.089-0.44 2.035-0.503 3.159-0.211l0.405 0.105 0.205-0.216c0.581-0.613 1.221-1.847 2.244-4.327 0.223-0.541 0.461-1.097 0.529-1.234s0.113-0.26 0.101-0.272c-0.012-0.012-0.334-0.043-0.715-0.070-1.333-0.093-3.060 0.114-4.354 0.523-0.156 0.049-0.299 0.090-0.317 0.090s-0.033-0.242-0.033-0.539-0.013-0.72-0.028-0.94l-0.028-0.4h-0.395l0.027 1.165c0.015 0.641 0.035 1.173 0.045 1.183s0.247-0.052 0.526-0.136c1.097-0.333 1.93-0.501 2.914-0.591 0.563-0.051 1.426-0.057 1.669-0.011l0.16 0.030-0.273 0.7c-0.709 1.819-1.247 2.913-2.007 4.083l-0.352 0.54-0.156-0.024c-0.086-0.013-0.333-0.055-0.55-0.092-0.501-0.086-1.312-0.087-1.759-0.002-0.191 0.036-0.522 0.125-0.735 0.197s-0.403 0.131-0.423 0.131c-0.020 0-0.035-1.614-0.035-3.586v-3.586h-0.35v3.586c0 1.972-0.016 3.586-0.036 3.586s-0.182-0.050-0.361-0.112c-0.84-0.29-1.789-0.358-2.708-0.192-0.273 0.049-0.52 0.080-0.55 0.069-0.084-0.032-0.626-0.865-0.974-1.497-0.415-0.753-0.883-1.769-1.288-2.794-0.441-1.117-0.423-1.010-0.179-1.044 1.031-0.141 3.252 0.168 4.649 0.648 0.179 0.061 0.351 0.111 0.383 0.111 0.047 0 0.058-0.23 0.058-1.181v-1.181h-0.382l-0.020 0.918zM20.085 18.175c0.017 0.163 0.051 0.439 0.077 0.614l0.047 0.318 0.29-0.032c0.159-0.017 0.619-0.032 1.022-0.033l0.733-0.002-0.004-0.153c-0.002-0.084-0.027-0.34-0.055-0.569l-0.051-0.415-2.090-0.023 0.030 0.296zM30.117 18.474c0.064 0.045 0.097 0.113 0.097 0.2 0 0.123-0.009 0.131-0.131 0.107-0.072-0.014-0.188-0.036-0.258-0.050-0.104-0.020-0.122-0.042-0.104-0.12 0.046-0.195 0.224-0.257 0.395-0.137zM2.791 18.504c-0 0.030-0.107 0.164-0.236 0.298-0.217 0.225-0.248 0.242-0.404 0.227-0.274-0.027-0.301-0.044-0.217-0.136 0.141-0.155-0.020-0.302-0.168-0.154-0.145 0.145 0.020 0.367 0.272 0.367 0.19 0 0.317 0.069 0.317 0.172 0 0.122-0.387 0.175-0.468 0.065-0.067-0.091-0.071-0.053-0.017 0.157 0.022 0.084 0.053 0.212 0.070 0.284 0.029 0.122 0.033 0.125 0.067 0.038 0.029-0.076 0.124-0.115 0.509-0.208 0.439-0.106 0.477-0.109 0.528-0.041 0.084 0.114 0.088 0.059 0.017-0.248-0.036-0.156-0.073-0.25-0.082-0.209-0.010 0.047-0.087 0.094-0.2 0.122-0.101 0.026-0.207 0.055-0.237 0.065-0.061 0.020-0.077-0.094-0.016-0.117 0.021-0.008 0.122-0.090 0.223-0.182 0.177-0.161 0.183-0.175 0.156-0.361-0.016-0.106-0.047-0.193-0.070-0.193s-0.041 0.025-0.042 0.055zM28.989 19.143c0 0.052 0.266 0.487 0.297 0.487 0.012 0 0.127-0.050 0.256-0.111 0.243-0.115 0.314-0.214 0.125-0.174-0.060 0.012-0.155 0.032-0.212 0.044-0.073 0.015-0.154-0.023-0.284-0.135-0.1-0.086-0.182-0.136-0.182-0.111zM28.902 19.541c0 0.033 0.061 0.154 0.135 0.27l0.135 0.21 0.259-0.131c0.142-0.072 0.259-0.142 0.259-0.155s-0.11-0.011-0.244 0.006c-0.235 0.029-0.249 0.025-0.394-0.115-0.084-0.082-0.15-0.119-0.15-0.086zM2.748 19.892c-0.094 0.094-0.113 0.284-0.049 0.507 0.038 0.133 0.035 0.136-0.178 0.204-0.186 0.059-0.22 0.060-0.24 0.007-0.013-0.034-0.040-0.062-0.059-0.062s0.006 0.128 0.057 0.284c0.088 0.271 0.159 0.372 0.146 0.208-0.005-0.060 0.1-0.113 0.475-0.242 0.447-0.154 0.484-0.16 0.536-0.090 0.082 0.112 0.068 0.032-0.061-0.354-0.064-0.191-0.161-0.393-0.217-0.448-0.124-0.124-0.295-0.13-0.411-0.014zM3.206 20.182c0.102 0.102 0.064 0.16-0.156 0.241-0.141 0.052-0.202 0.058-0.225 0.022-0.054-0.083-0.038-0.155 0.054-0.247 0.106-0.106 0.231-0.112 0.327-0.017zM28.516 20.921c-0.046 0.102-0.044 0.112 0.025 0.092 0.042-0.012 0.166 0.026 0.274 0.084l0.197 0.107-0.284-0.003c-0.156-0.002-0.301-0.002-0.322 0s0.054 0.112 0.167 0.244c0.113 0.132 0.193 0.241 0.178 0.241-0.069 0-0.373-0.182-0.408-0.245-0.032-0.057-0.054-0.035-0.112 0.11-0.090 0.225-0.090 0.222 0.014 0.222 0.131 0 0.564 0.226 0.582 0.303 0.010 0.044 0.045 0.009 0.097-0.096l0.081-0.164-0.109-0.12c-0.236-0.261-0.236-0.26 0.024-0.239 0.227 0.019 0.239 0.015 0.305-0.115 0.086-0.167 0.088-0.23 0.006-0.199-0.077 0.030-0.583-0.192-0.63-0.276-0.026-0.046-0.047-0.033-0.086 0.054zM22.062 21.68c-0.393 0.926-0.807 1.803-1.073 2.271l-0.181 0.319 0.096 0.84c0.053 0.462 0.101 0.846 0.107 0.854 0.033 0.041 1.187-0.666 1.616-0.99 0.144-0.109 0.268-0.202 0.274-0.206s-0.078-0.753-0.187-1.665c-0.109-0.912-0.211-1.781-0.226-1.932s-0.039-0.281-0.053-0.29c-0.014-0.008-0.182 0.352-0.372 0.8zM3.343 20.98c-0.013 0.020 0.025 0.059 0.083 0.085 0.233 0.106 0.323 0.415 0.17 0.583-0.123 0.136-0.387 0.256-0.563 0.256-0.321 0-0.477-0.336-0.274-0.593 0.091-0.116 0.092-0.121 0.011-0.089-0.047 0.019-0.14 0.054-0.207 0.078-0.129 0.047-0.163 0.122-0.055 0.122 0.045 0 0.066 0.045 0.066 0.147 0 0.303 0.308 0.603 0.623 0.608 0.664 0.010 0.884-0.865 0.294-1.17-0.069-0.035-0.135-0.048-0.148-0.027zM9.445 21.631c-0.056 0.379-0.179 1.199-0.272 1.822s-0.17 1.164-0.17 1.203c0.001 0.081 0.548 0.495 1.116 0.844 0.413 0.253 0.852 0.488 0.87 0.464 0.006-0.008 0.059-0.373 0.118-0.812l0.107-0.798-0.194-0.339c-0.273-0.477-0.817-1.618-1.148-2.406-0.154-0.367-0.291-0.667-0.303-0.667s-0.069 0.31-0.125 0.689zM27.999 22.014c-0.042 0.108 0.018 0.197 0.133 0.197 0.129 0 0.173-0.057 0.135-0.175-0.033-0.104-0.23-0.12-0.268-0.021zM4.027 22.039c0.038 0.107-0.002 0.142-0.442 0.391-0.357 0.203-0.42 0.225-0.497 0.177-0.101-0.063-0.1-0.061 0.075 0.256 0.099 0.179 0.134 0.216 0.144 0.149 0.011-0.073 0.285-0.277 0.372-0.277 0.013 0 0.067 0.070 0.119 0.155 0.093 0.151 0.094 0.157 0.015 0.217-0.173 0.13-0.317 0.167-0.396 0.103-0.043-0.035-0.011 0.055 0.076 0.213 0.147 0.268 0.229 0.353 0.187 0.192-0.030-0.117 0.832-0.609 0.928-0.53 0.103 0.086 0.072-0.008-0.090-0.264-0.115-0.183-0.151-0.217-0.152-0.143-0.001 0.066-0.058 0.134-0.175 0.208-0.096 0.060-0.185 0.11-0.197 0.11-0.027 0-0.197-0.27-0.197-0.313-0-0.016 0.090-0.081 0.199-0.145 0.159-0.093 0.212-0.106 0.262-0.064 0.094 0.078 0.078 0.027-0.073-0.23-0.146-0.248-0.199-0.317-0.159-0.206zM27.498 22.784c-0.123 0.123-0.097 0.23 0.184 0.739 0.126 0.229 0.241 0.472 0.255 0.541l0.026 0.125 0.118-0.166c0.065-0.092 0.106-0.177 0.092-0.191s-0.035 0-0.046 0.030c-0.039 0.11-0.132 0.050-0.246-0.159-0.064-0.117-0.116-0.226-0.116-0.241 0-0.034 0.341-0.034 0.47 0.001 0.054 0.015 0.098 0.054 0.098 0.087 0 0.116 0.066 0.056 0.207-0.186 0.107-0.184 0.123-0.236 0.066-0.214-0.041 0.016-0.085 0.032-0.097 0.035-0.101 0.025-0.947-0.075-0.972-0.114-0.067-0.106-0.036-0.162 0.075-0.134 0.129 0.032 0.195-0.076 0.109-0.179-0.072-0.087-0.114-0.082-0.223 0.027zM4.73 23.277c0.028 0.074-0.069 0.165-0.492 0.459-0.221 0.153-0.339 0.211-0.37 0.181-0.025-0.024-0.062-0.045-0.083-0.045-0.042 0 0.223 0.385 0.403 0.584 0.143 0.159 0.257 0.202 0.402 0.151 0.131-0.046 0.229-0.225 0.191-0.347-0.024-0.075-0-0.082 0.261-0.082 0.231 0 0.305 0.018 0.376 0.089 0.049 0.049 0.077 0.108 0.063 0.131s-0.184 0.181-0.378 0.352c-0.253 0.223-0.376 0.304-0.437 0.288-0.097-0.025-0.084-0.003 0.171 0.289 0.124 0.142 0.141 0.151 0.118 0.059-0.015-0.058-0.008-0.117 0.014-0.131 0.059-0.037 0.669-0.127 0.693-0.103 0.011 0.011-0.090 0.115-0.226 0.231-0.214 0.183-0.257 0.203-0.33 0.158-0.141-0.088-0.092 0.002 0.139 0.254 0.121 0.132 0.199 0.198 0.174 0.145-0.042-0.086-0.009-0.128 0.33-0.43 0.265-0.236 0.401-0.329 0.459-0.313 0.101 0.026 0.077-0.018-0.145-0.275-0.161-0.186-0.162-0.186-0.153-0.063 0.009 0.12-0.001 0.126-0.275 0.178-0.475 0.090-0.488 0.081-0.219-0.162 0.188-0.169 0.263-0.212 0.345-0.193 0.090 0.021 0.073-0.013-0.12-0.244-0.123-0.147-0.258-0.325-0.299-0.396-0.073-0.124-0.086-0.128-0.416-0.128-0.187 0-0.34-0.017-0.34-0.038s0.079-0.092 0.175-0.159c0.144-0.1 0.186-0.111 0.241-0.066 0.107 0.089 0.076 0.015-0.091-0.218-0.155-0.216-0.224-0.277-0.179-0.158zM26.827 23.712l-0.111 0.146 0.13 0.237c0.182 0.33 0.167 0.377-0.065 0.21-0.157-0.113-0.192-0.16-0.17-0.232 0.032-0.105 0.005-0.081-0.193 0.178-0.147 0.192-0.182 0.28-0.075 0.192 0.052-0.043 0.098-0.029 0.24 0.071 0.097 0.068 0.176 0.141 0.177 0.161s-0.083 0.021-0.185 0.002c-0.344-0.063-0.428-0.049-0.537 0.092l-0.102 0.131h0.784l0.108 0.163c0.134 0.202 0.136 0.254 0.010 0.241-0.079-0.008-0.098 0.012-0.098 0.099 0 0.154 0.167 0.174 0.261 0.031 0.078-0.119 0.061-0.189-0.101-0.437-0.077-0.118-0.095-0.179-0.061-0.213 0.071-0.071 0.373 0.172 0.346 0.277-0.035 0.136 0.033 0.089 0.202-0.138 0.183-0.245 0.199-0.287 0.081-0.213-0.068 0.042-0.109 0.030-0.241-0.070-0.246-0.188-0.184-0.276 0.12-0.17 0.226 0.079 0.306 0.075 0.392-0.021 0.091-0.1 0.092-0.199 0.005-0.272-0.056-0.046-0.080-0.044-0.138 0.014-0.056 0.056-0.060 0.084-0.018 0.134 0.031 0.037 0.036 0.075 0.013 0.089-0.065 0.040-0.445-0.107-0.445-0.173 0-0.033-0.050-0.173-0.111-0.311s-0.101-0.276-0.089-0.307c0.037-0.097-0.010-0.064-0.126 0.089zM4.585 24.138c0 0.126-0.133 0.26-0.258 0.26-0.069 0-0.223-0.124-0.223-0.179 0-0.019 0.084-0.093 0.186-0.164 0.21-0.146 0.295-0.122 0.295 0.084zM25.554 25.319c-0.186 0.19-0.201 0.218-0.107 0.195 0.096-0.023 0.152 0.020 0.435 0.331l0.325 0.358-0.145 0.129c-0.124 0.111-0.167 0.125-0.304 0.1l-0.159-0.029 0.232 0.236 0.124-0.090c0.189-0.137 0.66-0.63 0.569-0.596-0.061 0.023-0.153-0.042-0.386-0.271-0.362-0.357-0.413-0.435-0.341-0.523 0.029-0.035 0.034-0.063 0.012-0.063s-0.137 0.1-0.257 0.222zM13.201 25.169c-0.328 0.049-0.651 0.113-0.782 0.154l-0.148 0.047 0.279 0.148c0.153 0.081 0.332 0.206 0.397 0.278l0.118 0.13 0.232-0.106c0.371-0.169 0.72-0.241 1.17-0.24 0.437 0.001 0.888 0.083 1.087 0.199 0.068 0.039 0.080 0.056 0.030 0.040-0.525-0.167-1.146-0.201-1.621-0.089-0.326 0.077-0.762 0.237-0.762 0.28 0 0.017 0.069 0.057 0.153 0.087s0.211 0.104 0.282 0.164l0.129 0.109 0.171-0.113c0.607-0.402 1.345-0.419 2.198-0.050 0.191 0.082 0.347 0.134 0.347 0.115s-0.141-0.165-0.313-0.325c-0.611-0.566-1.442-0.86-2.398-0.849-0.253 0.003-0.508 0.013-0.569 0.022zM17.421 25.255c-0.578 0.128-1.321 0.477-1.277 0.599 0.023 0.066 0.070 0.058 0.457-0.078 0.729-0.257 1.583-0.224 2.194 0.085l0.2 0.101 0.189-0.168c0.104-0.092 0.286-0.212 0.405-0.266s0.201-0.112 0.183-0.13c-0.172-0.166-1.804-0.266-2.351-0.144zM6.573 25.545c0.017 0.077-0.052 0.178-0.322 0.466l-0.344 0.367-0.077-0.117c-0.062-0.095-0.068-0.138-0.028-0.225 0.064-0.14 0.006-0.137-0.127 0.005l-0.106 0.113 0.787 0.729 0.098-0.091c0.054-0.050 0.098-0.107 0.098-0.126s-0.044-0.018-0.098 0.002c-0.109 0.040-0.295-0.024-0.295-0.102 0-0.027 0.156-0.203 0.346-0.393 0.266-0.264 0.365-0.337 0.426-0.314 0.044 0.017-0.017-0.069-0.137-0.191s-0.223-0.221-0.23-0.221-0.004 0.044 0.008 0.098zM16.787 25.759c-0.311 0.086-0.527 0.183-0.511 0.23 0.018 0.051 0.074 0.052 0.621 0.003 0.43-0.038 0.803 0.046 1.167 0.262 0.209 0.124 0.257 0.138 0.3 0.087 0.028-0.034 0.161-0.115 0.295-0.181l0.244-0.12-0.184-0.080c-0.381-0.166-0.835-0.251-1.316-0.247-0.255 0.002-0.532 0.023-0.616 0.046zM15.803 25.884c0.015 0.025-0.002 0.032-0.041 0.017-0.076-0.029-0.090-0.060-0.027-0.060 0.023 0 0.053 0.019 0.068 0.043zM24.495 26.234c-0.181 0.11-0.316 0.331-0.317 0.516-0.001 0.47 0.541 0.783 0.914 0.527 0.22-0.151 0.322-0.311 0.322-0.505 0-0.487-0.512-0.786-0.92-0.538zM7.169 26.296c-0.051 0.061-0.043 0.067 0.068 0.046 0.161-0.030 0.398 0.112 0.435 0.263 0.045 0.179-0.019 0.334-0.22 0.535-0.228 0.228-0.403 0.251-0.579 0.075-0.094-0.094-0.109-0.141-0.090-0.284 0.013-0.094 0.014-0.172 0.003-0.172-0.030 0-0.231 0.236-0.233 0.273-0.001 0.018 0.023 0.033 0.053 0.033s0.097 0.066 0.149 0.146c0.126 0.195 0.368 0.307 0.608 0.28 0.253-0.029 0.435-0.168 0.525-0.405 0.071-0.186 0.071-0.207-0.001-0.395-0.119-0.311-0.58-0.564-0.72-0.395zM15.486 26.342c-0.188 0.136-0.123 0.375 0.149 0.548l0.191 0.121-0.165 0.031c-0.465 0.086-0.414 0.457 0.099 0.714 0.49 0.245 1.071 0.111 0.944-0.218-0.046-0.12-0.195-0.261-0.376-0.357l-0.131-0.069 0.144-0.002c0.531-0.006 0.533-0.434 0.003-0.704-0.254-0.13-0.72-0.164-0.858-0.064zM24.813 26.365c0.154 0.095 0.352 0.365 0.396 0.539 0.033 0.131-0.037 0.276-0.149 0.312-0.139 0.044-0.299-0.050-0.484-0.284-0.21-0.266-0.239-0.475-0.080-0.586 0.125-0.087 0.148-0.086 0.318 0.019zM23.598 26.952c-0.261 0.18-0.298 0.219-0.176 0.182 0.079-0.024 0.117 0.002 0.215 0.149l0.118 0.179-0.138 0.142c-0.155 0.16-0.185 0.37-0.069 0.485 0.12 0.12 0.33 0.082 0.644-0.117 0.294-0.186 0.365-0.262 0.209-0.221-0.066 0.017-0.14-0.062-0.356-0.383-0.23-0.342-0.264-0.418-0.222-0.485 0.071-0.114 0.014-0.096-0.225 0.069zM8.26 26.963c0.044 0.070 0.012 0.145-0.223 0.511-0.214 0.334-0.292 0.424-0.354 0.407-0.133-0.035-0.093 0.008 0.158 0.168 0.241 0.154 0.348 0.197 0.251 0.1-0.105-0.105-0.046-0.171 0.281-0.32 0.183-0.084 0.341-0.152 0.349-0.152s-0.071 0.133-0.177 0.295c-0.156 0.238-0.212 0.293-0.294 0.284-0.070-0.007-0.019 0.042 0.161 0.159 0.258 0.167 0.344 0.195 0.248 0.079-0.038-0.045 0.012-0.156 0.219-0.485 0.238-0.379 0.28-0.423 0.371-0.401 0.056 0.014 0.102 0.017 0.102 0.006 0-0.031-0.496-0.332-0.545-0.332-0.025 0-0.019 0.017 0.014 0.038 0.117 0.074 0.023 0.182-0.289 0.331-0.174 0.083-0.317 0.139-0.317 0.124s0.081-0.153 0.181-0.306c0.15-0.23 0.197-0.273 0.273-0.252 0.083 0.023 0.082 0.017-0.017-0.062-0.060-0.048-0.185-0.13-0.277-0.182-0.153-0.087-0.163-0.087-0.116-0.012zM23.951 27.737c0.145 0.203 0.142 0.246-0.018 0.246-0.105 0-0.236-0.146-0.236-0.263 0-0.053 0.077-0.174 0.111-0.174 0.003 0 0.067 0.086 0.143 0.191zM22.356 27.675c-0.214 0.097-0.32 0.24-0.351 0.475-0.054 0.406 0.343 0.769 0.728 0.666 0.585-0.157 0.69-0.872 0.168-1.141-0.202-0.105-0.313-0.104-0.545 0.001zM21.467 27.859c0 0.188-0.086 0.274-0.389 0.39-0.285 0.108-0.402 0.107-0.545-0.006-0.134-0.106-0.136-0.101-0.050 0.104 0.041 0.097 0.099 0.161 0.158 0.169 0.073 0.011 0.128 0.105 0.259 0.451 0.153 0.403 0.161 0.444 0.097 0.515-0.057 0.064-0.017 0.058 0.233-0.036 0.167-0.063 0.382-0.15 0.478-0.194 0.159-0.073 0.164-0.081 0.060-0.084-0.122-0.004-0.164-0.073-0.254-0.419-0.070-0.266-0.056-0.435 0.046-0.564 0.082-0.104 0.086-0.132 0.037-0.257-0.085-0.216-0.129-0.24-0.129-0.068zM22.669 27.816c0.133 0.104 0.327 0.483 0.328 0.638 0 0.11-0.141 0.273-0.237 0.273-0.106 0-0.34-0.228-0.424-0.414-0.199-0.437 0.011-0.75 0.333-0.497zM9.794 27.887c0.039 0.062 0.030 0.117-0.042 0.258l-0.091 0.179-0.197-0.071c-0.189-0.068-0.201-0.067-0.319 0.020-0.153 0.114-0.186 0.334-0.070 0.463 0.070 0.077 0.624 0.385 0.694 0.385 0.014 0-0.005-0.031-0.043-0.069-0.062-0.063-0.048-0.109 0.161-0.514 0.165-0.321 0.251-0.443 0.306-0.439 0.14 0.011 0.079-0.052-0.165-0.172-0.286-0.14-0.299-0.142-0.235-0.039zM15.519 27.928c-0.455 0.231 0.119 0.807 0.815 0.817 0.317 0.005 0.453-0.083 0.453-0.293 0-0.147-0.244-0.412-0.408-0.443-0.167-0.031-0.53-0.11-0.62-0.135-0.048-0.013-0.156 0.011-0.241 0.054zM10.346 28.164c0.048 0.059 0.187 0.619 0.187 0.751-0 0.069-0.4 0.291-0.531 0.296-0.085 0.003-0.072 0.018 0.072 0.084 0.096 0.045 0.204 0.081 0.241 0.081 0.044-0 0.047-0.008 0.011-0.022-0.096-0.039-0.059-0.135 0.087-0.227 0.156-0.099 0.157-0.099 0.223 0.177 0.024 0.099 0.013 0.12-0.070 0.132-0.073 0.011-0.024 0.044 0.186 0.127 0.296 0.117 0.348 0.123 0.276 0.029-0.024-0.031-0.067-0.174-0.097-0.318s-0.063-0.293-0.073-0.331c-0.013-0.048 0.058-0.105 0.242-0.193 0.144-0.069 0.291-0.125 0.328-0.125 0.131 0 0.064-0.066-0.137-0.134-0.25-0.085-0.272-0.087-0.166-0.009 0.068 0.050 0.073 0.073 0.029 0.127-0.057 0.069-0.306 0.187-0.332 0.157-0.008-0.009-0.029-0.101-0.046-0.203-0.027-0.161-0.020-0.186 0.047-0.186 0.147 0 0.034-0.062-0.464-0.253-0.054-0.021-0.056-0.013-0.012 0.041zM21.388 28.432c-0.008 0.105 0.025 0.31 0.076 0.47 0.084 0.265 0.085 0.288 0.016 0.339-0.040 0.030-0.094 0.055-0.12 0.055-0.048 0-0.402-0.861-0.368-0.895 0.031-0.031 0.317-0.151 0.366-0.152 0.025-0.001 0.038 0.078 0.030 0.184zM9.584 28.404c0.015 0.015-0.022 0.125-0.083 0.244-0.091 0.179-0.121 0.208-0.173 0.164-0.083-0.069-0.080-0.216 0.005-0.338 0.065-0.093 0.192-0.128 0.251-0.070zM15.489 28.771c-0.149 0.060-0.242 0.23-0.194 0.354 0.159 0.409 1.068 0.712 1.438 0.479 0.166-0.105 0.181-0.215 0.055-0.418-0.106-0.172-0.359-0.301-0.766-0.392-0.343-0.076-0.397-0.079-0.533-0.024z"></path>
</symbol>
<symbol id="menu-burger" viewBox="0 0 32 32">
<path fill="none" stroke="#fff" style="stroke: var(--color1, #fff)" stroke-linejoin="round" stroke-linecap="round" stroke-miterlimit="4" stroke-width="1.3333" d="M4.001 8h24M4.001 16h24M4.001 24h24"></path>
</symbol>
<symbol id="youtube" viewBox="0 0 32 32">
<path fill="#fff" style="fill: var(--color1, #fff)" d="M13.333 20l6.92-4-6.92-4v8zM28.747 9.56c0.173 0.627 0.293 1.467 0.373 2.533 0.093 1.067 0.133 1.987 0.133 2.787l0.080 1.12c0 2.92-0.213 5.067-0.587 6.44-0.333 1.2-1.107 1.973-2.307 2.307-0.627 0.173-1.773 0.293-3.533 0.373-1.733 0.093-3.32 0.133-4.787 0.133l-2.12 0.080c-5.587 0-9.067-0.213-10.44-0.587-1.2-0.333-1.973-1.107-2.307-2.307-0.173-0.627-0.293-1.467-0.373-2.533-0.093-1.067-0.133-1.987-0.133-2.787l-0.080-1.12c0-2.92 0.213-5.067 0.587-6.44 0.333-1.2 1.107-1.973 2.307-2.307 0.627-0.173 1.773-0.293 3.533-0.373 1.733-0.093 3.32-0.133 4.787-0.133l2.12-0.080c5.587 0 9.067 0.213 10.44 0.587 1.2 0.333 1.973 1.107 2.307 2.307z"></path>
</symbol>
</defs>
</svg>
