<svg xmlns="http://www.w3.org/2000/svg" aria-hidden="true" style="position:absolute;width:0;height:0;overflow:hidden">
  <defs>
  <symbol id="footer-facebook" viewBox="0 0 32 32">
<path d="M16 2.72c-7.333 0-13.333 5.987-13.333 13.36 0 6.667 4.88 12.2 11.253 13.2v-9.333h-3.387v-3.867h3.387v-2.947c0-3.347 1.987-5.187 5.040-5.187 1.453 0 2.973 0.253 2.973 0.253v3.293h-1.68c-1.653 0-2.173 1.027-2.173 2.080v2.507h3.707l-0.6 3.867h-3.107v9.333c3.142-0.496 6.003-2.099 8.067-4.52s3.194-5.499 3.187-8.68c0-7.373-6-13.36-13.333-13.36z"></path>
</symbol>
<symbol id="footer-youtube" viewBox="0 0 32 32">
<path d="M13.333 20l6.92-4-6.92-4v8zM28.747 9.56c0.173 0.627 0.293 1.467 0.373 2.533 0.093 1.067 0.133 1.987 0.133 2.787l0.080 1.12c0 2.92-0.213 5.067-0.587 6.44-0.333 1.2-1.107 1.973-2.307 2.307-0.627 0.173-1.773 0.293-3.533 0.373-1.733 0.093-3.32 0.133-4.787 0.133l-2.12 0.080c-5.587 0-9.067-0.213-10.44-0.587-1.2-0.333-1.973-1.107-2.307-2.307-0.173-0.627-0.293-1.467-0.373-2.533-0.093-1.067-0.133-1.987-0.133-2.787l-0.080-1.12c0-2.92 0.213-5.067 0.587-6.44 0.333-1.2 1.107-1.973 2.307-2.307 0.627-0.173 1.773-0.293 3.533-0.373 1.733-0.093 3.32-0.133 4.787-0.133l2.12-0.080c5.587 0 9.067 0.213 10.44 0.587 1.2 0.333 1.973 1.107 2.307 2.307z"></path>
</symbol>
<symbol id="footer-instagram" viewBox="0 0 32 32">
<path d="M10.4 2.667h11.2c4.267 0 7.733 3.467 7.733 7.733v11.2c0 2.051-0.815 4.018-2.265 5.468s-3.417 2.265-5.468 2.265h-11.2c-4.267 0-7.733-3.467-7.733-7.733v-11.2c0-2.051 0.815-4.018 2.265-5.468s3.417-2.265 5.468-2.265zM10.133 5.333c-1.273 0-2.494 0.506-3.394 1.406s-1.406 2.121-1.406 3.394v11.733c0 2.653 2.147 4.8 4.8 4.8h11.733c1.273 0 2.494-0.506 3.394-1.406s1.406-2.121 1.406-3.394v-11.733c0-2.653-2.147-4.8-4.8-4.8h-11.733zM23 7.333c0.442 0 0.866 0.176 1.179 0.488s0.488 0.736 0.488 1.178c0 0.442-0.176 0.866-0.488 1.178s-0.737 0.488-1.179 0.488c-0.442 0-0.866-0.176-1.179-0.488s-0.488-0.736-0.488-1.178c0-0.442 0.176-0.866 0.488-1.178s0.737-0.488 1.179-0.488zM16 9.333c1.768 0 3.464 0.702 4.714 1.953s1.953 2.946 1.953 4.714-0.702 3.464-1.953 4.714c-1.25 1.25-2.946 1.953-4.714 1.953s-3.464-0.702-4.714-1.953c-1.25-1.25-1.953-2.946-1.953-4.714s0.702-3.464 1.953-4.714c1.25-1.25 2.946-1.953 4.714-1.953zM16 12c-1.061 0-2.078 0.421-2.828 1.172s-1.172 1.768-1.172 2.828c0 1.061 0.421 2.078 1.172 2.828s1.768 1.172 2.828 1.172c1.061 0 2.078-0.421 2.828-1.172s1.172-1.768 1.172-2.828c0-1.061-0.421-2.078-1.172-2.828s-1.768-1.172-2.828-1.172z"></path>
</symbol>
<symbol id='footer-logo' viewBox="0 0 79 79">
  <path fill-rule="evenodd" clip-rule="evenodd" d="M36.6388 0.0527066C36.4606 0.0732209 35.7804 0.14297 35.1272 0.207752C32.7321 0.445394 29.8266 1.06655 27.2906 1.88302C18.3228 4.77025 10.4991 11.0094 5.57302 19.2019C2.47362 24.3564 0.6283 30.0841 0.082726 36.2434C-0.0799854 38.0798 0.00941411 42.5425 0.245329 44.3589C1.24621 52.0663 4.27338 58.9944 9.2276 64.9163C10.5399 66.4848 13.1226 69.0288 14.6192 70.2271C20.9546 75.2992 28.2079 78.2131 36.2519 78.9179C38.1016 79.0799 42.5485 78.9901 44.3587 78.7543C53.125 77.6119 60.8084 73.9032 67.0731 67.7902C73.9904 61.0405 78.0595 52.4403 78.9173 42.7571C79.08 40.9207 78.9906 36.458 78.7547 34.6416C77.9017 28.073 75.4668 21.8112 71.7474 16.6215C69.1788 13.0373 65.8036 9.67954 62.2214 7.1444C56.6355 3.1914 49.881 0.720286 42.9551 0.0958947C41.8227 -0.0062451 37.4141 -0.0363688 36.6388 0.0527066ZM43.193 1.3314C54.3072 2.3962 64.2715 8.19031 70.863 17.4212C72.9124 20.2913 74.8446 24.1538 75.9807 27.6517C77.1547 31.2665 77.6909 34.4677 77.7938 38.4745C77.8621 41.1299 77.7538 43.0103 77.3982 45.3444C75.5422 57.528 67.8316 68.1398 56.7811 73.719C40.1602 82.1105 19.9929 77.3745 8.76829 62.4439C5.34088 57.8849 2.86933 52.2727 1.82623 46.6803C1.24254 43.5516 1.01494 39.3868 1.26846 36.4771C2.01626 27.8939 5.19091 20.4455 10.8404 14.0193C17.0022 7.0102 26.1009 2.30183 35.2352 1.39542C35.8884 1.33064 36.5686 1.26089 36.7468 1.24038C37.6836 1.13284 41.7135 1.18974 43.193 1.3314ZM39.8779 3.54619C39.4622 3.58463 39.2314 3.62458 39.365 3.63505C39.5852 3.65232 39.608 3.70976 39.608 4.248V4.84183H39.1221H38.6362V4.29853C38.6362 3.83598 38.6724 3.74064 38.8792 3.65751C39.058 3.58571 38.9099 3.55807 38.3187 3.55299C37.6564 3.54738 37.5456 3.56994 37.6884 3.68115C37.8193 3.7834 37.8795 4.10817 37.9359 5.01923C38.0042 6.12052 37.9937 6.23173 37.8115 6.33376C37.5048 6.50533 37.6554 6.5361 38.4203 6.45804C38.8063 6.41863 39.0437 6.3789 38.9478 6.36983C38.8262 6.35838 38.7528 6.20226 38.7049 5.85243C38.5914 5.0243 38.5811 5.04244 39.1491 5.07883L39.662 5.11176L39.6947 5.68C39.7238 6.18746 39.7007 6.25883 39.4787 6.34791C39.2918 6.42295 39.4296 6.4494 40.0335 6.45458C40.7029 6.4602 40.806 6.43882 40.6518 6.32599C40.5028 6.21705 40.4534 5.94302 40.3987 4.92238C40.3379 3.7875 40.3495 3.65416 40.5092 3.65416C40.6073 3.65416 40.6877 3.60557 40.6877 3.54619C40.6877 3.48681 40.6755 3.44675 40.6607 3.45733C40.6459 3.4678 40.2936 3.50775 39.8779 3.54619ZM41.2275 3.67899C41.2275 3.72466 41.3075 3.76213 41.4054 3.76213C41.561 3.76213 41.5744 3.86492 41.5133 4.58821C41.4749 5.04255 41.4435 5.577 41.4435 5.77588C41.4435 5.99355 41.3575 6.22342 41.2275 6.35341L41.0116 6.56936L41.5244 6.57087C41.8066 6.57162 42.1588 6.59959 42.3072 6.63284C42.5655 6.69071 42.5682 6.68607 42.3716 6.52628C42.1835 6.3735 42.1718 6.25624 42.235 5.15225C42.273 4.48845 42.3169 3.93693 42.3326 3.92668C42.3484 3.91653 42.5966 3.92916 42.8842 3.95475C43.3435 3.99578 43.4238 4.0408 43.5431 4.32465L43.679 4.64792L43.7456 4.23774C43.7822 4.01208 43.8012 3.81644 43.7877 3.80305C43.7145 3.72974 41.2275 3.60924 41.2275 3.67899ZM35.2324 4.58864C35.0717 5.11392 34.8764 5.75472 34.7983 6.01277C34.7202 6.27071 34.5679 6.58199 34.4598 6.70453C34.267 6.92317 34.2683 6.92587 34.5334 6.85774C34.6818 6.81952 34.9248 6.78605 35.0732 6.78346C35.3088 6.77936 35.3191 6.76478 35.1542 6.66869C34.9375 6.54247 34.8984 6.04365 35.1002 5.98059C35.1745 5.95738 35.4174 5.90804 35.6402 5.871C35.9995 5.8113 36.0591 5.83429 36.1689 6.07539C36.2643 6.28496 36.2613 6.38473 36.1556 6.51213C36.0371 6.65498 36.0604 6.67052 36.3287 6.62777C36.4993 6.60067 36.8271 6.54873 37.0571 6.51245C37.4491 6.4507 37.4621 6.4372 37.2626 6.29749C37.1456 6.21554 36.7675 5.67223 36.4223 5.09027C35.4455 3.44319 35.5671 3.49436 35.2324 4.58864ZM44.3857 3.93661C44.6178 4.00701 44.618 4.05041 44.3937 5.40166C44.2486 6.27416 44.1733 6.50187 44.0158 6.54301C43.9075 6.57141 43.8188 6.6268 43.8188 6.6662C43.8188 6.72926 45.8343 7.11191 46.1566 7.10996C46.271 7.10931 46.5181 6.5713 46.5181 6.32254C46.5181 6.26391 46.3876 6.3464 46.2282 6.50587C45.9926 6.74157 45.8563 6.78972 45.5003 6.76349C45.0124 6.72764 44.9375 6.59322 45.0554 5.96472C45.1421 5.50261 45.4195 5.47616 45.5085 5.92153C45.6094 6.42554 45.7224 6.30688 45.8429 5.57063C45.9431 4.95833 45.9135 4.58378 45.7919 4.92475C45.7229 5.11813 45.4442 5.38168 45.3088 5.38168C45.2335 5.38168 45.2202 5.18906 45.2695 4.81678C45.3107 4.50615 45.3562 4.24022 45.3705 4.22586C45.3848 4.21161 45.5797 4.25048 45.8036 4.31224C46.1027 4.39484 46.2476 4.51241 46.3496 4.75492C46.5021 5.11759 46.5844 5.06619 46.6421 4.57191C46.6792 4.25545 46.6651 4.24497 46.0322 4.11876C45.3434 3.98142 44.0677 3.8403 44.3857 3.93661ZM32.9678 4.13884C32.9084 4.16097 32.4954 4.23763 32.05 4.309C31.4094 4.41179 31.291 4.45767 31.4832 4.52893C31.6169 4.57838 31.7261 4.63539 31.7261 4.65558C31.7261 4.67577 31.824 5.22394 31.9435 5.8737C32.1506 7.00005 32.1519 7.06202 31.9705 7.20066C31.8007 7.33033 31.8153 7.33961 32.104 7.28574C32.2822 7.25248 32.7422 7.16654 33.1264 7.09463C33.984 6.93408 34.3473 6.62809 34.2971 6.10865C34.2712 5.83969 34.1834 5.71963 33.9147 5.58542C33.5703 5.41332 33.5686 5.40878 33.7797 5.21778C34.0436 4.97895 34.0518 4.71875 33.8046 4.42647C33.62 4.20848 33.1835 4.0584 32.9678 4.13884ZM33.0681 4.57957C33.1614 4.67297 33.2377 4.83956 33.2377 4.9498C33.2377 5.18129 32.9636 5.48965 32.7577 5.48965C32.6229 5.48965 32.4819 5.04093 32.4819 4.6124C32.4819 4.36104 32.8299 4.3415 33.0681 4.57957ZM30.5647 4.68733C30.49 4.7682 30.3615 4.80858 30.279 4.77694C29.9742 4.66001 29.2623 4.95315 28.9287 5.33299C28.6607 5.63822 28.595 5.80946 28.595 6.20236C28.595 6.74934 28.7088 7.02542 29.1129 7.45881C29.6214 8.00395 30.7159 7.95267 31.1805 7.36197C31.5224 6.92738 31.4428 6.80074 31.0784 7.19969C30.8059 7.49801 30.6911 7.54886 30.3531 7.52057C30.0356 7.49412 29.9 7.41034 29.7051 7.12022C29.5696 6.91842 29.4588 6.71576 29.4588 6.66977C29.4588 6.62377 29.641 6.53005 29.8636 6.4616C30.0864 6.39304 30.3323 6.3167 30.4103 6.29198C30.4884 6.26725 30.523 6.19988 30.4875 6.14233C30.4498 6.08144 30.323 6.07453 30.1838 6.12581C30.0523 6.17418 29.811 6.2462 29.6477 6.28572C29.3588 6.35557 29.3508 6.3451 29.3524 5.89659C29.3544 5.37456 29.4144 5.24985 29.7486 5.07397C30.1006 4.88869 30.2705 4.92 30.6513 5.24035L30.9966 5.5309L30.9171 5.15937C30.7997 4.6111 30.7261 4.51241 30.5647 4.68733ZM48.0297 4.6003C48.0297 4.63097 48.1078 4.71324 48.2035 4.7832C48.3622 4.89916 48.3576 4.98003 48.1503 5.71283C47.9118 6.55597 47.635 7.03276 47.3517 7.08848C47.2443 7.10964 47.1697 7.03082 47.1472 6.87254C47.1238 6.70712 47.0394 6.62334 46.896 6.62334C46.728 6.62334 46.68 6.69536 46.68 6.94725C46.68 7.23521 46.7198 7.27494 47.0386 7.3056C47.704 7.36941 48.0212 6.96852 48.4115 5.57052C48.5766 4.97917 48.5987 4.95283 48.8741 5.0189C49.0332 5.05702 49.1739 5.09589 49.1869 5.1055C49.1997 5.115 49.0582 5.66456 48.8723 6.32675C48.5908 7.32946 48.4966 7.53655 48.309 7.56614C48.1678 7.58838 48.3455 7.68404 48.7854 7.82267C49.1714 7.94425 49.5116 8.02123 49.5412 7.99359C49.5709 7.96595 49.5345 7.92168 49.4603 7.89523C49.2691 7.82688 49.2883 7.6429 49.6134 6.4332C49.829 5.63077 49.9542 5.34173 50.1115 5.28354C50.2635 5.22739 50.0044 5.11435 49.1757 4.87519C48.5453 4.69337 48.0297 4.56964 48.0297 4.6003ZM35.771 5.6041C35.7365 5.65992 35.5897 5.70559 35.4447 5.70559C35.1539 5.70559 35.1181 5.56145 35.2942 5.09848L35.4072 4.80124L35.6205 5.15192C35.7378 5.34487 35.8055 5.54828 35.771 5.6041ZM50.7637 5.51665C50.9343 5.64178 50.9193 5.73658 50.5562 6.82028C50.2788 7.64798 50.1041 8.0114 49.9571 8.06571C49.7984 8.12445 49.914 8.19582 50.4487 8.36976C51.1175 8.5871 51.1422 8.58818 51.0203 8.39297C50.916 8.22594 50.9615 7.98819 51.2697 7.08513C51.5928 6.13942 51.6853 5.97239 51.9166 5.91819C52.1458 5.86431 52.0817 5.81918 51.4908 5.61825C50.7012 5.34983 50.4973 5.32133 50.7637 5.51665ZM33.4091 5.97476C33.6285 6.30958 33.5371 6.74427 33.2266 6.84284C32.9194 6.94034 32.8203 6.81272 32.7383 6.21413C32.6704 5.72006 32.6765 5.70559 32.9506 5.70559C33.1322 5.70559 33.2956 5.80158 33.4091 5.97476ZM25.0806 6.50533C24.8995 6.58415 24.6202 6.80462 24.4597 6.99519C23.8669 7.6998 24.1732 8.86955 25.0651 9.30672C25.7866 9.66043 26.7316 9.2753 27.128 8.46628C27.3099 8.09487 27.3188 7.98603 27.2025 7.55134C27.1299 7.28002 26.9885 6.96733 26.8883 6.85666C26.4453 6.36713 25.7209 6.22633 25.0806 6.50533ZM52.7474 6.47337C52.4287 6.65875 52.3208 7.08556 52.5014 7.44737C52.6761 7.79762 52.7266 7.74072 51.729 8.31761L51.2716 8.58214L51.6569 8.7659L52.0422 8.94967L52.6684 8.56929C53.253 8.21407 53.5361 8.10901 53.5361 8.24721C53.5361 8.27928 53.438 8.49792 53.318 8.73308C53.1666 9.03 53.0263 9.16345 52.8592 9.16992C52.6944 9.1763 52.823 9.27682 53.2662 9.48855C54.0413 9.85856 54.117 9.87119 53.9487 9.6017C53.76 9.29949 54.6766 7.30474 55.0441 7.21804C55.2464 7.17032 55.116 7.08124 54.3674 6.75614C53.4051 6.33819 53.0779 6.28107 52.7474 6.47337ZM25.9593 6.95006C26.4241 7.44283 26.7402 8.39438 26.566 8.7767C26.4024 9.13548 25.974 9.23676 25.6149 9.00149C25.232 8.75068 24.7936 7.76372 24.8363 7.24935C24.8617 6.94423 24.9366 6.81067 25.1399 6.70842C25.5231 6.51548 25.5597 6.52628 25.9593 6.95006ZM39.002 7.06062C37.3484 8.81406 36.44 13.7157 36.0291 23.1029C35.9567 24.756 35.9185 26.1273 35.9442 26.1504C35.9699 26.1734 36.2147 26.2247 36.4882 26.2643L36.9854 26.3364L37.0608 24.5237C37.2986 18.8202 37.8187 13.4819 38.3791 10.9961C38.6947 9.59608 39.2721 8.08094 39.4901 8.08094C39.5416 8.08094 39.7115 8.38466 39.8676 8.75575C40.8913 11.1882 41.5202 16.3841 41.9278 25.7755C42.0139 27.7581 42.1054 29.4012 42.1312 29.4271C42.1572 29.4529 42.3842 29.4123 42.636 29.3368L43.0938 29.1997L43.0193 26.6031C42.7041 15.6218 41.7727 9.48185 40.0865 7.27105C39.5975 6.63003 39.4374 6.59894 39.002 7.06062ZM53.9097 6.78368L54.1893 6.88992L53.9104 7.44046C53.6436 7.96692 53.6211 7.98409 53.3948 7.83466C53.0735 7.6226 53.0349 7.17852 53.3136 6.89985C53.5721 6.64137 53.5479 6.64612 53.9097 6.78368ZM22.1708 7.98582C21.1328 8.5749 20.8229 8.80132 21.2174 8.68233C21.4243 8.62003 21.5241 8.73988 22.0724 9.70826C22.6207 10.6764 22.6771 10.8305 22.5557 11.0251C22.4405 11.2095 22.5212 11.1879 23.0502 10.893C23.8191 10.4643 24.0002 10.3089 23.6284 10.397C23.3811 10.4555 23.3105 10.3768 22.7872 9.45983C22.473 8.90929 22.2118 8.4109 22.2068 8.35238C22.2019 8.29386 22.4064 8.13568 22.6613 8.00093C23.0871 7.77571 23.1451 7.76923 23.3765 7.92093C23.515 8.01162 23.6284 8.0588 23.6284 8.02566C23.6284 7.92244 23.2833 7.43312 23.2111 7.43376C23.1734 7.43409 22.7052 7.68253 22.1708 7.98582ZM56.2354 9.34592C55.9682 9.43845 55.734 9.52698 55.7151 9.54285C55.6549 9.59295 55.9372 10.8913 56.0194 10.942C56.0625 10.9688 56.1275 10.7368 56.1636 10.4266C56.212 10.0099 56.2919 9.82012 56.4694 9.70049C56.6014 9.61142 56.8094 9.45507 56.9314 9.35315C57.1507 9.16992 57.1508 9.16787 56.9372 9.17273C56.8184 9.17543 56.5026 9.25339 56.2354 9.34592ZM19.5222 9.61951C18.3388 10.2173 18.2398 11.5178 19.317 12.3153C19.6826 12.586 20.3891 12.5907 20.843 12.3256C21.9641 11.6708 21.9501 10.2004 20.8172 9.61951C20.5567 9.48595 20.2669 9.37658 20.1733 9.37658C20.0797 9.37658 19.7868 9.48595 19.5222 9.61951ZM57.2406 9.79831C56.9324 9.893 56.6461 10.0056 56.6045 10.0487C56.5051 10.1514 56.7769 11.428 56.898 11.428C56.9492 11.428 56.9912 11.1908 56.9912 10.9009C56.9912 10.3933 57.0096 10.3619 57.4883 10.0505C58.0888 9.65989 57.9968 9.56618 57.2406 9.79831ZM58.8807 9.77963C58.7619 9.80933 58.5304 9.92896 58.3662 10.0456C57.4476 10.6974 57.5778 12.0837 58.609 12.6317C59.0106 12.845 59.6905 12.9029 59.6905 12.7237C59.6905 12.6643 59.5166 12.6157 59.3042 12.6157C58.7409 12.6157 58.2345 12.0949 58.3306 11.6144C58.4283 11.1257 58.8759 10.4922 59.266 10.2904C59.9501 9.93673 60.6227 10.3966 60.5338 11.1573C60.5095 11.3656 60.5219 11.536 60.5616 11.536C60.6011 11.536 60.7669 11.3343 60.9301 11.0878C61.1401 10.7705 61.1759 10.6592 61.0529 10.7063C60.9376 10.7506 60.7996 10.6653 60.6422 10.4524C60.2432 9.91265 59.4933 9.62621 58.8807 9.77963ZM20.386 10.1594C20.795 10.5739 21.145 11.2152 21.145 11.5501C21.145 11.8705 20.845 12.1838 20.5382 12.1838C20.198 12.1838 19.5878 11.6248 19.3169 11.0652C19.0469 10.5076 19.0367 10.2661 19.2723 10.0059C19.5506 9.69833 19.9909 9.75901 20.386 10.1594ZM35.1232 10.0245C28.7517 10.9895 23.0153 13.8856 18.4423 18.4461C10.0139 26.8513 7.44436 39.2939 11.8199 50.5132C15.0644 58.8323 22.2673 65.4248 30.9703 68.0408C33.5648 68.8206 37.7725 69.465 37.7725 69.0825C37.7725 69.0222 37.9206 68.8828 38.1018 68.7727L38.431 68.5724L38.1138 68.3055C37.8434 68.078 37.6471 68.0287 36.7857 67.9717C35.4542 67.8836 33.1554 67.4524 31.5553 66.9908C21.5941 64.1168 13.8448 55.9077 11.5982 45.8494C11.0597 43.439 10.9572 42.4402 10.9519 39.5542C10.9462 36.4966 11.0803 35.2809 11.7041 32.7302C12.716 28.5935 14.5282 24.8941 17.151 21.6108C18.1343 20.3799 20.1805 18.3166 21.415 17.3114C25.5653 13.9315 30.8653 11.6787 36.058 11.0872L37.0967 10.9688L37.2582 10.3887L37.4197 9.80846L36.9212 9.81807C36.6471 9.82325 35.838 9.91621 35.1232 10.0245ZM41.6083 10.3594C41.6883 10.6625 41.769 10.9215 41.7876 10.935C41.8061 10.9485 42.3072 11.0147 42.9011 11.0821C49.1987 11.7971 55.254 14.7572 59.7663 19.3267C61.3501 20.9307 62.2158 21.9832 63.3047 23.6286C65.7394 27.3077 67.1621 31.037 67.8641 35.5804C68.117 37.2169 68.117 41.7836 67.8641 43.4201C67.086 48.4555 65.2923 52.7852 62.3632 56.6985C61.069 58.4275 58.4273 61.0693 56.6983 62.3634C53.0943 65.061 49.0947 66.8196 44.7302 67.6257C43.945 67.7707 42.911 67.922 42.4323 67.962C41.5796 68.0331 41.5605 68.041 41.4924 68.3512C41.4516 68.5374 41.2938 68.7464 41.1096 68.8584C40.6979 69.1087 40.8077 69.1921 41.5493 69.1921C42.9914 69.1921 45.9457 68.6672 48.0297 68.0408C62.4509 63.706 71.4187 49.25 68.861 34.461C67.8037 28.3469 64.9384 22.8207 60.5569 18.445C57.0606 14.9533 52.7453 12.373 47.999 10.9359C46.2312 10.4007 43.018 9.80846 41.8814 9.80846H41.463L41.6083 10.3594ZM16.9717 11.4816C16.6838 11.7486 16.5225 11.942 16.6131 11.9112C16.7119 11.8777 16.9418 12.023 17.1868 12.2741L17.5958 12.6929L17.2567 12.9781C17.0702 13.1351 16.8771 13.2635 16.8275 13.2635C16.778 13.2635 16.6083 13.1101 16.4505 12.9225C16.2405 12.6729 16.1814 12.5103 16.2302 12.3159C16.2893 12.0806 16.2282 12.1089 15.6978 12.5619C15.3683 12.8435 15.0987 13.0931 15.0987 13.1168C15.0987 13.1403 15.2088 13.132 15.3434 13.0982C15.542 13.0484 15.6894 13.1541 16.1261 13.66C17.2388 14.9484 17.1994 14.8873 17.0602 15.1101C16.8704 15.4142 16.9726 15.3634 17.5484 14.8681C18.1052 14.389 18.2483 14.1935 17.9619 14.3035C17.7745 14.3753 17.0422 13.7615 17.0422 13.5326C17.0422 13.4663 17.196 13.2984 17.384 13.1593L17.7258 12.9067L18.096 13.3105C18.3395 13.5762 18.4474 13.7853 18.4117 13.9221C18.3664 14.0952 18.4251 14.0763 18.7629 13.8088C18.9858 13.6321 19.2272 13.4167 19.2991 13.33C19.4066 13.2006 19.3951 13.1812 19.2347 13.2215C18.9576 13.2911 17.4275 11.5095 17.5062 11.2088C17.5368 11.0918 17.5467 10.9961 17.5284 10.9961C17.51 10.9961 17.2594 11.2146 16.9717 11.4816ZM61.63 11.2613C61.7896 11.4536 61.7675 11.4915 60.8848 12.5384C60.2985 13.2339 60.1344 13.3686 59.9334 13.3191C59.7998 13.2863 59.6905 13.2754 59.6905 13.2948C59.6905 13.3144 59.9569 13.5603 60.2826 13.8415C60.8585 14.3387 60.8729 14.3444 60.815 14.051C60.7665 13.8056 60.8272 13.6799 61.1407 13.3773C61.5871 12.9462 61.6143 13.0239 61.3718 14.0383C61.2317 14.6239 61.2355 14.6602 61.4565 14.8533C62.0079 15.3347 62.011 15.3344 62.0237 14.7929C62.0467 13.8202 62.1209 13.2635 62.2278 13.2611C62.2871 13.2598 62.4572 13.1637 62.6057 13.0476C62.9945 12.7434 63.2089 12.7714 63.2037 13.1256C63.1986 13.4825 63.5108 13.5897 63.6729 13.2867C63.7539 13.1353 63.74 13.0194 63.6201 12.8484C63.4123 12.5516 62.9873 12.5483 62.5092 12.8398C62.2772 12.9813 62.0495 13.0398 61.8884 12.9993C61.5619 12.9174 61.5707 12.8542 61.9688 12.4162C62.1976 12.1646 62.3626 12.0718 62.5117 12.1108C62.8045 12.1874 62.7422 12.089 62.1617 11.5589C61.6786 11.1177 61.3653 10.9424 61.63 11.2613ZM31.6534 13.2001C30.4553 13.2647 29.4467 13.3463 29.4118 13.3816C29.3769 13.4169 29.155 14.7288 28.9186 16.2968C28.6822 17.8649 28.3922 19.7795 28.2743 20.5515C28.1564 21.3235 27.5724 25.2104 26.9766 29.1891C26.3808 33.1678 25.8687 36.5324 25.8385 36.666L25.7837 36.909H28.377C29.8033 36.909 30.9703 36.8701 30.9703 36.8226C30.9703 36.7751 31.0918 35.9004 31.2403 34.8788C31.3887 33.8572 31.5102 32.9287 31.5102 32.8153C31.5102 32.6846 31.2501 32.4236 30.8005 32.1027C29.9386 31.4876 28.703 30.3472 28.703 30.1668C28.703 29.8011 30.3566 28.9496 31.5372 28.7073C31.8787 28.6373 32.158 28.527 32.158 28.4625C32.158 28.2511 33.2568 20.4445 33.2916 20.4086C33.3103 20.3894 33.8914 20.6987 34.5829 21.0958C35.2746 21.4928 35.8548 21.8001 35.8725 21.7785C35.8901 21.7569 35.9636 20.816 36.0358 19.6877C36.108 18.5594 36.1943 17.2641 36.2275 16.8094L36.288 15.9823L35.9597 15.8126C35.6725 15.664 35.6096 15.5443 35.4587 14.858C35.3637 14.4265 35.2332 13.8426 35.1689 13.5604L35.0517 13.0476L34.4416 13.0652C34.1061 13.0749 32.8514 13.1356 31.6534 13.2001ZM64.2757 13.5403C64.3221 13.7145 64.1338 13.9597 63.4162 14.6601C62.6452 15.4127 62.4712 15.5354 62.3355 15.4228C62.2465 15.349 62.1738 15.332 62.1738 15.3852C62.1738 15.4867 63.8098 17.1504 63.9097 17.1504C63.9414 17.1504 64.1346 17.0267 64.3392 16.8753L64.7111 16.6003L64.2668 16.6709C63.8733 16.7335 63.7806 16.704 63.457 16.4136L63.0915 16.0857L63.4636 15.7004C63.6683 15.4883 63.8696 15.3149 63.9109 15.3149C64.0709 15.3149 64.0935 15.6248 63.9531 15.8954C63.7325 16.3205 63.9034 16.2396 64.4951 15.6389C65.0503 15.0752 65.0662 15.0156 64.6053 15.2256C64.3918 15.3229 64.2975 15.3225 64.1989 15.2238C64.0996 15.1246 64.1629 15.0039 64.4775 14.6923L64.8847 14.2892L65.1488 14.5922C65.4391 14.9252 65.479 15.2051 65.2872 15.565C65.1692 15.7866 65.1739 15.791 65.3668 15.6389C66.0087 15.1323 66.027 15.2228 65.0827 14.2291C64.5984 13.7194 64.2427 13.4157 64.2757 13.5403ZM13.6846 14.5229C13.2747 14.9186 12.9393 15.2889 12.9393 15.3459C12.9393 15.4028 13.0122 15.3889 13.1013 15.3149C13.237 15.2023 13.4133 15.3167 14.1884 16.0204C14.9691 16.7291 15.1037 16.8998 15.0501 17.1134C15.0152 17.2526 15.0084 17.3664 15.0352 17.3664C15.062 17.3664 15.403 17.0005 15.7931 16.5531C16.3604 15.9026 16.5023 15.6683 16.5023 15.3822C16.5023 14.8838 16.1895 14.6195 15.6946 14.6998C15.3375 14.7578 15.3179 14.7459 15.3776 14.5078C15.4215 14.333 15.3712 14.1838 15.2161 14.0287C14.8199 13.6325 14.4998 13.7359 13.6846 14.5229ZM14.6668 14.5591C14.9121 14.8045 14.9298 14.9173 14.7699 15.216C14.6622 15.4174 14.6382 15.411 14.2373 15.0745C13.8482 14.7479 13.8301 14.7083 13.989 14.5327C14.2123 14.2859 14.401 14.2933 14.6668 14.5591ZM39.2479 15.3131C39.0898 15.8812 39.0686 16.6883 39.0714 21.9805L39.0746 28.0014L39.5 28.4873L39.9254 28.9732L39.927 22.495C39.9285 16.5769 39.912 15.9634 39.736 15.3996C39.63 15.0601 39.5173 14.7564 39.4854 14.7246C39.4536 14.6927 39.3467 14.9576 39.2479 15.3131ZM15.7029 15.4584C15.9367 15.6595 15.9807 15.7676 15.9227 15.9983C15.8237 16.393 15.5421 16.3662 15.1108 15.9213L14.7567 15.5558L15.0056 15.3814C15.327 15.1564 15.3555 15.1596 15.7029 15.4584ZM66.8719 16.4216C66.9174 16.6077 66.8448 16.733 66.5614 16.9571C65.8068 17.5535 65.3748 17.7983 65.0766 17.7983C64.7944 17.7983 64.7755 17.7731 64.8349 17.476C64.9089 17.1063 64.6584 16.9253 64.3858 17.1516C64.1636 17.336 64.185 17.6205 64.4384 17.8499C64.8186 18.1937 65.5164 18.0234 66.3504 17.383C67.0808 16.8221 67.1692 16.8008 67.3519 17.1421C67.4402 17.3072 67.3138 17.4508 66.5384 18.0653C65.8957 18.5747 65.5567 18.7764 65.4086 18.7376C65.2922 18.7071 65.1969 18.7091 65.1969 18.742C65.1969 18.8006 65.9362 19.7439 66.0651 19.8497C66.1013 19.8794 66.2207 20.0581 66.3305 20.2469C66.5606 20.6427 66.744 20.71 67.5993 20.7119C67.9408 20.7128 68.2201 20.758 68.2201 20.8126C68.2201 20.9896 67.4638 21.3863 67.2386 21.3274C67.0037 21.266 67.0199 21.3072 67.5796 22.198C67.7651 22.4933 67.8953 22.515 67.8231 22.2386C67.7811 22.0781 67.9886 21.8995 68.8268 21.3752C69.5292 20.9358 69.9196 20.7502 69.9911 20.8217C70.5043 21.3349 69.7503 19.9269 69.1755 19.2987C68.6629 18.7386 67.7879 19.0009 67.7885 19.7147L67.7887 20.0116L67.0596 19.9747C65.7397 19.9078 65.7337 19.6104 67.0321 18.6201C67.8428 18.002 68.0304 17.9016 68.1658 18.014C68.2551 18.088 68.3281 18.1132 68.3281 18.0699C68.3281 17.9763 66.9352 16.1787 66.8626 16.1787C66.835 16.1787 66.8392 16.288 66.8719 16.4216ZM12.1236 16.3902C11.7691 16.5338 11.2285 17.2212 11.1528 17.6246C10.9198 18.8666 12.361 19.8596 13.434 19.1965C14.478 18.5512 14.488 17.133 13.4531 16.5021C13.0906 16.2809 12.5132 16.2324 12.1236 16.3902ZM13.1936 17.2938C13.8148 17.8028 14.0019 18.2373 13.7594 18.6074C13.4373 19.099 12.6067 18.8753 11.9161 18.1107C11.5173 17.6693 11.4194 17.2052 11.6706 16.947C11.9158 16.695 12.6735 16.8676 13.1936 17.2938ZM9.41806 19.811C8.96923 20.5023 8.58982 21.1218 8.57492 21.1877C8.56002 21.2534 8.56833 21.2708 8.59317 21.2263C8.69746 21.0398 9.05409 21.1838 10.004 21.7956C10.8789 22.3591 11.0013 22.4748 10.9457 22.6851C10.8833 22.9214 10.8861 22.921 11.0738 22.6661C11.4601 22.1415 11.7965 21.5196 11.6136 21.6683C11.4287 21.8186 11.0792 21.6461 9.72999 20.7382L9.27403 20.4313L9.5433 20.035L9.81269 19.6385L10.3233 19.9559C11.6344 20.7709 11.9135 20.9938 11.8862 21.2042C11.8622 21.3877 11.8833 21.3812 12.0481 21.1545C12.1522 21.0111 12.3516 20.7041 12.491 20.4721C12.7226 20.0871 12.7261 20.0621 12.5311 20.184C12.3503 20.2967 12.2447 20.2739 11.8456 20.0357C10.6665 19.3321 10.294 19.032 10.3026 18.7929C10.3073 18.6615 10.2938 18.554 10.2726 18.554C10.2515 18.554 9.86689 19.1197 9.41806 19.811ZM69.2782 19.7633C69.4971 19.9822 69.426 20.1329 68.9574 20.4429C68.529 20.7265 68.5003 20.7314 68.3636 20.5446C68.1722 20.2828 68.1828 20.0699 68.3988 19.8312C68.6017 19.607 69.0846 19.5697 69.2782 19.7633ZM42.9971 21.5502C43.0578 22.6145 43.2671 28.1139 43.2762 28.8879C43.2789 29.1186 43.3433 29.1043 45.1954 28.4661C46.2494 28.1029 47.1569 27.7658 47.2121 27.717C47.273 27.6631 47.1934 26.6374 47.0086 25.0966L46.705 22.5647L44.8861 21.4231C43.8858 20.7953 43.0352 20.2816 42.9959 20.2816C42.9566 20.2816 42.9571 20.8524 42.9971 21.5502ZM69.5591 23.091C68.8692 23.5329 68.7114 24.4356 69.1874 25.2159C69.4436 25.636 70.0245 25.9703 70.1976 25.7972C70.2818 25.713 70.2609 25.6801 70.1229 25.6801C69.8283 25.6801 69.2998 25.0915 69.2998 24.7635C69.2998 24.3365 69.4696 24.0967 69.9861 23.7939C70.5893 23.4405 71.2536 23.4249 71.563 23.757C71.8215 24.0344 71.8513 24.5769 71.6246 24.8767C71.3632 25.2223 71.4357 25.2646 71.8911 25.0323C72.3484 24.7989 72.4263 24.6631 72.161 24.5613C72.072 24.5272 71.9991 24.3957 71.9991 24.2692C71.9991 23.8761 71.668 23.3179 71.3001 23.0905C70.8325 22.8015 70.0104 22.8017 69.5591 23.091ZM10.1766 23.9513C10.1199 24.0079 9.38513 24.0679 8.54371 24.0844L7.01399 24.1145L7.97914 25.2262C8.51003 25.8376 8.94439 26.4084 8.94439 26.4948C8.94439 26.5812 8.99298 26.6518 9.05236 26.6518C9.11175 26.6518 9.16033 26.6335 9.16033 26.611C9.16033 26.5885 9.23429 26.3931 9.32477 26.1766C9.48478 25.7936 9.4836 25.7866 9.27683 25.9158C9.10052 26.0258 9.02742 26.0149 8.84679 25.8514C8.62944 25.6547 8.62944 25.6539 8.84301 25.2353C9.01727 24.8937 9.11477 24.8163 9.37055 24.8163C9.58261 24.8163 9.69695 24.8775 9.72318 25.0053C9.74769 25.1249 9.86992 24.9606 10.0565 24.557C10.3452 23.9325 10.3822 23.7456 10.1766 23.9513ZM8.83642 24.7677C8.83642 24.8538 8.51402 25.4641 8.46857 25.4641C8.44741 25.4641 8.30046 25.2941 8.14196 25.0862L7.85368 24.7083H8.34505C8.6153 24.7083 8.83642 24.735 8.83642 24.7677ZM72.4995 25.5412C72.5488 25.7291 72.405 25.8181 71.4001 26.222C70.4067 26.6213 70.2135 26.6675 70.0262 26.5505C69.8325 26.4296 69.8173 26.4366 69.8894 26.6141C69.934 26.7239 70.0428 27.0202 70.1311 27.2725C70.291 27.729 70.5774 28.0771 70.4419 27.6502C70.3815 27.4598 70.506 27.3806 71.4831 26.9884C72.0936 26.7434 72.6287 26.5431 72.6725 26.5434C72.7972 26.5442 73.0936 27.3292 73.0003 27.4117C72.9544 27.4523 72.445 27.6699 71.8682 27.8951C70.9536 28.2523 70.7964 28.2853 70.638 28.1539C70.4738 28.0175 70.4645 28.0289 70.5416 28.2722C70.6643 28.6601 71.0128 29.459 71.0591 29.459C71.0808 29.459 71.0946 29.3533 71.0899 29.2242C71.0826 29.0238 71.2455 28.9258 72.1988 28.5572C73.1625 28.1844 73.3468 28.144 73.5371 28.2628C73.7194 28.3766 73.7478 28.3752 73.6997 28.2551C73.6678 28.1749 73.4136 27.5264 73.135 26.8138C72.6722 25.6302 72.3586 25.0021 72.4995 25.5412ZM6.32654 26.0262C6.1783 26.136 5.38137 27.8096 5.38137 28.0109C5.38137 28.0364 5.47369 27.9996 5.58651 27.9291C5.75646 27.8231 5.98363 27.8752 6.90915 28.2332C7.85098 28.5974 8.02535 28.7015 8.01865 28.8949C8.00537 29.276 8.15513 29.0658 8.44438 28.2976C8.82325 27.2912 8.86525 27.0656 8.73666 26.7273C8.57297 26.2969 8.19346 26.156 7.77745 26.3712C7.44998 26.5405 7.44199 26.5384 7.30292 26.2467C7.14129 25.9078 6.63933 25.7944 6.32654 26.0262ZM35.3443 26.6026C34.4892 26.9278 33.7714 27.8718 33.4151 29.1398C33.0863 30.3097 33.0884 30.3162 33.9142 30.6512C35.3316 31.2262 35.8289 31.8278 36.4151 33.6768C36.614 34.304 36.9016 35.0638 37.0544 35.3651C38.0396 37.3095 40.7002 37.6987 43.9268 36.3703C44.8227 36.0015 46.5172 35.0653 46.5177 34.9388C46.518 34.8945 46.3518 34.6742 46.1487 34.4493L45.7793 34.0404L46.7695 33.2134C49.596 30.8528 50.9277 29.4634 51.5438 28.2317C51.9493 27.4212 52.0124 27.0057 51.7455 26.9033C51.3706 26.7595 49.5118 27.2643 45.5463 28.5871C43.2601 29.3497 41.224 30.0039 41.0217 30.0409C40.6758 30.1042 40.6185 30.0681 40.0551 29.4327C38.958 28.1955 37.6154 26.9199 37.2055 26.7257C36.6377 26.4564 35.8633 26.4052 35.3443 26.6026ZM6.89296 26.7598C7.12228 26.9891 7.14593 27.0775 7.04681 27.3359C6.99164 27.4796 6.94025 27.4795 6.58794 27.3347C6.02217 27.1022 5.96085 27.0143 6.18888 26.7624C6.43808 26.4869 6.61947 26.4863 6.89296 26.7598ZM8.16452 27.1438C8.42419 27.3257 8.5083 27.9475 8.27314 27.9475C8.04349 27.9475 7.21687 27.598 7.21687 27.5009C7.21687 27.3577 7.63137 26.9757 7.78663 26.9757C7.86253 26.9757 8.03258 27.0514 8.16452 27.1438ZM37.1579 27.7936C37.4241 27.9673 38.0283 28.571 38.5006 29.1351C38.973 29.6993 39.5679 30.3491 39.8228 30.5792C40.2651 30.9784 40.3124 30.995 40.8515 30.9393C41.1623 30.9072 43.4026 30.2243 45.8299 29.4217C50.9701 27.722 50.7289 27.7955 50.7289 27.9283C50.7289 28.1117 49.7832 29.323 48.9765 30.1729C48.0027 31.1989 47.0406 31.9891 45.4384 33.0791C44.7555 33.5435 44.1765 33.9395 44.1517 33.9587C44.127 33.978 44.297 34.159 44.5296 34.3609C44.7623 34.5628 44.9282 34.7517 44.8985 34.7808C44.8017 34.8754 42.8108 35.6959 42.0913 35.9379C41.1165 36.2656 39.9902 36.3381 39.3362 36.1153C38.2414 35.7422 37.7936 35.1659 37.2268 33.3999C36.6138 31.4903 36.0336 30.641 34.8977 29.9911C34.5785 29.8085 34.318 29.6263 34.3186 29.5861C34.3213 29.4185 34.6368 28.4854 34.7926 28.184C34.8852 28.005 35.0956 27.7523 35.26 27.6225C35.6821 27.2893 36.4979 27.3629 37.1579 27.7936ZM35.6143 28C35.3346 28.337 35.8088 28.7696 36.1184 28.4601C36.3275 28.251 36.2112 27.8395 35.9429 27.8395C35.8354 27.8395 35.6875 27.9117 35.6143 28ZM5.15992 28.8798C5.02453 29.2359 5.21078 29.5519 5.75376 29.8875C6.11568 30.1112 6.25701 30.4519 6.04269 30.5844C5.99076 30.6165 5.72353 30.5663 5.44885 30.4727C5.06923 30.3433 4.94711 30.2467 4.93966 30.0697C4.93427 29.9417 4.83774 30.1284 4.72513 30.4848C4.47809 31.2671 4.45488 31.5296 4.65721 31.2527C4.78926 31.0722 4.86247 31.0807 6.00134 31.4089C7.00632 31.6984 7.21179 31.7937 7.24246 31.9841C7.26675 32.1349 7.3419 32.0051 7.46401 31.6018C7.67229 30.9137 7.70716 30.6032 7.5479 30.8548C7.46542 30.9851 7.3569 30.988 6.84631 30.8738C6.19579 30.7281 6.1485 30.5975 6.7052 30.4842C7.77583 30.2663 7.85152 30.2257 7.9678 29.8069C8.11874 29.2634 8.10978 29.1985 7.91101 29.3974C7.81761 29.4907 7.65976 29.5686 7.5601 29.5706C7.46034 29.5725 7.12844 29.6606 6.82234 29.7663L6.26586 29.9587L5.85925 29.6819C5.38288 29.3575 5.27005 29.1351 5.58198 29.1351C5.84467 29.1351 5.94541 28.9998 5.85601 28.7669C5.74588 28.4799 5.28344 28.5548 5.15992 28.8798ZM31.2237 29.0255C30.3933 29.2432 29.8293 29.502 29.2662 29.9237L28.9118 30.1891L29.6441 30.861C31.0009 32.1058 33.2433 33.4632 35.6401 34.4907C36.1006 34.688 36.4768 34.7961 36.4768 34.731C36.4768 34.6659 36.4204 34.424 36.3513 34.1934C36.23 33.7889 36.1689 33.7463 34.5931 32.9691C32.9441 32.156 31.3815 31.195 30.5969 30.5115L30.1694 30.1392L30.7899 29.9071C31.2193 29.7464 31.6562 29.675 32.2088 29.675C32.9441 29.675 33.0127 29.6558 33.0771 29.432C33.2683 28.7667 33.3008 28.8108 32.6241 28.8172C32.2787 28.8204 31.6485 28.9142 31.2237 29.0255ZM71.0728 29.9449C71.1639 30.4408 71.3513 30.7097 71.3513 30.3444C71.3513 30.1553 71.414 30.1069 71.6581 30.1069C71.9237 30.1069 71.9827 30.1662 72.0973 30.549C72.213 30.9348 72.2061 31.0175 72.0438 31.1968C71.8297 31.4334 71.6128 31.4629 71.5235 31.2675C71.4896 31.1934 71.4916 31.3009 71.5281 31.5066C71.6153 31.998 71.8737 32.6945 71.8835 32.4643C71.8876 32.3654 72.4277 31.8372 73.0836 31.2905C73.7396 30.7438 74.2587 30.2791 74.2373 30.2577C74.2159 30.2363 73.555 30.1243 72.7686 30.0089C71.9821 29.8934 71.261 29.7346 71.1661 29.656C71.011 29.5276 71.0015 29.5571 71.0728 29.9449ZM73.0746 30.2889C73.1019 30.3128 72.9804 30.448 72.8046 30.5895C72.4537 30.8716 72.3738 30.8447 72.2662 30.4088C72.1956 30.1226 72.2022 30.1183 72.6094 30.1812C72.8379 30.2166 73.0471 30.2649 73.0746 30.2889ZM49.8522 30.8065L49.2453 31.3939L50.593 31.3871C51.7048 31.3814 51.9715 31.4112 52.1175 31.5574C52.2815 31.7217 52.2629 31.7625 51.8626 32.1141C51.2322 32.6681 49.6918 33.6753 48.9139 34.0423C48.4077 34.281 48.2561 34.4024 48.3073 34.5281C48.3448 34.6202 48.4207 35.0843 48.4758 35.5593C48.5309 36.0344 48.5997 36.5324 48.6288 36.666L48.6816 36.909H51.2189H53.7562L53.7044 36.666C53.6758 36.5324 53.5446 35.4423 53.4127 34.2436L53.1729 32.0642L51.8512 31.1395C51.1242 30.6309 50.5136 30.2158 50.4942 30.217C50.4749 30.2182 50.1859 30.4835 49.8522 30.8065ZM49.0522 31.7102C48.7778 31.7981 48.006 32.3865 48.0748 32.4553C48.1029 32.4834 48.5417 32.4444 49.05 32.3688C49.5583 32.2933 50.0011 32.2583 50.034 32.2911C50.1529 32.4101 48.7134 33.1834 47.4661 33.6705L46.1906 34.1688L46.459 34.4209L46.7273 34.673L47.4055 34.4297C48.5007 34.0368 50.3274 33.0454 51.1238 32.4117C51.5302 32.0883 51.8788 31.7776 51.8986 31.7211C51.9389 31.606 49.4077 31.5963 49.0522 31.7102ZM4.60031 32.166C4.40651 32.2789 4.15321 33.0411 4.02872 33.8858C3.96534 34.3163 3.97441 34.3491 4.10786 34.1733C4.25233 33.9832 4.30037 33.9823 5.2788 34.1527C6.50772 34.3668 6.78153 34.4693 6.796 34.7203C6.80744 34.9174 7.09572 33.7384 7.10415 33.4603C7.10771 33.345 7.0724 33.3546 6.96821 33.4971C6.85214 33.6558 6.73888 33.6762 6.32039 33.6134L5.81325 33.5374V33.0097C5.81325 32.6261 5.7543 32.4232 5.59731 32.2663C5.36582 32.0348 4.90501 31.9885 4.60031 32.166ZM72.784 32.4264C72.2878 32.6421 71.9999 33.1681 71.9995 33.8604C71.9991 34.3573 72.0456 34.4795 72.3683 34.8317C72.5714 35.0534 72.7749 35.1973 72.8207 35.1517C72.8664 35.1059 72.8011 34.9966 72.6756 34.9087C72.3611 34.6884 72.1794 34.1016 72.3151 33.7446C72.5925 33.0149 74.3494 32.8019 74.6992 33.4554C74.8946 33.8208 74.8234 34.3122 74.5364 34.5781C74.3879 34.7158 74.2665 34.8527 74.2665 34.8824C74.2665 34.9537 75.1191 34.7966 75.2064 34.7093C75.2437 34.6721 75.2175 34.6416 75.1482 34.6416C75.0666 34.6416 75.0222 34.4192 75.0222 34.0098C75.0222 33.5325 74.9622 33.2881 74.7772 33.011C74.3315 32.3439 73.5207 32.106 72.784 32.4264ZM5.42769 32.9757C5.52098 33.0691 5.59731 33.2178 5.59731 33.3063C5.59731 33.4365 5.4996 33.4532 5.08445 33.3939C4.49839 33.3102 4.35371 33.2154 4.44592 32.9753C4.53197 32.7512 5.20333 32.7515 5.42769 32.9757ZM35.721 35.9372V37.0169H36.1984H36.6757L36.7112 36.2047C36.7308 35.7579 36.7301 35.3437 36.7098 35.2842C36.6737 35.1781 36.0021 34.8575 35.8158 34.8575C35.7637 34.8575 35.721 35.3434 35.721 35.9372ZM3.7237 35.8996C3.68526 36.3539 3.65698 36.9247 3.66065 37.1682C3.66659 37.5474 3.6817 37.5754 3.76667 37.3639C3.85543 37.1426 3.91924 37.1227 4.38059 37.1723C4.6638 37.2028 5.22654 37.2573 5.63121 37.2936C6.25453 37.3495 6.3802 37.3953 6.45384 37.5931C6.51268 37.7513 6.57261 37.4258 6.63944 36.5851C6.69364 35.9022 6.708 35.3052 6.67118 35.2585C6.63447 35.2118 6.42328 35.1442 6.20184 35.1082L5.79932 35.0429L6.13684 35.3804C6.4154 35.6591 6.46842 35.7889 6.44067 36.1245L6.40709 36.5311L5.89661 36.5245C5.61577 36.5208 5.35384 36.4855 5.31432 36.4461C5.20214 36.3339 5.49323 36.0452 5.71845 36.0452C5.82999 36.0452 5.92122 36.0036 5.92122 35.9529C5.92122 35.8616 4.51642 35.6865 4.43523 35.7676C4.41212 35.7907 4.53002 35.8752 4.69705 35.9553C4.86408 36.0353 5.01719 36.1855 5.03705 36.289C5.06567 36.4376 4.99786 36.4768 4.71444 36.4756C4.01835 36.4728 3.87259 36.3841 3.94353 36.0069C4.01598 35.622 4.26474 35.2894 4.48036 35.2894C4.56026 35.2894 4.62558 35.2408 4.62558 35.1815C4.62558 35.1221 4.43836 35.0735 4.20957 35.0735H3.79345L3.7237 35.8996ZM74.9953 35.6391C74.8742 35.7608 74.6412 35.8296 74.3474 35.83C74.0951 35.8305 73.5605 35.8618 73.1598 35.8997C72.5275 35.9594 72.431 35.9449 72.431 35.7909C72.431 35.6932 72.3768 35.6133 72.3104 35.6133C72.238 35.6133 72.2159 35.7105 72.255 35.8563C72.2907 35.9899 72.3222 36.3178 72.3249 36.5851C72.3292 37.0108 72.3475 37.0477 72.4723 36.8833C72.6817 36.6076 74.905 36.4307 75.1021 36.674C75.2862 36.9012 75.3001 36.8424 75.2382 36.098C75.1867 35.4793 75.1753 35.4579 74.9953 35.6391ZM43.036 36.9804C43.1103 37.0105 43.2318 37.0105 43.306 36.9804C43.3802 36.9505 43.3195 36.926 43.171 36.926C43.0225 36.926 42.9619 36.9505 43.036 36.9804ZM75.2382 37.3833C75.2382 37.6162 74.9858 37.6648 73.7771 37.6648C72.8248 37.6648 72.6412 37.6366 72.5476 37.4758C72.4659 37.3358 72.4384 37.4962 72.4411 38.0966C72.4437 38.6892 72.4708 38.8413 72.5423 38.6635C72.627 38.4526 72.7187 38.4206 73.2373 38.4206H73.8346V38.9064V39.3923H73.2796C72.8777 39.3923 72.6851 39.3401 72.5813 39.2033C72.4564 39.0389 72.4375 39.0914 72.436 39.6082C72.4351 39.9348 72.4814 40.2749 72.5389 40.364C72.6292 40.5036 72.6438 40.5008 72.6453 40.3437C72.6467 40.1858 72.808 40.157 73.8616 40.1278C74.9034 40.0989 75.1031 40.121 75.2652 40.283C75.4452 40.463 75.4541 40.436 75.4541 39.7162C75.4541 39.2843 75.4078 38.9604 75.3462 38.9604C75.2868 38.9604 75.2382 39.0323 75.2382 39.1203C75.2382 39.3069 74.8566 39.4243 74.4145 39.3737C74.1336 39.3417 74.1014 39.2951 74.0714 38.8794L74.0381 38.4206H74.6302C75.1033 38.4206 75.2322 38.4586 75.2718 38.6095C75.2989 38.7134 75.3267 38.4463 75.3336 38.0157C75.3405 37.5851 75.3219 37.2329 75.2922 37.2329C75.2625 37.2329 75.2382 37.3006 75.2382 37.3833ZM6.32179 38.0966C6.26932 38.2975 6.17452 38.3126 4.96752 38.3126C3.82228 38.3126 3.66389 38.2903 3.62027 38.1236C3.59317 38.0198 3.56909 38.2991 3.56693 38.7445C3.56477 39.1898 3.59068 39.4814 3.62459 39.3923C3.73266 39.1084 3.89905 39.0717 5.08445 39.07L6.24513 39.0684V39.5542V40.0401H5.00887C3.94536 40.0401 3.75717 40.0137 3.66248 39.8512C3.57967 39.7091 3.5516 39.8412 3.54911 40.3846C3.54598 41.0908 3.68159 41.4383 3.79345 41.0107C3.84538 40.812 3.94277 40.7959 5.096 40.7959C6.16761 40.7959 6.35839 40.8224 6.45643 40.9849C6.53968 41.1228 6.563 40.8145 6.54281 39.8424C6.51279 38.4025 6.49357 38.4577 7.17703 38.022C7.3501 37.9117 7.30767 37.8925 6.8786 37.8871C6.46615 37.8818 6.36833 37.9186 6.32179 38.0966ZM14.5049 38.3033C13.3054 38.6039 12.6451 39.5261 12.7472 40.7578C12.8955 42.5456 15.0665 43.3518 16.5425 42.167L16.8525 41.9181L16.5917 41.6151L16.3311 41.312L15.9157 41.5938C14.8723 42.3019 13.5841 41.6989 13.5887 40.5044C13.5908 39.9658 13.7779 39.6162 14.2254 39.3146C14.6999 38.9949 15.1599 39.0033 15.7993 39.3432L16.3161 39.6179L16.571 39.3785C16.815 39.1493 16.8178 39.13 16.6372 38.9303C16.1981 38.4447 15.1593 38.1393 14.5049 38.3033ZM37.1786 38.3033C35.9792 38.6039 35.3189 39.5261 35.421 40.7578C35.5687 42.5393 37.7508 43.3551 39.2052 42.1727L39.5044 41.9296L39.2431 41.6286L38.982 41.3274L38.578 41.6016C37.8531 42.0935 36.7746 41.9081 36.4247 41.2313C36.1843 40.7665 36.2139 40.021 36.4863 39.6746C37.0538 38.9533 37.9041 38.8962 38.7663 39.5214C38.92 39.6329 38.9959 39.6123 39.2251 39.397C39.4882 39.1498 39.4918 39.1302 39.3109 38.9303C38.8718 38.4447 37.833 38.1393 37.1786 38.3033ZM50.0158 38.3251C49.4792 38.4485 48.704 39.0865 48.5015 39.5712C48.1113 40.505 48.466 41.7769 49.2713 42.3326C50.0671 42.8818 51.0936 42.8659 51.9614 42.2911L52.4692 41.9547L52.1784 41.6512L51.8877 41.3476L51.4992 41.6116C50.7932 42.0913 49.7268 41.8999 49.3811 41.2313C49.1408 40.7665 49.1704 40.021 49.4428 39.6746C50.0103 38.9533 50.8605 38.8962 51.7228 39.5214C51.8764 39.6329 51.9523 39.6123 52.1816 39.397C52.4447 39.1498 52.4482 39.1302 52.2674 38.9303C51.7994 38.4129 50.8008 38.1445 50.0158 38.3251ZM17.5221 38.451C17.4929 38.5271 17.4823 39.4868 17.4986 40.5834L17.528 42.5774L17.9285 42.6107L18.3289 42.6439L18.3604 41.7469L18.3918 40.8499L19.0396 41.7378C19.6737 42.607 19.6972 42.6259 20.1463 42.6286C20.656 42.6317 20.6963 42.564 20.4088 42.1871C20.3007 42.0454 19.9562 41.5554 19.6431 41.098L19.0738 40.2664L19.7855 39.3549C20.177 38.8536 20.4972 38.4141 20.4972 38.378C20.4972 38.3421 20.2871 38.3126 20.0302 38.3126C19.5843 38.3126 19.5367 38.3453 18.9775 39.0353L18.3918 39.7581L18.3598 39.0353L18.328 38.3126H17.9516C17.7446 38.3126 17.5514 38.3749 17.5221 38.451ZM21.253 40.472V42.6314H22.8726H24.4921V42.2535V41.8756H23.3044H22.1168V41.3396V40.8037L23.1695 40.7728L24.2222 40.7419V40.364V39.9861L23.1695 39.9552L22.1168 39.9244V39.4964V39.0684H23.2505H24.3842V38.6905V38.3126H22.8186H21.253V40.472ZM25.9025 40.337C25.4712 41.4505 25.0925 42.4253 25.0609 42.5033C25.0176 42.6105 25.1195 42.6369 25.4766 42.6113L25.9497 42.5774L26.4896 41.1468C26.7865 40.36 27.0606 39.7162 27.0989 39.7162C27.137 39.7162 27.406 40.3599 27.6967 41.1468L28.225 42.5774L28.68 42.6106C28.9301 42.6289 29.1348 42.6216 29.1348 42.5943C29.1348 42.567 28.9122 41.9691 28.6401 41.2655C28.368 40.5618 28.0002 39.6095 27.8226 39.1494L27.4996 38.3126H27.0931H26.6866L25.9025 40.337ZM30.432 38.5018C29.9753 38.7308 29.7863 39.0786 29.7843 39.6941C29.7827 40.1526 30.053 40.5801 30.4223 40.7032C30.5249 40.7374 30.4415 40.9935 30.1192 41.6345C29.8748 42.1208 29.6747 42.544 29.6747 42.575C29.6747 42.606 29.8685 42.6314 30.1054 42.6314C30.5355 42.6314 30.5365 42.6304 30.9703 41.7676C31.2092 41.2926 31.4526 40.9039 31.5114 40.9039C31.5729 40.9039 31.6182 41.2703 31.6182 41.7676V42.6314H31.9961H32.374V40.472V38.3126L31.5912 38.3128C31.0617 38.3129 30.6866 38.374 30.432 38.5018ZM40.2228 38.3817C40.1815 38.4228 40.1478 39.3959 40.1478 40.544V42.6314H40.5797H41.0116V40.9039V39.1763H41.7134H42.4152V40.9039V42.6314H42.8493H43.2835L43.2542 40.499L43.225 38.3666L41.7613 38.3367C40.9563 38.3203 40.2639 38.3404 40.2228 38.3817ZM44.7991 40.1164C44.4178 41.1137 44.0407 42.0874 43.9609 42.2805L43.8159 42.6314H44.2573C44.6697 42.6314 44.7104 42.6032 44.8795 42.2006L45.0605 41.7698L45.9059 41.7687L46.7514 41.7676L46.921 42.1995C47.0788 42.6009 47.1204 42.6314 47.5135 42.6314C48.0163 42.6314 48.0633 42.8752 47.0554 40.2561L46.3284 38.3666L45.9104 38.3349L45.4924 38.3033L44.7991 40.1164ZM55.8035 40.472V42.6445L56.2084 42.6109L56.6133 42.5774L56.6446 41.6867L56.676 40.7959H57.3194H57.9629V41.7136V42.6314H58.3948H58.8267V40.472V38.3126H58.3948H57.9629V39.1224V39.9321H57.3199H56.6768L56.645 39.1494L56.6133 38.3666L56.2084 38.3331L55.8035 38.2995V40.472ZM60.0864 38.3846C60.0468 38.4241 60.0144 39.3959 60.0144 40.544V42.6314H60.4462H60.8781V41.7136V40.7959H61.5799H62.2817V41.7136V42.6314H62.7136H63.1455V40.472V38.3126H62.7136H62.2817V39.1224V39.9321H61.5799H60.8781V39.1224V38.3126H60.5183C60.3202 38.3126 60.1259 38.345 60.0864 38.3846ZM65.2509 38.3829C64.4273 38.5728 64.1172 38.9399 64.1172 39.7251C64.1172 40.1032 64.1801 40.2359 64.5042 40.5415L64.8912 40.9065L64.4502 41.7099C64.2077 42.1517 64.0093 42.5426 64.0093 42.5785C64.0093 42.6144 64.2144 42.6289 64.4651 42.6106C64.9178 42.5776 64.9237 42.5718 65.3326 41.7406C65.559 41.2805 65.7911 40.9039 65.8484 40.9039C65.9068 40.9039 65.9527 41.2866 65.9527 41.7741V42.6445L66.3576 42.6109L66.7625 42.5774V40.472V38.3666L66.1147 38.3498C65.7584 38.3407 65.3697 38.3556 65.2509 38.3829ZM53.6441 40.526V42.6314H54.076H54.5079V40.526V38.4206H54.076H53.6441V40.526ZM31.6182 39.6082C31.6182 40.0249 31.6055 40.0401 31.2619 40.0401C30.8747 40.0401 30.6464 39.88 30.6464 39.6082C30.6464 39.3365 30.8747 39.1763 31.2619 39.1763C31.6055 39.1763 31.6182 39.1916 31.6182 39.6082ZM65.9527 39.6116C65.9527 39.8908 65.897 40.0683 65.7974 40.1065C65.5825 40.1889 65.0449 39.9145 65.0039 39.7015C64.9541 39.443 65.2754 39.1763 65.6365 39.1763C65.9338 39.1763 65.9527 39.2024 65.9527 39.6116ZM46.4101 40.8682C46.4101 40.8878 46.1915 40.9039 45.9242 40.9039C45.657 40.9039 45.4384 40.8618 45.4384 40.8103C45.4384 40.7589 45.5435 40.4638 45.672 40.1546L45.9056 39.5925L46.1579 40.2125C46.2966 40.5536 46.4101 40.8486 46.4101 40.8682ZM72.4131 41.4979C72.3933 41.884 72.4134 42.1998 72.4579 42.1997C72.5025 42.1996 72.5389 42.1266 72.5389 42.0376C72.5389 41.9212 72.6579 41.8756 72.962 41.8756C73.6386 41.8756 73.7266 41.9468 73.7266 42.4936C73.7266 42.9458 73.7093 42.9758 73.4837 42.9154C73.3501 42.8796 73.0813 42.8496 72.8864 42.8489C72.6206 42.8477 72.5076 42.7867 72.4343 42.6044C72.3512 42.3975 72.3356 42.4256 72.3297 42.7934C72.3259 43.0309 72.2526 43.5896 72.1669 44.035L72.0109 44.8448L72.6225 45.4656L73.2339 46.0864H72.8935C72.404 46.0864 72.0002 45.9062 71.9923 45.6843C71.9793 45.3211 71.8147 45.8844 71.7485 46.5183C71.7144 46.8449 71.7118 47.0271 71.7428 46.9232C71.8121 46.6901 72.0093 46.6878 73.2407 46.9059C73.8896 47.0208 74.2703 47.1443 74.3866 47.2777C74.5504 47.4655 74.5681 47.4332 74.6835 46.7342C74.8827 45.5278 74.8507 45.1653 74.5218 44.9067C74.1509 44.6148 73.8837 44.6239 73.5689 44.9387L73.313 45.1946L72.804 44.6779C72.3682 44.2355 72.3056 44.1188 72.3689 43.8668L72.4427 43.5725L73.263 43.6418C73.714 43.6799 74.2747 43.7111 74.5087 43.7111C74.8437 43.7111 74.9466 43.7572 74.9909 43.927C75.1142 44.3987 75.2375 44.101 75.2257 43.3602C75.2188 42.9296 75.1909 42.6625 75.1638 42.7664C75.1244 42.917 74.9957 42.9553 74.5285 42.9553C73.8987 42.9553 73.8862 42.94 74.01 42.321C74.0731 42.0056 74.1079 41.9836 74.5437 41.9836C74.9032 41.9836 75.0485 42.0385 75.178 42.2236C75.3399 42.4545 75.3463 42.4435 75.3477 41.9267C75.3484 41.6314 75.3768 41.2683 75.4108 41.1198L75.4725 40.8499L75.2744 41.0755C75.0906 41.2849 75.0097 41.2953 74.1585 41.2191C73.6537 41.1739 73.1072 41.1331 72.9438 41.1284C72.7557 41.1229 72.6469 41.0604 72.6469 40.9579C72.6469 40.8688 72.6024 40.7959 72.5481 40.7959C72.4938 40.7959 72.4331 41.1118 72.4131 41.4979ZM6.46107 42.5184C6.46107 42.575 5.87587 42.9712 5.16057 43.399C4.44538 43.8266 3.89872 44.2132 3.94591 44.258C3.99309 44.3028 4.56619 44.4941 5.21942 44.6829C5.87264 44.8719 6.54065 45.1206 6.70401 45.2357L7.00093 45.4451L6.99337 45.1449C6.98419 44.7811 6.80485 44.2961 6.79254 44.6019C6.78714 44.7365 6.69526 44.7908 6.47263 44.7908C6.12356 44.7908 6.02919 44.6391 6.02919 44.0779C6.02919 43.7838 6.08696 43.6801 6.30689 43.5799C6.53136 43.4777 6.60543 43.4833 6.69364 43.6093C6.77149 43.7204 6.78509 43.6411 6.74115 43.3332C6.70714 43.0957 6.67885 42.7921 6.6782 42.6584C6.67756 42.5247 6.62843 42.4155 6.56904 42.4155C6.50966 42.4155 6.46107 42.4618 6.46107 42.5184ZM5.83409 44.3083C5.86842 44.6019 5.84402 44.6762 5.72796 44.6318C5.64503 44.5999 5.4603 44.5446 5.31734 44.5087C4.98199 44.4246 4.98965 44.3429 5.35438 44.1168C5.76078 43.865 5.78345 43.8739 5.83409 44.3083ZM24.7064 44.224C24.7055 44.2685 24.6134 44.888 24.5016 45.6006C24.3899 46.3132 24.3071 46.9057 24.3175 46.9174C24.3368 46.9389 27.9748 47.083 28.9729 47.1019L29.5127 47.1122L29.6935 45.8705C29.7929 45.1876 29.878 44.5196 29.8824 44.3859L29.8906 44.143H27.2994C25.8741 44.143 24.7073 44.1794 24.7064 44.224ZM35.5917 46.4101C35.564 47.6571 35.5208 48.698 35.4955 48.7234C35.4701 48.7487 34.9435 48.6273 34.3251 48.4537C30.7598 47.4528 27.0919 47.0391 23.8485 47.2718C22.9303 47.3378 22.1617 47.4092 22.1404 47.4305C22.1192 47.4517 22.197 47.656 22.3135 47.8845C22.4299 48.1129 23.141 49.7817 23.8936 51.5929C26.1281 56.9698 27.9324 60.4071 29.3166 61.9237L29.7287 62.3754L30.9703 62.0525C32.48 61.66 34.134 61.541 35.3638 61.7365C36.1947 61.8686 38.1334 62.4443 39.0041 62.8175L39.45 63.0087L40.3658 62.6386C43.0536 61.5522 45.3902 61.3962 48.1646 62.118L49.1633 62.3777L49.6696 61.8436C51.1035 60.331 52.6833 57.2844 55.2091 51.161C55.7602 49.8249 56.3476 48.4537 56.5142 48.1139C56.6809 47.7741 56.7936 47.4725 56.7647 47.4435C56.7357 47.4146 55.9413 47.337 54.9991 47.2711C51.7091 47.041 47.4439 47.553 44.2507 48.5613C43.8647 48.6832 43.5125 48.7835 43.4679 48.7843C43.4233 48.785 43.3869 48.1858 43.3869 47.4527C43.3869 46.7195 43.3554 45.6749 43.3168 45.1313L43.2467 44.143H42.7597H42.2728L42.3405 47.0187C42.3777 48.6003 42.4279 49.9141 42.4521 49.9383C42.4763 49.9625 43.0611 49.8111 43.7517 49.6017C46.4602 48.7807 48.5152 48.3642 50.9449 48.1434C52.3358 48.0171 54.4648 48.0035 55.064 48.1171L55.4582 48.1919L54.7854 49.9194C53.0362 54.41 51.7081 57.1116 49.8296 59.9992L48.9618 61.3333L48.5766 61.2729C48.3649 61.2396 47.7543 61.1375 47.2199 61.0458C45.9828 60.8337 43.9819 60.8315 42.8771 61.0411C42.4055 61.1305 41.5893 61.3491 41.0634 61.5269C40.5376 61.7047 40.0678 61.8501 40.0196 61.8501C39.9714 61.8501 39.9319 57.866 39.9319 52.9965V44.143H39.5H39.0681V52.9965C39.0681 57.866 39.0281 61.8501 38.979 61.8501C38.93 61.8501 38.5292 61.7254 38.0883 61.573C36.0145 60.8564 33.6719 60.6904 31.403 61.0988C30.7294 61.2202 30.1187 61.2965 30.0458 61.2686C29.8392 61.1893 28.5016 59.1327 27.6423 57.5733C26.6187 55.7157 25.4614 53.2059 24.4616 50.6752C23.3717 47.9168 23.4172 48.1814 24.0188 48.0989C26.5642 47.75 32.0478 48.514 35.497 49.6982C35.938 49.8495 36.363 49.9734 36.4417 49.9734C36.5569 49.9734 36.5848 49.4062 36.5848 47.0582V44.143H36.1134H35.6419L35.5917 46.4101ZM49.5853 44.8698C49.6262 45.2717 49.7119 45.9535 49.7758 46.385L49.8919 47.1694L50.6073 47.0914C51.0008 47.0485 52.1365 47.0113 53.1311 47.0088L54.9394 47.0042L54.9304 46.6263C54.9254 46.4184 54.8647 45.7868 54.7955 45.2227L54.6698 44.197L52.0904 44.168L49.511 44.139L49.5853 44.8698ZM74.3503 45.6067C74.5084 45.7174 74.5904 45.8863 74.5904 46.1011C74.5904 46.4057 74.5687 46.4233 74.2665 46.3649C74.0883 46.3306 73.8021 46.2754 73.6303 46.2424C73.3747 46.1932 73.3283 46.1395 73.3742 45.9454C73.4884 45.4629 73.9275 45.3105 74.3503 45.6067ZM6.8908 45.6816C6.88961 45.7558 6.62713 46.0867 6.30743 46.4169C5.77093 46.9713 5.69448 47.0141 5.31097 46.9763C4.63346 46.9096 4.56825 46.8686 4.77544 46.6397C5.12267 46.256 4.72599 45.8934 4.35965 46.2597C4.00281 46.6167 4.40985 47.1661 5.03122 47.1661C5.49927 47.1661 5.81325 47.3361 5.81325 47.5896C5.81325 47.8905 4.85815 48.0225 4.65829 47.7492C4.49321 47.5234 4.48273 47.6192 4.61575 48.1379C4.66898 48.3457 4.74683 48.6615 4.78872 48.8397C4.85966 49.142 4.87067 49.1482 4.95338 48.9323C5.02539 48.744 5.25904 48.6487 6.21037 48.4197C7.29428 48.1588 7.38854 48.1515 7.51271 48.3193C7.72076 48.6002 7.72994 48.4652 7.55438 47.706C7.46509 47.32 7.37353 47.0883 7.35097 47.191C7.3257 47.3058 7.13578 47.4224 6.85841 47.4933C6.61018 47.5568 6.34641 47.629 6.27213 47.654C6.12151 47.7045 6.08231 47.4208 6.23207 47.3641C6.28422 47.3443 6.53212 47.1416 6.78272 46.9137C7.22086 46.5153 7.23576 46.4809 7.16709 46.023C7.12779 45.7609 7.05005 45.5466 6.99434 45.5466C6.93852 45.5466 6.89198 45.6074 6.8908 45.6816ZM71.5672 47.2586C71.5672 47.3879 72.2228 48.4618 72.3017 48.4618C72.3316 48.4618 72.6159 48.3389 72.9334 48.1887C73.5343 47.9044 73.708 47.6609 73.2407 47.7579C73.0923 47.7887 72.8569 47.8373 72.7177 47.8658C72.5368 47.9028 72.337 47.8082 72.0159 47.5335C71.7691 47.3222 71.5672 47.1984 71.5672 47.2586ZM71.3513 48.2422C71.3513 48.3229 71.5012 48.6226 71.6844 48.9081L72.0175 49.4273L72.6562 49.105C73.0074 48.9277 73.2947 48.7555 73.2947 48.7224C73.2947 48.6893 73.0239 48.696 72.6929 48.7374C72.1136 48.8098 72.0771 48.7991 71.7212 48.454C71.5134 48.2526 71.3513 48.1598 71.3513 48.2422ZM6.78499 49.1096C6.55188 49.3427 6.50685 49.8118 6.66471 50.3623C6.75886 50.6906 6.75195 50.6985 6.22645 50.8666C5.76823 51.0131 5.68412 51.0155 5.63337 50.8832C5.60077 50.7985 5.53523 50.7292 5.48761 50.7292C5.43989 50.7292 5.50359 51.045 5.62905 51.431C5.84651 52.0996 6.02239 52.3496 5.99022 51.9439C5.97855 51.7966 6.23596 51.6653 7.16169 51.3465C8.26645 50.9662 8.35768 50.9508 8.48433 51.1241C8.68602 51.3999 8.65244 51.2037 8.33479 50.25C8.1777 49.7783 7.93692 49.2801 7.79991 49.143C7.49327 48.8363 7.07208 48.8225 6.78499 49.1096ZM7.91576 49.8239C8.16657 50.0746 8.0734 50.2193 7.53182 50.4203C7.18415 50.5492 7.03343 50.5639 6.97555 50.4742C6.8434 50.2692 6.88216 50.0921 7.1089 49.8654C7.36997 49.6043 7.68017 49.5883 7.91576 49.8239ZM70.3981 51.6493C70.2836 51.9004 70.2906 51.9259 70.4593 51.8763C70.5639 51.8457 70.8681 51.9393 71.1353 52.0844L71.6212 52.3483L70.9194 52.34C70.5334 52.3354 70.1752 52.3355 70.1235 52.3402C70.0717 52.3449 70.2577 52.6159 70.5367 52.9425C70.8157 53.2692 71.0141 53.5364 70.9773 53.5364C70.8059 53.5364 70.0565 53.0868 69.9698 52.9319C69.8913 52.7917 69.8374 52.8448 69.694 53.2032C69.4718 53.7587 69.4714 53.7523 69.7293 53.7523C70.0525 53.7523 71.122 54.31 71.1664 54.5016C71.1915 54.6098 71.2773 54.5252 71.4064 54.2651L71.6074 53.86L71.3389 53.5633C70.757 52.9198 70.7569 52.9203 71.3979 52.9734C71.9586 53.02 71.9869 53.0093 72.1517 52.6905C72.3643 52.2794 72.3694 52.1218 72.1676 52.1992C71.9766 52.2725 70.7277 51.7252 70.6113 51.5171C70.5473 51.4027 70.4959 51.4345 70.3981 51.6493ZM54.4646 53.5232C53.4949 55.8089 52.4715 57.9742 51.815 59.1291L51.367 59.9172L51.604 61.9903C51.7343 63.1306 51.8534 64.0791 51.8687 64.0984C51.9492 64.1998 54.7985 62.4533 55.8575 61.6535C56.2138 61.3843 56.5182 61.1558 56.5338 61.1457C56.5495 61.1357 56.3413 59.2858 56.0713 57.0349C55.8014 54.7841 55.5505 52.6373 55.5141 52.2643C55.4776 51.8912 55.4185 51.5695 55.3827 51.5493C55.3469 51.5291 54.9338 52.4174 54.4646 53.5232ZM8.25209 51.7934C8.22088 51.844 8.31277 51.9388 8.45615 52.0041C9.03066 52.2658 9.2533 53.0273 8.87691 53.4435C8.57254 53.7801 7.92159 54.0762 7.48615 54.0762C6.69246 54.0762 6.30938 53.2479 6.80928 52.6124C7.03364 52.327 7.03537 52.3126 6.83627 52.3929C6.71902 52.4402 6.48947 52.5272 6.32611 52.5862C6.00792 52.7015 5.92435 52.8886 6.19115 52.8886C6.3029 52.8886 6.3531 53.0007 6.3531 53.2505C6.3531 53.9982 7.11246 54.7387 7.89125 54.7505C9.53046 54.7752 10.0733 52.6141 8.61703 51.8611C8.44751 51.7734 8.28329 51.743 8.25209 51.7934ZM23.3172 53.4014C23.1787 54.3368 22.8761 56.3607 22.645 57.899C22.4139 59.4375 22.2254 60.7736 22.2261 60.8682C22.2278 61.0682 23.5785 62.0891 24.9823 62.9515C26.0012 63.5773 27.0866 64.1566 27.1304 64.0977C27.1444 64.0789 27.2752 63.1772 27.421 62.0938L27.6863 60.1241L27.208 59.2866C26.5354 58.1087 25.1912 55.2914 24.3745 53.3474C23.9939 52.4419 23.6571 51.7009 23.6259 51.7009C23.5946 51.7009 23.4557 52.4661 23.3172 53.4014ZM69.123 54.3462C69.0203 54.6136 69.1683 54.832 69.452 54.832C69.7703 54.832 69.8783 54.6919 69.7854 54.3992C69.7037 54.1419 69.2162 54.1028 69.123 54.3462ZM9.9429 54.41C10.0367 54.6732 9.93891 54.7598 8.85186 55.3763C7.96996 55.8764 7.81405 55.932 7.62543 55.8142C7.37699 55.6591 7.37839 55.6639 7.8107 56.4458C8.05504 56.8878 8.1425 56.9778 8.1669 56.8125C8.19335 56.6328 8.87076 56.1277 9.08529 56.1277C9.11682 56.1277 9.24952 56.3004 9.37994 56.5115C9.61014 56.884 9.61122 56.8999 9.41579 57.0465C8.9892 57.3665 8.63257 57.4596 8.43823 57.3015C8.33252 57.2156 8.41102 57.4367 8.62523 57.8282C8.98693 58.4896 9.19154 58.6997 9.08789 58.3032C9.01263 58.0155 11.1428 56.7998 11.3788 56.9956C11.6337 57.2072 11.5558 56.9771 11.1578 56.3436C10.8738 55.8915 10.7842 55.8074 10.7824 55.9913C10.7806 56.1541 10.6397 56.3214 10.3502 56.5042C10.1138 56.6534 9.89442 56.7755 9.86268 56.7755C9.79639 56.7755 9.37725 56.1094 9.37671 56.003C9.37649 55.9641 9.59772 55.8025 9.86829 55.644C10.2611 55.4138 10.3916 55.3817 10.5161 55.4849C10.7481 55.6775 10.7082 55.5511 10.3366 54.9178C9.97691 54.3048 9.84465 54.1342 9.9429 54.41ZM67.885 56.2469C67.5801 56.5518 67.6457 56.8154 68.3393 58.0711C68.6509 58.6353 68.9344 59.2358 68.9692 59.4056L69.0326 59.7143L69.325 59.3034C69.4857 59.0774 69.5878 58.8656 69.5517 58.8328C69.5156 58.7998 69.4645 58.8337 69.438 58.9079C69.3412 59.1791 69.1115 59.0306 68.8311 58.5154C68.6733 58.2253 68.544 57.9581 68.544 57.9216C68.544 57.8366 69.3859 57.8378 69.7047 57.9232C69.8383 57.9591 69.9476 58.0556 69.9476 58.1378C69.9476 58.4231 70.1115 58.2755 70.4575 57.6788C70.7214 57.2235 70.7604 57.0961 70.6194 57.151C70.5172 57.1909 70.4092 57.2293 70.3795 57.2365C70.1295 57.2973 68.041 57.0515 67.9788 56.954C67.8126 56.6932 67.8909 56.5542 68.1652 56.6229C68.483 56.7027 68.6462 56.4348 68.4349 56.1803C68.2564 55.9652 68.1543 55.9776 67.885 56.2469ZM11.6783 57.4659C11.7485 57.6489 11.5079 57.873 10.4633 58.5979C9.91893 58.9756 9.62547 59.1193 9.55097 59.0448C9.49051 58.9843 9.39808 58.9349 9.3455 58.9349C9.24077 58.9349 9.8968 59.8864 10.3396 60.3767C10.6934 60.7683 10.9749 60.8744 11.3313 60.7502C11.6539 60.6377 11.8972 60.1951 11.8017 59.8942C11.7429 59.7089 11.8006 59.6907 12.4462 59.6907C13.0155 59.6907 13.1985 59.734 13.3751 59.9105C13.4961 60.0316 13.5663 60.1769 13.5312 60.2338C13.496 60.2906 13.0761 60.6817 12.5979 61.1031C11.9745 61.6525 11.6689 61.8537 11.518 61.8141C11.278 61.7514 11.3114 61.8079 11.9407 62.5285C12.2473 62.8797 12.2881 62.9002 12.2317 62.6752C12.1956 62.5313 12.2114 62.3854 12.2669 62.3512C12.4135 62.2606 13.9186 62.0376 13.9786 62.0976C14.0066 62.1255 13.7559 62.3821 13.4217 62.6676C12.8943 63.1182 12.7865 63.1697 12.6066 63.0574C12.2582 62.8397 12.3798 63.0627 12.9493 63.6856C13.2479 64.0122 13.4409 64.1736 13.3781 64.0442C13.2751 63.8321 13.3553 63.7277 14.1934 62.9821C14.8469 62.4005 15.1831 62.1709 15.3263 62.2083C15.5754 62.2734 15.5173 62.1631 14.9685 61.529C14.5714 61.07 14.5686 61.0688 14.5906 61.3737C14.6121 61.67 14.5878 61.6858 13.911 61.8145C12.7381 62.0376 12.7071 62.0146 13.3712 61.4153C13.8345 60.9971 14.0215 60.8923 14.222 60.9384C14.4436 60.9894 14.403 60.9068 13.9268 60.3368C13.6232 59.9735 13.2906 59.5336 13.1877 59.3594C13.0063 59.0525 12.9752 59.0429 12.1602 59.0429C11.698 59.0429 11.3197 59.0009 11.3197 58.9496C11.3197 58.8983 11.5137 58.7219 11.7506 58.5576C12.1055 58.3117 12.2103 58.2829 12.3445 58.3943C12.6093 58.6141 12.5329 58.431 12.1194 57.8554C11.7368 57.323 11.5654 57.1715 11.6783 57.4659ZM66.2283 58.5401L65.9531 58.9009L66.2748 59.4848C66.7241 60.2999 66.6882 60.415 66.1135 60.0022C65.7269 59.7245 65.6403 59.6063 65.6937 59.4286C65.7719 59.1689 65.7057 59.2298 65.2162 59.8682C64.8532 60.3415 64.7675 60.5604 65.031 60.3419C65.1587 60.2358 65.2718 60.2694 65.6225 60.5175C65.861 60.6863 66.0571 60.8651 66.0584 60.9149C66.0596 60.9646 65.8542 60.9673 65.6018 60.9209C64.7534 60.765 64.5448 60.8007 64.275 61.1483L64.0236 61.4722H64.9915H65.9594L66.226 61.8748C66.556 62.373 66.5611 62.5027 66.2497 62.4696C66.0556 62.4491 66.0067 62.4982 66.0067 62.7139C66.0067 63.0939 66.419 63.1425 66.6501 62.7896C66.842 62.4969 66.8016 62.3218 66.4019 61.7108C66.211 61.4189 66.1675 61.2682 66.2503 61.1854C66.4246 61.0112 67.172 61.6093 67.1042 61.8688C67.0166 62.2038 67.185 62.0891 67.6033 61.529C68.0544 60.9248 68.0939 60.8205 67.803 61.0022C67.6362 61.1063 67.5347 61.0766 67.2092 60.8283C66.6012 60.3646 66.7544 60.1472 67.5049 60.4087C68.0629 60.603 68.2602 60.5926 68.4733 60.357C68.6971 60.1096 68.7012 59.866 68.4846 59.6862C68.3465 59.5716 68.2867 59.5778 68.143 59.7216C68.0043 59.8603 67.9954 59.9279 68.0996 60.0536C68.175 60.1444 68.1883 60.2374 68.1308 60.273C67.9695 60.3726 67.0324 60.008 67.0324 59.8456C67.0324 59.7638 66.9095 59.4187 66.7591 59.0787C66.6088 58.7388 66.5101 58.3973 66.5398 58.3199C66.6313 58.0813 66.5161 58.1627 66.2283 58.5401ZM11.3197 59.5898C11.3197 59.9007 10.9922 60.2305 10.6834 60.2305C10.5128 60.2305 10.1321 59.9249 10.1321 59.7879C10.1321 59.7409 10.3385 59.5589 10.5909 59.3833C11.1083 59.0234 11.3197 59.0834 11.3197 59.5898ZM63.0874 62.5051C62.6276 62.9747 62.5901 63.0427 62.8231 62.9857C63.0591 62.9279 63.1994 63.0346 63.8964 63.8028L64.6982 64.6865L64.3413 65.0055C64.0355 65.2787 63.9279 65.3143 63.5919 65.2534L63.1995 65.1824L63.4864 65.4742L63.7733 65.7661L64.0802 65.5439C64.5473 65.2058 65.7102 63.9878 65.4848 64.0729C65.3342 64.1297 65.1059 63.9693 64.5324 63.4037C63.6384 62.5221 63.5123 62.3286 63.6911 62.1131C63.7619 62.0278 63.7755 61.9581 63.7215 61.9581C63.6674 61.9581 63.3822 62.2042 63.0874 62.5051ZM32.5899 62.136C31.7796 62.2577 30.9817 62.415 30.6599 62.5166L30.2955 62.6316L30.9838 62.9959C31.3624 63.1963 31.8035 63.5046 31.9642 63.6812L32.2563 64.0021L32.828 63.7409C33.7445 63.3224 34.6045 63.1456 35.7167 63.1474C36.7947 63.149 37.9096 63.3533 38.4009 63.6389C38.5681 63.7363 38.5991 63.7783 38.4743 63.7387C37.1775 63.3269 35.6443 63.2429 34.472 63.5194C33.6665 63.7093 32.5899 64.1053 32.5899 64.2115C32.5899 64.2547 32.76 64.3515 32.9678 64.4267C33.1757 64.5018 33.4891 64.684 33.6643 64.8314L33.9828 65.0993L34.406 64.8194C35.905 63.8272 37.7275 63.7856 39.8311 64.6951C40.3022 64.8987 40.6877 65.0267 40.6877 64.9794C40.6877 64.9322 40.3397 64.5714 39.9145 64.1776C38.4055 62.7805 36.3541 62.0545 33.9935 62.0821C33.37 62.0895 32.7384 62.1136 32.5899 62.136ZM43.009 62.3471C41.5824 62.6642 39.7487 63.5243 39.8554 63.8264C39.9134 63.9902 40.0274 63.9706 40.9849 63.6327C42.7845 62.9975 44.8938 63.0795 46.4024 63.8434L46.896 64.0934L47.3629 63.6787C47.6198 63.4505 48.0699 63.1554 48.3633 63.023C48.6566 62.8904 48.8595 62.746 48.8141 62.7023C48.389 62.2931 44.3611 62.0466 43.009 62.3471ZM16.2281 63.0648C16.2703 63.2553 16.0988 63.5031 15.4331 64.2141L14.5843 65.1204L14.3943 64.8305C14.2409 64.5962 14.2276 64.4894 14.3253 64.275C14.4823 63.9304 14.3412 63.9364 14.0108 64.2885L13.7491 64.5674L14.7208 65.4667L15.6925 66.3659L15.9355 66.1406C16.0691 66.0167 16.1784 65.8767 16.1784 65.8297C16.1784 65.7826 16.0691 65.7844 15.9355 65.8339C15.6661 65.9335 15.2067 65.7748 15.2067 65.5822C15.2067 65.5161 15.5912 65.0798 16.061 64.6126C16.7172 63.9604 16.9615 63.7807 17.1138 63.8384C17.2228 63.8796 17.071 63.6678 16.7763 63.3676C16.4816 63.0675 16.2256 62.8218 16.2074 62.8218C16.1892 62.8218 16.1985 62.9312 16.2281 63.0648ZM41.4435 63.5933C40.6761 63.8047 40.1417 64.0449 40.1814 64.1605C40.2251 64.2873 40.3635 64.288 41.7134 64.1677C42.7746 64.0731 43.6953 64.28 44.5953 64.8151C45.1104 65.1213 45.2302 65.156 45.3353 65.0294C45.4043 64.9462 45.7322 64.7454 46.0639 64.583L46.6672 64.2879L46.2128 64.0898C45.2725 63.6798 44.1524 63.4693 42.9648 63.4794C42.3359 63.4848 41.6513 63.5359 41.4435 63.5933ZM39.0134 63.9003C39.0512 63.9615 39.0079 63.9796 38.9118 63.9428C38.7248 63.871 38.6905 63.7936 38.8458 63.7936C38.9017 63.7936 38.9771 63.8416 39.0134 63.9003ZM60.4723 64.7647C60.025 65.0375 59.6914 65.5814 59.6909 66.0393C59.6896 67.2007 61.0272 67.9711 61.9479 67.3392C62.4903 66.9669 62.7431 66.5707 62.7431 66.0926C62.7431 64.8903 61.4788 64.151 60.4723 64.7647ZM17.6978 64.9179C17.5724 65.0689 17.5923 65.0822 17.8658 65.031C18.2642 64.9563 18.8472 65.3083 18.9405 65.6797C19.0512 66.121 18.8934 66.5054 18.3985 67.0004C17.8355 67.5634 17.4034 67.6197 16.9702 67.1864C16.7376 66.9538 16.7013 66.8389 16.7488 66.4846C16.7801 66.2516 16.7837 66.0609 16.7568 66.0609C16.6822 66.0609 16.1857 66.6436 16.1819 66.7357C16.1799 66.7803 16.2392 66.8174 16.3134 66.818C16.3877 66.8188 16.5531 66.9812 16.681 67.1787C16.993 67.6608 17.5905 67.9357 18.1813 67.8691C18.8071 67.7986 19.2547 67.4533 19.4778 66.8693C19.6528 66.411 19.6527 66.3583 19.475 65.8931C19.1819 65.1256 18.0437 64.5011 17.6978 64.9179ZM38.2313 65.0329C37.7679 65.3695 37.929 65.9595 38.6004 66.3854L39.0715 66.6841L38.665 66.7595C37.5166 66.9726 37.6432 67.8884 38.9086 68.5221C40.1183 69.1278 41.5527 68.7969 41.239 67.9844C41.1244 67.6876 40.7576 67.3403 40.3098 67.1041L39.9859 66.9333L40.3422 66.929C41.6523 66.9131 41.6572 65.8574 40.3504 65.1901C39.7225 64.8696 38.5737 64.7844 38.2313 65.0329ZM61.2558 65.0891C61.635 65.3234 62.1251 65.9911 62.2327 66.42C62.3137 66.7427 62.1417 67.102 61.8642 67.1901C61.5214 67.2988 61.126 67.0668 60.6688 66.4883C60.1501 65.8321 60.0792 65.3153 60.4703 65.0414C60.7779 64.8259 60.8355 64.8293 61.2558 65.0891ZM58.2564 66.5382C57.6131 66.9835 57.5204 67.0793 57.8227 66.9865C58.0179 66.9265 58.1127 66.9924 58.3527 67.3552L58.645 67.7969L58.304 68.1486C57.9218 68.5431 57.8476 69.0613 58.1325 69.3464C58.4299 69.6436 58.9475 69.5496 59.7234 69.0573C60.448 68.5976 60.6256 68.4096 60.2399 68.5105C60.0765 68.5532 59.8937 68.3565 59.3613 67.5647C58.7941 66.7212 58.7085 66.534 58.8128 66.3669C58.9885 66.0855 58.8477 66.1288 58.2564 66.5382ZM20.3924 66.5656C20.501 66.7396 20.4211 66.923 19.8429 67.8267C19.3149 68.6518 19.1228 68.8727 18.968 68.8323C18.6406 68.7466 18.7387 68.851 19.3583 69.2473C19.9524 69.6274 20.2175 69.7329 19.979 69.4944C19.7205 69.2359 19.8645 69.0718 20.6727 68.7035C21.1255 68.4972 21.5133 68.3283 21.5347 68.3283C21.5561 68.3283 21.3591 68.6563 21.0972 69.0571C20.7127 69.6455 20.5727 69.7807 20.3701 69.7591C20.1979 69.7407 20.3224 69.8639 20.7671 70.152C21.4051 70.5654 21.6158 70.6328 21.3792 70.3478C21.2863 70.2357 21.4098 69.9623 21.9208 69.1501C22.509 68.2148 22.6111 68.1046 22.8356 68.1609C22.9747 68.1959 23.0885 68.2029 23.0885 68.1767C23.0885 68.1003 21.865 67.3564 21.7422 67.3582C21.681 67.3592 21.6964 67.4014 21.7765 67.4521C22.0653 67.6351 21.8325 67.9021 21.0641 68.2696C20.6335 68.4754 20.2813 68.6126 20.2813 68.5746C20.2813 68.5365 20.4821 68.197 20.7276 67.8203C21.0974 67.2527 21.2131 67.1461 21.4024 67.1987C21.6083 67.2558 21.6042 67.2406 21.361 67.0448C21.2125 66.9252 20.9052 66.7228 20.6781 66.5947C20.2993 66.3812 20.2757 66.3788 20.3924 66.5656ZM59.1287 68.4759C59.4878 68.9759 59.48 69.0841 59.0847 69.0841C58.8262 69.0841 58.5028 68.7227 58.5028 68.4338C58.5028 68.3021 58.6922 68.0044 58.776 68.0044C58.7837 68.0044 58.9424 68.2166 59.1287 68.4759ZM55.1911 68.3216C54.6631 68.5613 54.4022 68.9141 54.3244 69.4932C54.1902 70.4945 55.172 71.3928 56.1213 71.1371C57.5644 70.7486 57.8244 68.9846 56.5366 68.3193C56.0375 68.0614 55.7631 68.0619 55.1911 68.3216ZM52.9963 68.7758C52.9963 69.241 52.7844 69.4531 52.0355 69.7376C51.3309 70.0054 51.0434 70.0025 50.6895 69.724C50.3581 69.4634 50.3532 69.4737 50.5651 69.9809C50.6656 70.2212 50.8109 70.3773 50.9545 70.399C51.136 70.4265 51.2693 70.6586 51.5945 71.5134C51.9727 72.5072 51.9918 72.6084 51.8343 72.7843C51.6926 72.9426 51.7917 72.9272 52.4107 72.6948C52.8218 72.5405 53.3526 72.3249 53.5901 72.2159C53.9825 72.0357 53.996 72.0167 53.7382 72.0084C53.4377 71.9987 53.3339 71.8276 53.1105 70.9736C52.9389 70.3175 52.9729 69.8988 53.2236 69.5801C53.426 69.3227 53.4358 69.2535 53.3142 68.9447C53.1036 68.4104 52.9963 68.3534 52.9963 68.7758ZM55.9644 68.6707C56.2922 68.9285 56.7726 69.8622 56.7742 70.2448C56.7754 70.5162 56.426 70.9196 56.1897 70.9196C55.9281 70.9196 55.3508 70.3564 55.1427 69.8983C54.6526 68.8194 55.1703 68.046 55.9644 68.6707ZM24.1802 68.8472C24.2762 69.0009 24.2543 69.1357 24.0771 69.483L23.8521 69.9239L23.367 69.7494C22.901 69.5819 22.8698 69.5839 22.5802 69.7991C22.203 70.0795 22.12 70.6246 22.4061 70.9416C22.5785 71.1325 23.9472 71.8913 24.1192 71.8913C24.1546 71.8913 24.1073 71.815 24.0139 71.7217C23.8597 71.5674 23.8958 71.4521 24.4111 70.453C24.8197 69.661 25.0308 69.3582 25.1669 69.369C25.5124 69.3964 25.3627 69.2403 24.7597 68.9446C24.0542 68.5987 24.0215 68.5932 24.1802 68.8472ZM38.3123 68.9463C37.1884 69.5166 38.6072 70.9386 40.3254 70.9639C41.1072 70.9753 41.4435 70.7579 41.4435 70.2408C41.4435 69.878 40.8411 69.224 40.4373 69.1482C40.0254 69.0709 39.1299 68.8755 38.9062 68.8139C38.7874 68.7813 38.5202 68.8408 38.3123 68.9463ZM25.5424 69.5308C25.6604 69.6762 26.0039 71.0577 26.0036 71.3855C26.0035 71.5551 25.015 72.1051 24.6922 72.1152C24.4835 72.1218 24.5153 72.159 24.87 72.3232C25.1076 72.4331 25.3748 72.5229 25.4639 72.5226C25.5723 72.5223 25.5812 72.5041 25.4908 72.4677C25.2542 72.3721 25.3451 72.1353 25.7061 71.9067C26.0917 71.6625 26.093 71.6635 26.2578 72.3426C26.3168 72.586 26.2893 72.6378 26.0849 72.6686C25.9059 72.6955 26.0269 72.7784 26.5436 72.9829C27.2743 73.2723 27.4018 73.2856 27.2246 73.0546C27.1665 72.9789 27.059 72.6255 26.9856 72.2692C26.9122 71.9129 26.8309 71.5455 26.805 71.4527C26.7717 71.3335 26.9474 71.1934 27.4026 70.9758C27.7573 70.8063 28.122 70.6677 28.2132 70.6677C28.5374 70.6677 28.3716 70.5054 27.874 70.3359C27.2556 70.1253 27.2014 70.1223 27.4636 70.3141C27.6316 70.437 27.6445 70.4939 27.5346 70.6263C27.3938 70.7961 26.7803 71.0868 26.7144 71.0151C26.6934 70.9923 26.6421 70.767 26.6004 70.5147C26.5348 70.1177 26.5506 70.0558 26.7176 70.0558C27.0805 70.0558 26.8011 69.9032 25.5718 69.4299C25.4395 69.379 25.4341 69.3974 25.5424 69.5308ZM52.801 70.1908C52.7813 70.4498 52.8625 70.9552 52.9875 71.3515C53.1938 72.0048 53.1966 72.0626 53.028 72.1882C52.9285 72.2625 52.7955 72.3232 52.7325 72.3232C52.6129 72.3232 51.7392 70.1973 51.824 70.1125C51.9014 70.0351 52.6076 69.7408 52.7271 69.7361C52.789 69.7337 52.8208 69.9298 52.801 70.1908ZM23.6595 70.123C23.6964 70.1599 23.6046 70.4308 23.4556 70.725C23.2312 71.1678 23.1576 71.2377 23.0285 71.1306C22.8247 70.9615 22.83 70.5964 23.0407 70.2958C23.2008 70.0671 23.5157 69.9792 23.6595 70.123ZM38.2376 71.0286C37.8695 71.1769 37.6397 71.597 37.7588 71.9037C38.1508 72.9136 40.3965 73.6624 41.3085 73.0874C41.7189 72.8287 41.7546 72.5567 41.4441 72.0544C41.1819 71.6299 40.5576 71.3105 39.554 71.0872C38.7069 70.8988 38.5747 70.8928 38.2376 71.0286Z" fill="#FDFDFF" />
  </symbol>
</defs>
</svg>