<svg aria-hidden="true" style="position: absolute; width: 0; height: 0; overflow: hidden;" version="1.1" xmlns="http://www.w3.org/2000/svg" xmlns:xlink="http://www.w3.org/1999/xlink">
<defs>
<symbol id="icon-arrow-left" viewBox="0 0 32 32">
<path stroke-linejoin="round" stroke-linecap="round" stroke-miterlimit="4" stroke-width="2" d="M20 26l-10-10 10-10"></path>
</symbol>
<symbol id="icon-arrow-right" viewBox="0 0 32 32">
<path stroke-linejoin="round" stroke-linecap="round" stroke-miterlimit="4" stroke-width="2" d="M12 6l10 10-10 10"></path>
</symbol>
<symbol id="icon-facebook" viewBox="0 0 32 32">
<path d="M16 8.032c-4.4 0-8 3.592-8 8.016 0 4 2.928 7.32 6.752 7.92v-5.6h-2.032v-2.32h2.032v-1.768c0-2.008 1.192-3.112 3.024-3.112 0.872 0 1.784 0.152 1.784 0.152v1.976h-1.008c-0.992 0-1.304 0.616-1.304 1.248v1.504h2.224l-0.36 2.32h-1.864v5.6c1.885-0.298 3.602-1.26 4.84-2.712s1.916-3.3 1.912-5.208c0-4.424-3.6-8.016-8-8.016z"></path>
</symbol>
<symbol id="icon-instagram" viewBox="0 0 32 32">
<path d="M12.64 8h6.72c2.56 0 4.64 2.080 4.64 4.64v6.72c0 1.231-0.489 2.411-1.359 3.281s-2.050 1.359-3.281 1.359h-6.72c-2.56 0-4.64-2.080-4.64-4.64v-6.72c0-1.231 0.489-2.411 1.359-3.281s2.050-1.359 3.281-1.359zM12.48 9.6c-0.764 0-1.496 0.303-2.036 0.844s-0.844 1.273-0.844 2.036v7.040c0 1.592 1.288 2.88 2.88 2.88h7.040c0.764 0 1.496-0.303 2.036-0.844s0.844-1.273 0.844-2.036v-7.040c0-1.592-1.288-2.88-2.88-2.88h-7.040zM20.2 10.8c0.265 0 0.52 0.105 0.707 0.293s0.293 0.442 0.293 0.707c0 0.265-0.105 0.52-0.293 0.707s-0.442 0.293-0.707 0.293c-0.265 0-0.52-0.105-0.707-0.293s-0.293-0.442-0.293-0.707c0-0.265 0.105-0.52 0.293-0.707s0.442-0.293 0.707-0.293zM16 12c1.061 0 2.078 0.421 2.828 1.172s1.172 1.768 1.172 2.828-0.421 2.078-1.172 2.828c-0.75 0.75-1.768 1.172-2.828 1.172s-2.078-0.421-2.828-1.172c-0.75-0.75-1.172-1.768-1.172-2.828s0.421-2.078 1.172-2.828c0.75-0.75 1.768-1.172 2.828-1.172zM16 13.6c-0.636 0-1.247 0.253-1.697 0.703s-0.703 1.061-0.703 1.697c0 0.636 0.253 1.247 0.703 1.697s1.061 0.703 1.697 0.703c0.636 0 1.247-0.253 1.697-0.703s0.703-1.061 0.703-1.697c0-0.636-0.253-1.247-0.703-1.697s-1.061-0.703-1.697-0.703z"></path>
</symbol>
<symbol id="icon-youtube" viewBox="0 0 32 32">
<path d="M14.4 18.4l4.152-2.4-4.152-2.4v4.8zM23.648 12.136c0.104 0.376 0.176 0.88 0.224 1.52 0.056 0.64 0.080 1.192 0.080 1.672l0.048 0.672c0 1.752-0.128 3.040-0.352 3.864-0.2 0.72-0.664 1.184-1.384 1.384-0.376 0.104-1.064 0.176-2.12 0.224-1.040 0.056-1.992 0.080-2.872 0.080l-1.272 0.048c-3.352 0-5.44-0.128-6.264-0.352-0.72-0.2-1.184-0.664-1.384-1.384-0.104-0.376-0.176-0.88-0.224-1.52-0.056-0.64-0.080-1.192-0.080-1.672l-0.048-0.672c0-1.752 0.128-3.040 0.352-3.864 0.2-0.72 0.664-1.184 1.384-1.384 0.376-0.104 1.064-0.176 2.12-0.224 1.040-0.056 1.992-0.080 2.872-0.080l1.272-0.048c3.352 0 5.44 0.128 6.264 0.352 0.72 0.2 1.184 0.664 1.384 1.384z"></path>
</symbol>
</defs>
</svg>
