<?xml version="1.0" standalone="no"?>
<!DOCTYPE svg PUBLIC "-//W3C//DTD SVG 20010904//EN"
 "http://www.w3.org/TR/2001/REC-SVG-20010904/DTD/svg10.dtd">
<svg version="1.0" xmlns="http://www.w3.org/2000/svg"
 width="700.000000pt" height="700.000000pt" viewBox="0 0 700.000000 700.000000"
 preserveAspectRatio="xMidYMid meet">
<metadata>
Created by potrace 1.14, written by Peter Selinger 2001-2017
</metadata>
<g transform="translate(0.000000,700.000000) scale(0.100000,-0.100000)"
fill="#000000" stroke="none">
<path d="M0 3500 l0 -3500 3500 0 3500 0 0 3500 0 3500 -3500 0 -3500 0 0
-3500z m3772 2094 c843 -116 1529 -710 1758 -1521 46 -163 69 -316 76 -507 9
-249 -24 -487 -100 -718 -219 -669 -777 -1202 -1448 -1383 -199 -54 -316 -68
-558 -69 -240 0 -323 9 -521 59 -694 176 -1258 702 -1482 1383 -378 1145 272
2366 1437 2697 81 23 267 59 356 68 99 11 379 6 482 -9z"/>
<path d="M3295 5539 c-889 -91 -1623 -753 -1800 -1624 -73 -354 -49 -736 65
-1070 338 -987 1358 -1565 2373 -1344 205 45 462 148 642 259 441 271 775 723
905 1226 51 198 63 312 57 564 -6 280 -32 430 -114 650 -107 290 -261 529
-477 746 -288 288 -637 477 -1034 559 -186 39 -434 53 -617 34z m260 -189 c0
-79 0 -80 -25 -80 -24 0 -26 3 -22 36 4 34 3 35 -24 32 -25 -3 -29 -7 -26 -32
3 -28 -10 -46 -35 -46 -8 0 -11 9 -7 28 3 15 1 51 -4 80 l-9 52 28 0 c26 0 27
-2 22 -35 -5 -33 -4 -35 21 -35 23 0 26 4 26 34 0 30 4 35 28 39 15 2 27 5 27
6 0 0 0 -35 0 -79z m175 45 c0 -17 -16 -20 -25 -5 -3 6 -17 10 -29 10 -21 0
-24 -6 -30 -60 -4 -33 -4 -65 -1 -70 4 -6 -7 -10 -25 -10 -24 0 -31 4 -27 14
3 8 9 42 13 75 l7 61 58 0 c46 0 59 -3 59 -15z m-394 -57 c51 -82 50 -78 15
-78 -20 0 -31 5 -31 14 0 20 -16 29 -41 21 -14 -5 -19 -13 -16 -25 3 -12 -2
-20 -15 -23 -12 -4 -17 -1 -14 6 2 7 14 42 26 80 11 37 25 67 29 67 4 0 26
-28 47 -62z m537 45 c4 -2 7 -11 7 -20 0 -15 -2 -14 -18 0 -28 25 -52 22 -52
-8 0 -26 15 -34 23 -12 3 6 6 1 6 -13 0 -14 -4 -32 -9 -40 -8 -13 -10 -12 -10
3 0 9 -4 17 -9 17 -12 0 -24 -37 -16 -50 9 -14 48 -13 63 2 9 9 12 8 12 -4 0
-26 -16 -30 -79 -17 -58 11 -59 12 -46 33 7 11 16 45 20 74 l7 54 47 -7 c25
-4 49 -9 54 -12z m-683 -7 c6 -8 10 -23 8 -34 -2 -10 3 -26 10 -35 29 -35 -1
-67 -74 -80 l-31 -6 -7 64 c-4 36 -9 71 -12 79 -4 10 3 16 23 19 55 8 71 7 83
-7z m-150 -37 c0 -18 -3 -19 -14 -9 -8 6 -25 10 -38 8 -18 -2 -24 -10 -26 -34
-3 -29 -1 -31 25 -28 26 4 26 4 6 -5 -25 -11 -29 -31 -11 -49 13 -13 49 -16
64 -4 5 4 1 -1 -9 -10 -44 -41 -117 0 -117 64 0 41 8 53 45 72 44 23 75 21 75
-5z m981 9 c44 -13 43 -10 24 -63 -8 -22 -14 -54 -15 -72 0 -31 -1 -32 -29
-22 l-29 10 19 50 c11 27 19 58 19 69 0 30 -28 24 -35 -8 -9 -44 -43 -92 -64
-92 -23 0 -35 15 -25 32 5 8 11 6 19 -5 11 -16 13 -15 27 1 20 22 41 89 33
102 -8 13 9 13 56 -2z m114 -38 c20 -8 24 -14 17 -23 -5 -6 -18 -38 -28 -69
-17 -57 -26 -66 -52 -50 -10 7 -8 18 8 54 11 25 21 58 22 72 1 14 3 26 5 26 1
0 14 -5 28 -10z m-1319 -63 c55 -48 18 -137 -57 -137 -70 0 -104 88 -53 135
34 31 75 32 110 2z m1472 3 l42 -19 -25 -37 c-13 -20 -27 -51 -31 -70 -7 -39
-5 -38 -38 -23 l-25 12 20 25 c27 34 16 40 -30 14 -31 -18 -41 -19 -55 -9 -15
11 -13 14 19 31 29 16 34 23 29 43 -7 26 11 53 35 53 9 0 35 -9 59 -20z m-751
-39 c78 -116 122 -382 144 -889 10 -225 10 -265 -2 -273 -41 -26 -41 -24 -59
331 -20 392 -55 655 -101 760 -23 52 -28 48 -59 -45 -39 -119 -73 -397 -86
-717 l-7 -168 -30 0 -30 0 5 178 c3 97 3 151 1 120 -2 -32 -7 -58 -10 -58 -3
0 -35 16 -70 35 -34 20 -63 35 -64 33 0 -2 -15 -99 -32 -216 l-32 -213 -65
-23 c-69 -24 -120 -52 -120 -67 0 -5 34 -36 75 -70 84 -69 81 -59 61 -199
l-11 -85 -138 -3 c-75 -1 -137 1 -137 5 0 13 179 1195 185 1225 6 26 7 26 118
33 62 4 130 5 151 3 39 -3 40 -3 53 -63 7 -33 21 -67 31 -75 16 -13 18 -28 16
-105 -3 -84 -2 -82 11 40 31 299 72 458 135 523 27 28 38 25 67 -17z m-894
-14 c4 -10 -1 -13 -17 -10 -13 3 -28 -2 -36 -12 -11 -13 -10 -22 10 -58 13
-23 29 -49 37 -58 11 -14 10 -17 -12 -27 -14 -6 -25 -8 -25 -4 0 5 -16 34 -35
67 -20 32 -33 60 -30 63 12 13 81 51 91 52 7 0 14 -6 17 -13z m1769 -100 c-12
-13 -22 -33 -22 -46 0 -12 -4 -19 -10 -16 -5 3 -10 20 -10 36 0 21 6 32 23 39
37 15 42 11 19 -13z m-1906 -6 c57 -35 51 -110 -10 -140 -36 -17 -71 -6 -99
30 -27 37 -16 84 26 110 39 23 44 24 83 0z m874 -20 c0 -36 -12 -51 -41 -51
-51 0 -224 -38 -320 -70 -225 -75 -424 -198 -589 -361 -115 -115 -185 -204
-259 -334 -221 -386 -258 -887 -96 -1307 80 -206 197 -380 372 -548 175 -169
367 -284 593 -354 114 -35 264 -66 324 -66 17 0 42 -7 54 -16 22 -15 22 -17 5
-30 -41 -31 -237 -3 -429 61 -432 144 -794 482 -965 900 -140 345 -156 740
-44 1095 60 190 184 406 318 557 256 289 584 468 966 528 115 18 111 18 111
-4z m435 -12 c309 -62 572 -205 806 -438 238 -239 383 -514 445 -846 25 -132
26 -410 1 -540 -46 -251 -146 -484 -295 -685 -75 -102 -249 -272 -355 -347
-220 -155 -510 -264 -746 -280 l-95 -6 22 30 c18 26 30 31 79 37 238 28 482
120 688 260 117 79 312 274 391 391 119 175 201 370 243 582 30 143 30 418 1
568 -39 200 -121 399 -237 573 -63 95 -222 266 -321 344 -198 158 -472 276
-721 310 -88 12 -111 24 -111 61 0 17 5 18 53 12 28 -4 97 -16 152 -26z m637
8 c-12 -13 -22 -32 -23 -43 0 -13 -4 -11 -11 10 -9 25 -8 31 8 43 10 7 24 13
33 13 11 0 9 -6 -7 -23z m141 12 c12 -7 30 -21 41 -31 17 -18 17 -21 2 -36
-15 -15 -16 -14 -16 11 0 40 -35 55 -69 30 -39 -30 -53 -63 -37 -88 7 -11 24
-23 37 -26 l24 -7 -26 -1 c-65 -3 -96 92 -45 136 30 25 56 29 89 12z m-2263
-79 c0 -6 20 -33 45 -59 l45 -48 -25 -17 c-20 -13 -25 -14 -25 -3 0 8 -8 21
-17 30 -16 14 -20 14 -38 1 -20 -15 -20 -16 9 -41 l30 -25 -25 -19 c-17 -13
-25 -14 -28 -6 -9 26 -74 97 -90 97 -11 1 -8 8 14 27 29 26 30 26 33 5 5 -35
26 -45 52 -24 l23 18 -28 22 c-23 18 -25 24 -15 37 14 17 40 20 40 5z m2385
-10 c17 -18 16 -20 -11 -44 -28 -24 -28 -25 -7 -26 12 0 32 4 46 9 30 12 52
-1 43 -25 -6 -16 -7 -16 -19 0 -27 36 -67 -9 -67 -75 0 -27 -2 -29 -20 -19
-17 9 -19 17 -14 52 6 32 4 40 -7 36 -7 -2 -16 -14 -19 -26 l-5 -22 -30 25
c-21 17 -25 24 -14 25 17 0 89 80 89 99 0 17 15 13 35 -9z m180 -197 c-6 -15
-9 -13 -17 15 -9 33 -25 41 -46 20 -17 -17 -15 -39 3 -32 21 9 19 1 -9 -25
-24 -23 -25 -23 -19 -2 7 26 -8 27 -31 3 -15 -18 -15 -20 1 -34 10 -9 27 -18
38 -20 19 -5 19 -5 2 -13 -14 -6 -29 3 -63 36 -38 37 -42 44 -27 50 10 4 36
27 58 51 l40 45 39 -38 c29 -28 37 -42 31 -56z m-2687 49 c3 -17 8 -21 21 -17
24 7 45 -19 38 -48 -8 -28 -77 -97 -77 -76 0 18 -44 62 -83 82 l-27 14 41 37
c46 42 82 45 87 8z m1309 -410 l3 -367 -20 24 c-19 22 -20 38 -20 355 0 338 3
387 24 366 8 -8 12 -124 13 -378z m-1414 297 c44 -20 59 -77 31 -117 -24 -35
-59 -44 -98 -28 -45 19 -63 63 -42 104 26 50 61 63 109 41z m2926 -69 c0 -3
-24 -22 -54 -43 -30 -21 -55 -44 -55 -51 0 -8 14 -16 31 -20 49 -10 59 -7 59
14 0 26 34 44 59 30 18 -9 67 -78 60 -84 -2 -1 -22 -13 -44 -26 -22 -13 -49
-32 -61 -42 -21 -19 -21 -18 -37 5 -14 22 -14 24 16 36 l32 13 -46 12 c-38 9
-54 20 -82 58 -35 45 -35 46 -14 52 35 10 104 73 92 85 -7 7 -25 1 -55 -19
-52 -35 -105 -38 -105 -6 0 11 6 21 13 24 7 2 12 -5 12 -17 0 -12 6 -21 13
-21 22 0 97 54 97 70 1 9 15 -1 35 -25 19 -22 35 -42 34 -45z m-2992 -126 c27
-7 28 -12 8 -38 -14 -18 -15 -18 -46 8 -17 15 -44 33 -60 41 -26 14 -29 14
-39 -6 -14 -25 -18 -20 52 -62 55 -33 56 -35 41 -56 -13 -19 -16 -20 -26 -7
-7 9 -35 28 -64 44 l-52 28 40 63 39 62 42 -36 c24 -20 53 -38 65 -41z m1758
-73 l90 -57 12 -110 c20 -170 24 -161 -82 -200 -49 -18 -95 -33 -101 -33 -8
-1 -14 56 -18 187 -4 103 -9 206 -12 230 -4 31 -2 42 8 41 7 0 54 -26 103 -58z
m1409 -92 c14 -11 26 -28 26 -38 0 -9 6 -23 12 -29 10 -10 10 -15 -2 -22 -23
-15 -25 -13 -25 27 0 36 -2 38 -36 41 -40 3 -89 -28 -89 -58 0 -10 12 -28 26
-39 15 -12 21 -21 15 -21 -7 0 -23 11 -36 25 -73 72 28 178 109 114z m-3276
-64 c-7 -16 -19 -25 -34 -25 -29 0 -49 -33 -30 -49 7 -6 16 -8 19 -4 10 9 8
-9 -1 -25 -6 -8 -24 8 -60 52 l-52 65 48 4 c124 9 123 10 110 -18z m3366 -124
c32 -78 32 -81 4 -81 -32 -1 -108 -37 -108 -52 0 -19 -18 4 -25 32 -5 21 -2
26 14 27 27 2 111 40 111 50 0 4 -4 14 -9 22 -8 12 -16 12 -58 -4 -26 -10 -55
-24 -64 -32 -15 -13 -18 -11 -26 13 -9 27 -8 28 56 51 36 12 68 28 70 34 4 14
6 12 35 -60z m-3524 34 c7 -8 25 -14 42 -12 47 3 56 -21 34 -87 l-19 -55 -23
18 c-13 10 -45 24 -71 31 -26 7 -49 14 -51 16 -6 4 40 89 52 96 16 11 22 10
36 -7z m1583 -26 c28 -7 62 -34 121 -95 46 -46 91 -84 100 -84 10 0 124 34
254 76 259 82 332 98 332 70 0 -52 -105 -177 -265 -314 -58 -50 -59 -51 -41
-71 10 -11 15 -25 11 -31 -10 -16 -133 -76 -194 -94 -78 -23 -174 -21 -227 5
-50 24 -73 56 -110 159 -36 99 -48 116 -111 152 -29 16 -55 33 -58 38 -9 15
26 109 52 141 22 26 71 57 93 59 3 0 22 -5 43 -11z m-1653 -117 c0 -4 -5 -13
-11 -19 -8 -8 -5 -15 13 -27 23 -15 29 -15 68 -1 49 17 56 15 41 -13 -6 -11
-26 -23 -46 -26 -41 -8 -38 -26 4 -26 25 0 28 -3 23 -25 -2 -14 -6 -25 -9 -25
-2 0 -33 9 -68 21 -35 11 -69 18 -75 14 -12 -8 -13 -3 -1 29 9 23 12 24 40 13
44 -16 50 -1 13 33 -32 29 -38 41 -25 53 9 10 33 9 33 -1z m1458 -19 c-2 -12
-22 -20 -72 -30 -75 -13 -81 -16 -71 -33 11 -17 128 -91 223 -140 77 -39 116
-79 90 -89 -39 -14 -388 199 -388 238 0 22 121 69 183 70 31 1 38 -2 35 -16z
m2131 -116 c-55 -50 -64 -56 -70 -40 -12 29 -10 43 6 43 21 0 20 49 -1 57 -9
3 -20 0 -25 -8 -5 -9 -9 -10 -9 -2 0 6 -2 18 -5 25 -5 12 8 12 81 -1 l86 -16
-63 -58z m-1133 12 c32 -23 62 -44 66 -48 4 -3 12 -49 18 -101 6 -52 13 -110
16 -127 l5 -33 -135 0 c-153 0 -138 -9 -151 90 l-5 45 47 25 c70 37 165 109
158 120 -3 6 -37 10 -76 10 -38 0 -69 3 -69 7 0 12 43 53 55 53 6 0 38 -18 71
-41z m-6 -44 c-20 -24 -150 -102 -209 -125 -46 -18 -56 -19 -68 -7 -11 11 -1
18 64 45 43 18 89 41 102 51 l24 18 -51 -5 c-29 -2 -52 -2 -52 1 0 19 62 36
129 37 64 0 72 -2 61 -15z m-2462 -17 c7 -7 12 -25 12 -40 0 -28 10 -33 54
-30 13 2 16 -2 12 -14 -3 -8 -6 -22 -6 -30 0 -11 -4 -12 -20 -4 -10 6 -46 13
-78 16 l-59 7 9 40 c5 23 14 47 20 54 13 16 40 17 56 1z m3661 -13 c29 -15 51
-58 51 -101 0 -18 -6 -24 -21 -24 -18 0 -19 3 -10 14 7 8 11 27 9 43 -3 25 -7
28 -47 31 -70 5 -100 -35 -65 -88 l17 -25 -23 22 c-40 38 -26 113 25 133 28
12 33 12 64 -5z m-2018 -135 c15 -8 19 -22 19 -60 0 -47 -2 -50 -25 -50 -24 0
-25 3 -25 60 0 64 1 66 31 50z m-1701 -6 c0 -3 -7 -12 -15 -20 -30 -31 -8 -65
33 -49 16 6 16 7 -2 21 -19 13 -18 14 12 14 34 0 40 -8 20 -28 -9 -9 -5 -12
20 -12 27 0 32 4 32 24 0 14 -4 28 -10 31 -18 11 -10 23 11 18 19 -5 20 -10
14 -62 -4 -31 -8 -57 -8 -57 -1 -1 -31 2 -67 6 -35 5 -68 6 -72 4 -5 -3 -8 22
-8 55 0 54 2 61 20 61 11 0 20 -3 20 -6z m3780 -52 c0 -26 -2 -27 -47 -27 -27
0 -63 -3 -80 -7 -31 -7 -33 -6 -33 21 0 24 3 27 28 24 15 -2 47 0 72 6 25 5
48 9 53 10 4 1 7 -11 7 -27z m0 -102 c0 -24 -3 -26 -37 -22 -31 4 -35 2 -30
-13 4 -9 7 -21 7 -26 0 -13 44 -11 58 3 9 9 12 4 12 -22 l0 -35 -80 0 c-79 0
-80 0 -80 25 0 24 3 26 35 22 32 -4 35 -2 35 23 0 25 -3 27 -35 23 -32 -4 -35
-2 -35 22 0 25 1 25 75 25 74 0 75 0 75 -25z m-3640 1 c0 -5 -7 -11 -15 -15
-11 -4 -15 -22 -15 -73 l0 -68 -65 3 c-42 2 -71 -1 -80 -8 -13 -11 -15 -7 -15
22 l0 34 70 -4 70 -4 0 27 0 27 -70 -4 c-70 -3 -70 -3 -70 24 0 26 1 26 58 22
39 -4 65 0 82 10 29 17 50 20 50 7z m488 -37 c13 -8 21 -21 19 -27 -4 -12 -18
-12 -75 -1 -22 4 -40 1 -58 -10 -36 -24 -31 -90 8 -119 26 -20 29 -20 70 -4
37 15 44 15 57 3 12 -13 9 -17 -20 -35 -91 -56 -200 9 -186 111 12 89 109 132
185 82z m1210 0 c13 -8 21 -21 19 -27 -4 -12 -18 -12 -75 -1 -49 10 -82 -16
-82 -65 0 -61 48 -91 107 -66 32 14 39 14 51 1 13 -13 11 -17 -19 -35 -91 -56
-200 9 -186 111 12 89 109 132 185 82z m699 -1 c22 -14 23 -18 9 -31 -12 -13
-20 -13 -41 -4 -62 28 -115 0 -115 -61 0 -57 50 -86 107 -62 32 14 39 14 51 1
13 -13 11 -17 -19 -35 -65 -40 -143 -20 -174 45 -54 114 74 217 182 147z
m-1797 -20 l0 -36 33 37 c23 28 38 37 55 35 24 -4 23 -5 -13 -51 l-36 -48 41
-60 c36 -53 39 -61 24 -67 -13 -5 -29 7 -61 42 l-43 49 0 -48 c0 -39 -3 -47
-17 -44 -23 4 -31 37 -32 134 -1 86 2 94 31 94 14 0 18 -8 18 -37z m320 17 c0
-18 -7 -20 -60 -20 -53 0 -60 -2 -60 -20 0 -18 7 -20 55 -20 52 0 55 -1 55
-25 0 -24 -3 -25 -55 -25 -54 0 -55 0 -55 -30 l0 -30 66 0 c57 0 65 -2 62 -17
-3 -16 -15 -18 -88 -18 l-85 0 -3 113 -3 112 86 0 c78 0 85 -2 85 -20z m213
-93 c22 -59 38 -109 36 -112 -3 -2 -14 -2 -24 1 -13 3 -28 27 -45 71 -14 36
-29 65 -34 65 -6 0 -20 -30 -34 -65 -17 -47 -30 -67 -45 -71 -12 -3 -23 -3
-25 -1 -2 2 15 54 38 115 40 103 45 111 68 108 21 -3 30 -17 65 -111z m217 -2
c0 -108 -1 -115 -20 -115 -17 0 -20 7 -20 45 0 25 -3 45 -7 45 -5 0 -17 -17
-28 -37 -38 -70 -81 -72 -50 -2 18 38 18 42 2 69 -38 64 -7 110 73 110 l50 0
0 -115z m580 -1 c0 -114 0 -115 -22 -112 -22 3 -23 8 -26 96 l-3 92 -34 0 -35
0 0 -96 c0 -93 -1 -95 -22 -92 -21 3 -23 9 -26 83 -2 44 0 95 3 113 l6 32 79
0 80 0 0 -116z m203 17 c20 -54 37 -105 37 -114 0 -26 -29 -20 -42 8 -10 21
-18 25 -57 25 -38 0 -48 -4 -56 -22 -13 -29 -62 -40 -50 -11 4 10 22 58 41
107 42 109 40 106 67 106 19 0 28 -15 60 -99z m397 -17 c0 -114 0 -115 -22
-112 -22 3 -23 8 -26 102 -3 114 0 126 28 126 19 0 20 -6 20 -116z m114 76 c6
-38 8 -40 41 -40 34 0 35 1 35 40 0 33 3 40 20 40 19 0 20 -7 20 -115 0 -108
-1 -115 -20 -115 -17 0 -20 7 -20 50 l0 50 -34 0 c-32 0 -35 -2 -41 -42 -7
-40 -18 -57 -37 -58 -5 0 -8 52 -8 115 0 106 2 115 19 115 14 0 20 -10 25 -40z
m226 0 l0 -40 40 0 40 0 0 40 c0 33 3 40 20 40 19 0 20 -7 20 -115 0 -108 -1
-115 -20 -115 -17 0 -20 7 -20 50 l0 50 -40 0 -40 0 0 -51 c0 -46 -2 -50 -22
-47 -29 4 -32 20 -23 135 6 82 9 93 26 93 16 0 19 -7 19 -40z m320 -69 c0 -90
-3 -110 -16 -115 -29 -11 -33 -6 -36 42 l-3 47 -22 -41 c-19 -35 -58 -63 -71
-50 -1 2 7 24 19 49 l22 45 -22 23 c-28 30 -27 54 4 84 19 20 34 25 75 25 l50
0 0 -109z m395 -39 c51 2 64 0 60 -10 -3 -8 -5 -22 -5 -33 0 -16 -3 -17 -19
-8 -24 16 -51 5 -51 -21 0 -16 6 -20 35 -20 32 0 35 -2 35 -30 0 -29 -13 -40
-25 -20 -8 14 -122 13 -131 -1 -3 -6 6 -24 22 -40 21 -22 31 -26 41 -18 7 6
24 8 38 5 22 -6 25 -11 25 -55 0 -75 -4 -81 -48 -65 -20 7 -54 13 -74 14 -29
0 -38 4 -38 18 0 25 16 47 24 33 8 -12 46 -15 46 -4 0 4 -12 19 -26 34 -23 25
-25 32 -19 82 l7 55 40 -6 c37 -5 40 -3 36 19 -2 19 -10 25 -35 27 -29 3 -33
7 -33 34 0 26 2 28 15 18 9 -7 38 -10 80 -8z m-3605 -102 c0 -17 -5 -29 -11
-27 -16 3 -33 -28 -25 -48 4 -11 13 -15 26 -12 14 4 20 0 20 -12 0 -16 -7 -15
-75 7 -41 14 -75 29 -75 33 0 7 119 87 133 88 4 1 7 -12 7 -29z m1227 -132
c-5 -40 -12 -75 -15 -78 -4 -3 -67 -4 -141 -2 l-133 4 6 46 c4 26 9 59 12 75
l6 27 137 0 137 0 -9 -72z m363 -84 c0 -141 -2 -156 -16 -150 -57 22 -206 59
-309 76 -120 21 -347 32 -361 17 -9 -8 46 -151 122 -319 56 -122 151 -293 194
-348 l26 -33 89 13 c105 15 212 8 310 -20 38 -11 71 -18 73 -16 2 3 6 214 9
470 6 441 7 466 24 466 17 0 18 -24 21 -464 2 -255 5 -466 8 -469 3 -3 48 6
100 20 96 25 184 27 331 7 l46 -6 57 88 c68 107 165 304 235 476 28 70 51 129
51 132 0 3 -57 6 -127 6 -146 0 -267 -17 -436 -62 -100 -26 -120 -29 -128 -17
-5 8 -9 76 -9 152 l0 137 24 0 c22 0 23 -5 30 -77 3 -42 6 -96 6 -120 0 -23 4
-43 9 -43 5 0 51 11 103 24 51 14 129 31 173 38 82 13 408 18 420 7 7 -7 -138
-352 -215 -514 -51 -106 -133 -238 -167 -268 -19 -17 -25 -17 -79 -3 -138 34
-252 28 -387 -21 l-69 -25 -101 34 c-88 28 -115 33 -197 32 -56 -1 -122 -8
-160 -18 l-65 -18 -23 29 c-78 97 -153 240 -288 553 l-93 215 57 8 c127 18
381 -5 564 -53 43 -11 82 -20 88 -20 6 0 10 45 10 120 l0 120 25 0 25 0 0
-156z m974 119 c3 -21 6 -55 6 -75 l0 -38 -104 0 c-57 0 -117 -3 -133 -6 l-30
-6 -9 81 -10 81 137 0 136 0 7 -37z m-2544 -65 c0 -12 -12 -35 -27 -50 -22
-23 -24 -28 -9 -28 9 0 26 5 37 10 15 8 19 7 19 -4 0 -8 2 -21 5 -29 4 -10 -3
-14 -27 -15 -31 -1 -72 -11 -109 -27 -13 -5 -18 1 -21 24 -4 27 -2 30 16 26
26 -6 51 9 42 24 -4 6 -17 11 -29 11 -31 0 -50 15 -45 35 5 29 30 32 26 4 -2
-19 2 -25 23 -27 20 -2 33 6 55 32 34 41 44 44 44 14z m3517 -92 c32 8 29 -3
-6 -21 -28 -14 -31 -14 -45 7 -22 32 -20 42 6 24 12 -9 31 -13 45 -10z m-61
-35 c5 -5 24 -11 43 -13 l34 -3 -35 -17 -35 -16 -17 29 c-16 28 -11 39 10 20z
m-3430 -29 c14 -9 34 -46 44 -83 8 -27 7 -29 -19 -29 -15 0 -48 -11 -74 -23
l-46 -24 -11 30 c-13 37 -13 40 1 32 5 -4 21 -4 34 -1 21 5 23 10 18 41 -8 49
20 79 53 57z m3409 -156 c22 -10 42 -20 44 -22 10 -9 -24 -34 -46 -34 -25 0
-25 -1 -9 -25 10 -15 13 -31 9 -39 -12 -20 -100 23 -95 47 4 18 27 23 37 7 3
-5 11 -10 17 -10 6 0 3 11 -6 25 -22 34 -20 38 14 33 36 -5 40 7 5 16 -14 4
-25 11 -25 17 0 6 3 9 8 7 4 -2 25 -12 47 -22z m-824 -242 c16 -137 29 -250
29 -250 0 -2 -161 -108 -203 -133 -21 -13 -41 -21 -44 -18 -3 4 -11 52 -18
109 l-12 103 57 115 c31 63 79 163 105 223 26 59 50 106 52 103 2 -2 18 -116
34 -252z m-2509 229 c25 -23 24 -87 -2 -113 -24 -24 -77 -26 -107 -5 -28 19
-48 86 -30 97 21 14 28 9 15 -12 -14 -22 -5 -45 25 -64 13 -8 26 -6 55 9 43
23 53 56 26 86 -21 23 -8 25 18 2z m908 -248 l88 -180 -14 -99 c-8 -55 -16
-101 -18 -104 -7 -7 -125 61 -194 112 -41 30 -62 53 -62 66 0 25 57 414 66
450 6 24 7 22 27 -20 11 -25 59 -126 107 -225z m2340 125 c0 -5 -5 -12 -11
-16 -14 -8 -33 11 -25 25 7 11 36 4 36 -9z m-3170 -39 c0 -3 -14 -14 -31 -23
-26 -15 -28 -20 -19 -38 14 -25 25 -25 51 1 20 20 21 20 34 2 21 -26 20 -27
-36 -53 -28 -14 -57 -33 -64 -43 -12 -18 -14 -17 -29 5 -21 29 -20 38 3 38 29
0 43 23 27 45 -13 18 -15 18 -41 1 -15 -10 -28 -16 -30 -14 -1 2 -8 13 -14 26
-10 19 -9 22 8 22 10 0 41 15 67 33 43 30 51 32 62 18 6 -8 12 -17 12 -20z
m3100 -62 c0 -5 -7 -9 -16 -9 -9 0 -14 -6 -12 -12 5 -13 103 -31 126 -23 15 5
15 -4 -2 -34 -8 -15 -16 -20 -20 -12 -4 6 -23 11 -42 11 l-35 0 16 -29 c8 -16
19 -31 24 -33 7 -2 7 -9 1 -18 -11 -17 -7 -22 -48 63 -34 72 -40 103 -19 110
15 5 27 -1 27 -14z m-3014 -76 c17 -23 17 -33 0 -33 -7 0 -19 -7 -26 -15 -11
-13 -7 -15 27 -15 36 0 44 -5 77 -47 l36 -46 -38 -34 -37 -33 40 6 c22 3 45
12 51 20 9 11 14 10 30 -7 18 -20 18 -21 -16 -47 -19 -15 -46 -37 -59 -50 -22
-22 -24 -22 -42 -6 -19 17 -18 18 10 35 16 9 32 22 35 28 11 17 -60 13 -77 -4
-13 -13 -17 -12 -31 10 -14 22 -14 24 2 29 27 9 95 83 88 95 -4 6 -25 11 -47
11 -32 0 -39 -3 -39 -20 0 -23 -32 -43 -54 -34 -9 3 -29 24 -46 46 l-29 41 37
18 c20 10 48 30 62 43 30 30 30 30 46 9z m2924 -80 c0 -18 37 -53 55 -53 9 0
15 6 13 14 -2 8 2 15 7 15 6 1 10 -7 10 -16 0 -15 -8 -18 -42 -16 -24 1 -43
-2 -43 -8 0 -5 3 -9 8 -9 4 0 16 -7 26 -15 19 -14 19 -15 1 -34 -17 -20 -18
-20 -35 2 -21 26 -36 18 -21 -11 16 -30 14 -62 -4 -62 -17 0 -19 12 -5 26 6 6
5 17 -6 32 -12 18 -25 22 -66 22 -43 0 -49 2 -38 14 6 8 30 16 53 18 l42 3
-27 15 c-27 15 -27 17 -12 38 l15 22 19 -22 c24 -31 35 -17 16 20 -11 22 -12
32 -3 41 9 9 15 8 24 -6 7 -9 13 -23 13 -30z m-117 -220 l45 -42 -44 -40 c-24
-23 -45 -41 -48 -41 -2 0 -10 8 -17 17 -12 15 -12 16 3 10 10 -3 26 2 40 13
l23 20 -51 49 -51 50 21 20 c19 20 21 20 27 3 4 -9 27 -36 52 -59z m-1433 31
c57 -27 179 -123 140 -110 -165 55 -215 58 -301 16 l-45 -22 -38 23 -38 22 30
13 c53 22 142 36 195 30 51 -5 51 -5 12 5 -52 14 -158 3 -212 -21 -28 -12 -45
-15 -49 -8 -4 5 -26 23 -51 38 l-45 29 44 10 c24 5 99 9 168 8 116 -3 130 -5
190 -33z m553 20 c15 -4 27 -9 27 -13 0 -3 -22 -20 -49 -38 l-49 -32 -51 20
c-38 14 -74 19 -139 18 l-87 -2 90 -7 c50 -5 109 -16 133 -25 l43 -18 -38 -21
-38 -22 -50 23 c-39 18 -68 23 -133 23 -53 0 -81 4 -77 10 3 6 -1 10 -11 10
-50 0 66 62 149 80 42 9 228 5 280 -6z m-1714 -114 c-48 -45 -52 -52 -36 -61
9 -6 22 -7 28 -3 7 4 10 1 7 -6 -8 -25 -23 -20 -73 24 -47 42 -49 46 -33 62
16 16 17 16 12 -3 -15 -55 53 -19 94 50 16 27 17 27 35 8 19 -18 18 -20 -34
-71z m2466 -25 c14 -13 25 -36 25 -50 0 -30 -49 -85 -75 -85 -24 0 -72 27 -79
45 -21 55 18 115 74 115 19 0 40 -9 55 -25z m-2332 4 c39 -18 59 -61 46 -98
-21 -60 -96 -71 -144 -21 -28 29 -28 31 -11 48 15 15 16 15 11 0 -9 -24 12
-58 37 -58 29 0 78 48 78 77 0 16 -11 30 -32 43 -35 21 -25 27 15 9z m1167
-14 c58 -30 60 -85 3 -85 -24 0 -24 0 6 -26 31 -26 40 -57 20 -70 -19 -11 -87
-6 -118 10 -57 30 -62 75 -10 91 19 6 18 8 -6 27 -24 19 -33 47 -18 61 12 13
94 7 123 -8z m984 -78 c3 -12 21 -41 41 -64 l35 -41 -35 -22 c-45 -28 -79 -24
-83 11 -2 15 4 32 14 40 15 12 17 12 12 -1 -7 -20 9 -50 27 -50 8 0 15 3 15 7
0 17 -67 103 -80 103 -10 0 -7 7 10 20 32 25 37 25 44 -3z m-2017 -10 c10 -7
7 -16 -12 -39 -14 -16 -25 -33 -25 -38 0 -14 38 1 64 25 24 22 25 22 53 4 18
-12 22 -19 12 -19 -9 0 -31 -26 -50 -60 -19 -33 -36 -59 -39 -59 -15 0 -44 31
-34 37 5 4 20 22 33 40 l23 33 -38 -16 c-22 -8 -44 -22 -50 -30 -9 -12 -13
-12 -32 1 l-21 14 24 26 c14 15 32 43 42 64 17 36 23 38 50 17z m1907 -88 c55
-43 18 -139 -54 -139 -19 0 -40 9 -55 25 -72 71 29 177 109 114z m-194 -60
c-14 -34 -6 -92 16 -114 14 -14 11 -17 -31 -36 -26 -11 -48 -19 -49 -17 -1 1
-10 29 -19 60 -11 34 -26 62 -37 68 -34 18 -24 36 18 32 41 -4 92 26 92 56 1
15 2 15 11 -1 8 -13 7 -27 -1 -48z m-1512 37 c19 -10 21 -14 10 -24 -8 -6 -25
-35 -38 -64 -13 -29 -25 -55 -26 -57 -2 -1 -21 7 -43 20 -29 16 -41 29 -41 45
0 31 24 47 60 39 28 -6 31 -4 36 24 7 35 9 36 42 17z m860 -29 c39 -37 23 -77
-32 -77 -41 1 -112 33 -125 58 -11 21 2 46 29 54 26 8 104 -13 128 -35z m-791
-7 c25 -9 29 -15 25 -40 -2 -17 0 -30 6 -30 22 0 42 13 42 26 0 16 9 18 28 5
10 -6 4 -13 -25 -27 -39 -20 -41 -24 -29 -89 l7 -34 -30 10 c-19 7 -28 15 -24
25 3 8 2 22 -2 32 -6 15 -8 15 -25 -6 -14 -16 -24 -21 -35 -15 -12 7 -8 12 20
27 40 22 39 18 21 79 -8 26 -13 47 -12 47 2 0 16 -5 33 -10z m775 -97 c68 -40
62 -86 -11 -91 -85 -6 -167 59 -130 104 17 21 97 13 141 -13z"/>
<path d="M3277 5343 c-12 -12 -7 -33 8 -33 17 0 19 9 7 28 -5 7 -11 9 -15 5z"/>
<path d="M3126 5348 c8 -29 10 -31 23 -23 20 12 13 45 -10 45 -16 0 -19 -4
-13 -22z"/>
<path d="M3140 5282 c0 -34 7 -43 26 -35 21 8 17 41 -6 53 -18 10 -20 8 -20
-18z"/>
<path d="M2733 5253 c-30 -11 -3 -113 33 -127 22 -8 44 11 44 39 0 23 -38 87
-55 91 -5 1 -16 0 -22 -3z"/>
<path d="M4234 5235 c-7 -18 2 -45 14 -45 8 0 32 42 32 55 0 12 -41 3 -46 -10z"/>
<path d="M2422 5078 c-20 -20 -14 -45 19 -83 34 -38 50 -43 69 -20 16 20 -3
68 -38 95 -29 23 -34 24 -50 8z"/>
<path d="M2137 4834 c-8 -8 21 -44 35 -44 5 0 8 10 6 22 -3 23 -27 35 -41 22z"/>
<path d="M2191 4786 c-9 -11 -7 -18 10 -30 24 -16 39 -13 39 9 0 23 -36 37
-49 21z"/>
<path d="M2010 4685 c0 -48 79 -101 107 -72 21 21 8 54 -30 78 -47 28 -77 25
-77 -6z"/>
<path d="M5040 4545 c-10 -12 -10 -19 -1 -28 14 -14 44 2 49 27 4 21 -31 22
-48 1z"/>
<path d="M1822 4274 c9 -9 21 -13 27 -10 20 13 11 26 -16 26 -25 0 -26 -1 -11
-16z"/>
<path d="M1722 4173 c2 -10 13 -19 26 -21 24 -4 29 7 10 26 -18 18 -40 15 -36
-5z"/>
<path d="M1793 4163 c-22 -8 -14 -31 13 -37 32 -8 42 -1 28 21 -12 19 -23 24
-41 16z"/>
<path d="M3280 4137 c-15 -8 -31 -30 -42 -59 l-17 -47 47 -34 c50 -36 70 -68
123 -199 41 -103 70 -123 172 -115 49 3 97 15 150 37 l78 33 -21 22 -21 23 83
58 c96 66 190 154 237 219 18 25 30 45 26 45 -3 0 -118 -36 -256 -80 -138 -44
-263 -80 -279 -80 -23 0 -43 17 -105 85 -42 46 -86 87 -98 90 -12 4 -29 8 -37
11 -8 2 -26 -2 -40 -9z m40 -32 c0 -8 -7 -15 -15 -15 -8 0 -15 7 -15 15 0 8 7
15 15 15 8 0 15 -7 15 -15z"/>
<path d="M5250 3985 c0 -10 7 -15 18 -13 21 4 19 22 -2 26 -10 2 -16 -3 -16
-13z"/>
<path d="M1630 3845 c0 -10 10 -15 31 -15 27 0 30 2 19 15 -7 8 -21 15 -31 15
-11 0 -19 -7 -19 -15z"/>
<path d="M3034 3505 c-4 -9 -2 -21 4 -27 15 -15 44 -1 40 19 -4 23 -36 29 -44
8z"/>
<path d="M3829 3467 c-14 -31 -9 -40 19 -35 17 3 17 6 6 33 l-12 30 -13 -28z"/>
<path d="M4869 3504 c-10 -13 -10 -17 2 -25 25 -15 39 -10 39 16 0 28 -21 33
-41 9z"/>
<path d="M5314 3165 c-8 -19 -7 -20 29 -29 26 -6 28 -4 25 16 -4 28 -45 38
-54 13z"/>
<path d="M1672 3253 c-15 -6 -6 -23 14 -23 8 0 14 7 14 15 0 15 -6 17 -28 8z"/>
<path d="M1772 2948 c-21 -21 -15 -40 11 -33 34 11 44 24 27 35 -20 13 -24 12
-38 -2z"/>
<path d="M1949 2431 c-22 -18 -22 -20 -6 -26 25 -10 47 1 47 25 0 25 -11 25
-41 1z"/>
<path d="M4617 2133 c-16 -15 -5 -53 23 -83 35 -37 64 -37 68 1 5 46 -64 109
-91 82z"/>
<path d="M4326 1934 c-8 -20 16 -74 42 -98 18 -16 24 -17 38 -5 31 26 -9 119
-51 119 -13 0 -26 -7 -29 -16z"/>
<path d="M4171 1871 c-12 -8 -12 -16 2 -53 24 -60 34 -75 45 -63 12 13 -9 125
-23 125 -5 0 -16 -4 -24 -9z"/>
<path d="M2620 1855 c-7 -8 -9 -23 -5 -32 6 -17 7 -17 21 1 26 36 12 64 -16
31z"/>
</g>
</svg>
